<svg width="40" height="40" viewBox="0 0 40 40" fill="none" xmlns="http://www.w3.org/2000/svg">
<g id="4" clip-path="url(#clip0_70_839)">
<path id="Vector" d="M20 40C31.0457 40 40 31.0457 40 20C40 8.95431 31.0457 0 20 0C8.95431 0 0 8.95431 0 20C0 31.0457 8.95431 40 20 40Z" fill="url(#paint0_linear_70_839)"/>
<path id="Vector_2" d="M24.2489 8.88867H15.76C11.9734 8.88867 8.8978 11.9642 8.8978 15.7509V24.2398C8.8978 28.0265 11.9734 31.102 15.76 31.102H24.2489C28.0356 31.102 31.1111 28.0265 31.1111 24.2398V15.7509C31.1111 11.9642 28.0356 8.88867 24.2489 8.88867ZM28.6311 24.2487C28.6311 26.6664 26.6667 28.6398 24.24 28.6398H15.7511C13.3334 28.6398 11.36 26.6753 11.36 24.2487V15.7598C11.36 13.342 13.3245 11.3687 15.7511 11.3687H24.24C26.6578 11.3687 28.6311 13.3331 28.6311 15.7598V24.2487Z" fill="#F8F9FA"/>
<path id="Vector_3" d="M20 14.3203C16.8711 14.3203 14.32 16.8714 14.32 20.0003C14.32 23.1292 16.8711 25.6803 20 25.6803C23.1289 25.6803 25.68 23.1292 25.68 20.0003C25.68 16.8714 23.1289 14.3203 20 14.3203ZM20 23.4492C18.0978 23.4492 16.5511 21.9025 16.5511 20.0003C16.5511 18.0981 18.0978 16.5514 20 16.5514C21.9022 16.5514 23.4489 18.0981 23.4489 20.0003C23.4489 21.9025 21.9022 23.4492 20 23.4492Z" fill="#F8F9FA"/>
<path id="Vector_4" d="M26.1133 14.9419C26.6366 14.8567 26.9917 14.3634 26.9065 13.8401C26.8212 13.3168 26.3279 12.9616 25.8046 13.0469C25.2813 13.1321 24.9262 13.6254 25.0114 14.1487C25.0967 14.672 25.59 15.0271 26.1133 14.9419Z" fill="#F8F9FA"/>
</g>
<defs>
<linearGradient id="paint0_linear_70_839" x1="4.77147" y1="35.2285" x2="33.1937" y2="6.80631" gradientUnits="userSpaceOnUse">
<stop stop-color="#FEE411"/>
<stop offset="0.052" stop-color="#FEDB16"/>
<stop offset="0.138" stop-color="#FEC125"/>
<stop offset="0.248" stop-color="#FE983D"/>
<stop offset="0.376" stop-color="#FE5F5E"/>
<stop offset="0.5" stop-color="#FE2181"/>
<stop offset="1" stop-color="#9000DC"/>
</linearGradient>
<clipPath id="clip0_70_839">
<rect width="40" height="40" fill="white"/>
</clipPath>
</defs>
</svg>
