<?xml version="1.0" encoding="UTF-8"?> <svg xmlns="http://www.w3.org/2000/svg" width="72" height="72" viewBox="0 0 72 72" fill="none"><circle opacity="0.15" cx="36" cy="36" r="36" fill="#32BA7C"></circle><circle opacity="0.3" cx="36" cy="36" r="35.5" stroke="#32BA7C"></circle><path d="M30.1666 31C30.1666 48.9167 30.3416 48.2417 29.7166 49.3334C29.4243 49.8396 29.0041 50.2601 28.498 50.5526C27.9919 50.8451 27.4178 50.9994 26.8333 51H20.1666C19.2825 51 18.4347 50.6488 17.8096 50.0237C17.1844 49.3986 16.8333 48.5507 16.8333 47.6667V31C16.8333 30.116 17.1844 29.2681 17.8096 28.643C18.4347 28.0179 19.2825 27.6667 20.1666 27.6667H26.8333C27.7173 27.6667 28.5652 28.0179 29.1903 28.643C29.8154 29.2681 30.1666 30.116 30.1666 31Z" fill="#6FABE6"></path><path d="M26.8333 27.6667C19.4666 27.6667 19.8499 27.625 19.3333 27.775V38.95C19.3333 41.7039 20.4272 44.3449 22.3745 46.2922C24.3217 48.2394 26.9628 49.3334 29.7166 49.3334C30.3416 48.25 30.1666 48.9167 30.1666 31C30.1666 30.116 29.8154 29.2681 29.1903 28.643C28.5652 28.0179 27.7173 27.6667 26.8333 27.6667ZM25.8499 34.1834C25.727 34.4569 25.5325 34.6921 25.2871 34.8643C25.0416 35.0366 24.7542 35.1394 24.4552 35.162C24.1562 35.1845 23.8567 35.126 23.5881 34.9926C23.3196 34.8591 23.092 34.6557 22.9294 34.4038C22.7668 34.1518 22.6752 33.8607 22.6642 33.5611C22.6532 33.2614 22.7233 32.9643 22.867 32.7012C23.0108 32.438 23.2228 32.2185 23.4809 32.0657C23.7389 31.913 24.0334 31.8327 24.3333 31.8334C24.6112 31.8339 24.8847 31.904 25.1286 32.0373C25.3726 32.1705 25.5794 32.3627 25.7301 32.5963C25.8809 32.8298 25.9708 33.0974 25.9917 33.3746C26.0126 33.6518 25.9639 33.9298 25.8499 34.1834Z" fill="#82BCF4"></path><path d="M26.8333 32.6667C26.834 32.9665 26.7537 33.261 26.6009 33.519C26.4482 33.7771 26.2287 33.9892 25.9655 34.1329C25.7024 34.2766 25.4053 34.3467 25.1056 34.3357C24.806 34.3247 24.5148 34.2331 24.2629 34.0705C24.011 33.9079 23.8075 33.6803 23.6741 33.4118C23.5407 33.1433 23.4822 32.8437 23.5047 32.5447C23.5273 32.2457 23.6301 31.9583 23.8023 31.7129C23.9746 31.4674 24.2098 31.2729 24.4833 31.15C24.7369 31.036 25.0149 30.9873 25.2921 31.0082C25.5693 31.0291 25.8369 31.1191 26.0704 31.2698C26.304 31.4205 26.4962 31.6273 26.6294 31.8713C26.7626 32.1153 26.8328 32.3887 26.8333 32.6667Z" fill="#DAD7E5"></path><path d="M26.6833 33.35C26.3755 33.4869 26.0333 33.5272 25.7021 33.4657C25.3708 33.4042 25.066 33.2438 24.8278 33.0056C24.5895 32.7673 24.4291 32.4625 24.3676 32.1312C24.3061 31.8 24.3465 31.4579 24.4833 31.15C24.7912 31.0131 25.1333 30.9728 25.4645 31.0343C25.7958 31.0958 26.1006 31.2562 26.3389 31.4944C26.5771 31.7327 26.7375 32.0375 26.799 32.3688C26.8605 32.7 26.8202 33.0421 26.6833 33.35Z" fill="#EDEBF2"></path><path d="M54.4334 39.4333C53.965 39.9023 53.3296 40.1661 52.6667 40.1667C53.3298 40.1667 53.9657 40.4301 54.4345 40.8989C54.9034 41.3677 55.1667 42.0036 55.1667 42.6667C55.1667 43.3297 54.9034 43.9656 54.4345 44.4344C53.9657 44.9033 53.3298 45.1667 52.6667 45.1667C53.1609 45.1671 53.6438 45.314 54.0545 45.5887C54.4652 45.8634 54.7853 46.2537 54.9744 46.7103C55.1634 47.1668 55.2129 47.6691 55.1166 48.1538C55.0204 48.6385 54.7826 49.0837 54.4334 49.4333C53.4334 50.4333 53.8084 50.1667 40.1667 50.1667L30.1667 47.6667V32.6667C32.3138 31.7683 34.2349 30.405 35.7917 28.675C36.7751 27.5167 38.3584 23.8167 38.8334 21.9083L39.0834 20.9167C39.7751 18.1667 44.3334 19.3833 44.3334 22.6667C44.3334 24.625 43.3084 28.3167 42.6667 30.1667C53.3001 30.1667 53.4417 29.9083 54.4334 30.9C54.7826 31.2496 55.0204 31.6949 55.1166 32.1795C55.2129 32.6642 55.1634 33.1665 54.9744 33.6231C54.7853 34.0796 54.4652 34.4699 54.0545 34.7446C53.6438 35.0194 53.1609 35.1662 52.6667 35.1667C53.1609 35.1671 53.6438 35.314 54.0545 35.5887C54.4652 35.8634 54.7853 36.2537 54.9744 36.7103C55.1634 37.1668 55.2129 37.6691 55.1166 38.1538C55.0204 38.6385 54.7826 39.0837 54.4334 39.4333Z" fill="#F6CCAF"></path><path d="M38.2917 27.0083C39.525 25.5583 40.9417 21.7833 41.5334 19.4417C41.2756 19.3769 41.0076 19.3637 40.7448 19.4029C40.4819 19.442 40.2294 19.5327 40.0017 19.6698C39.774 19.8069 39.5757 19.9876 39.4181 20.2016C39.2605 20.4156 39.1467 20.6586 39.0834 20.9167C38.4692 23.6821 37.3536 26.3116 35.7917 28.675C35.2966 29.2355 34.7559 29.7539 34.175 30.225C35.7342 29.4163 37.13 28.3257 38.2917 27.0083Z" fill="#EDB996"></path><path d="M41.3084 48.1583C38.8417 47.5417 36.6516 46.1187 35.086 44.1152C33.5203 42.1118 32.6689 39.6427 32.6667 37.1V31.325C31.8604 31.8208 31.0256 32.2688 30.1667 32.6667V47.6667L40.1667 50.1667H52.6667C53.1825 50.1652 53.6853 50.0043 54.106 49.7059C54.5267 49.4075 54.8448 48.9863 55.0167 48.5C43.3584 48.5 43.1167 48.6083 41.3084 48.1583Z" fill="#EDB996"></path></svg> 