<?xml version="1.0" encoding="UTF-8"?> <svg xmlns="http://www.w3.org/2000/svg" width="72" height="72" viewBox="0 0 72 72" fill="none"><circle opacity="0.15" cx="36" cy="36" r="36" fill="#F15249"></circle><circle opacity="0.3" cx="36" cy="36" r="35.5" stroke="#F15249"></circle><path d="M30.1666 23.5667C30.1666 41.5167 30.3333 40.7833 29.7583 41.8333C29.4711 42.3581 29.048 42.796 28.5334 43.101C28.0187 43.4059 27.4315 43.5668 26.8333 43.5667H20.1666C19.2825 43.5667 18.4347 43.2155 17.8096 42.5903C17.1844 41.9652 16.8333 41.1174 16.8333 40.2333V23.5667C16.8338 22.8281 17.0796 22.1106 17.5321 21.5269C17.9846 20.9432 18.6181 20.5263 19.3333 20.3417C19.8833 20.1833 19.7083 20.2333 26.8333 20.2333C27.7173 20.2333 28.5652 20.5845 29.1903 21.2096C29.8154 21.8348 30.1666 22.6826 30.1666 23.5667Z" fill="#DB5669"></path><path d="M30.1667 23.5667C30.1667 41.5167 30.3333 40.7833 29.7583 41.8333C28.191 41.8373 26.6435 41.4839 25.2333 40.8C25.4595 40.6469 25.6446 40.4405 25.7723 40.199C25.9 39.9575 25.9664 39.6883 25.9657 39.4152C25.9649 39.142 25.897 38.8732 25.7679 38.6325C25.6389 38.3917 25.4526 38.1863 25.2256 38.0345C24.9985 37.8826 24.7376 37.7889 24.4658 37.7615C24.194 37.7342 23.9197 37.7741 23.6669 37.8777C23.4141 37.9813 23.1907 38.1454 23.0163 38.3557C22.8419 38.5659 22.7218 38.8158 22.6667 39.0833C21.6106 38.104 20.7692 36.9163 20.1955 35.5952C19.6217 34.2742 19.3282 32.8486 19.3333 31.4083V20.3417C19.8833 20.1833 19.7083 20.2333 26.8333 20.2333C27.7174 20.2333 28.5652 20.5845 29.1903 21.2096C29.8155 21.8348 30.1667 22.6826 30.1667 23.5667Z" fill="#F26674"></path><path d="M25.1667 40.2334C26.0871 40.2334 26.8333 39.4872 26.8333 38.5667C26.8333 37.6462 26.0871 36.9 25.1667 36.9C24.2462 36.9 23.5 37.6462 23.5 38.5667C23.5 39.4872 24.2462 40.2334 25.1667 40.2334Z" fill="#DAD7E5"></path><path d="M26.6833 39.25C26.3755 39.3869 26.0333 39.4272 25.7021 39.3657C25.3708 39.3043 25.066 39.1438 24.8278 38.9056C24.5895 38.6674 24.4291 38.3625 24.3676 38.0313C24.3061 37.7 24.3465 37.3579 24.4833 37.05C24.7912 36.9132 25.1333 36.8728 25.4645 36.9343C25.7958 36.9958 26.1006 37.1562 26.3389 37.3945C26.5771 37.6327 26.7375 37.9375 26.799 38.2688C26.8605 38.6001 26.8202 38.9422 26.6833 39.25Z" fill="#EDEBF2"></path><path d="M54.4334 31.8333C54.2043 31.5951 53.9301 31.4047 53.6269 31.2731C53.3236 31.1415 52.9973 31.0713 52.6667 31.0667C53.3298 31.0667 53.9657 30.8033 54.4345 30.3344C54.9034 29.8656 55.1667 29.2297 55.1667 28.5667C55.1667 27.9036 54.9034 27.2678 54.4345 26.7989C53.9657 26.3301 53.3298 26.0667 52.6667 26.0667C53.1541 26.0599 53.6289 25.9108 54.0327 25.6378C54.4364 25.3647 54.7515 24.9796 54.9393 24.5297C55.127 24.0799 55.1791 23.585 55.0892 23.106C54.9994 22.6269 54.7714 22.1845 54.4334 21.8333C53.4334 20.8333 53.8084 21.1 40.1667 21.1L30.1667 23.6V38.6C32.3138 39.4984 34.2349 40.8617 35.7917 42.5917C36.7751 43.75 38.3584 47.45 38.8334 49.3583L39.0834 50.35C39.7751 53.0667 44.3334 51.8333 44.3334 48.5667C44.3334 46.6083 43.3084 42.9167 42.6667 41.0667C53.3001 41.0667 53.4417 41.325 54.4334 40.3333C54.7826 39.9837 55.0204 39.5385 55.1166 39.0538C55.2129 38.5691 55.1634 38.0668 54.9744 37.6103C54.7853 37.1537 54.4652 36.7634 54.0545 36.4887C53.6438 36.214 53.1609 36.0671 52.6667 36.0667C53.1541 36.0599 53.6289 35.9108 54.0327 35.6378C54.4364 35.3647 54.7515 34.9796 54.9393 34.5297C55.127 34.0799 55.1791 33.585 55.0892 33.106C54.9994 32.6269 54.7714 32.1845 54.4334 31.8333Z" fill="#F6CCAF"></path><path d="M42.4001 49.6833C41.8485 49.1346 41.4766 48.4314 41.3334 47.6667C40.8584 45.7583 39.2751 42.0583 38.2917 40.9C35.1667 37.2583 32.6667 37.9083 32.6667 35.6667V22.9417L30.1667 23.5667V38.5667C32.3138 39.465 34.2349 40.8283 35.7917 42.5583C36.7751 43.7167 38.3584 47.4167 38.8334 49.325L39.0834 50.3166C39.6334 52.5 42.7167 52.2333 43.8751 50.1333C43.6114 50.1962 43.3358 50.1876 43.0765 50.1085C42.8173 50.0294 42.5838 49.8826 42.4001 49.6833Z" fill="#EDB996"></path></svg> 