<?xml version="1.0" encoding="UTF-8"?> <svg xmlns="http://www.w3.org/2000/svg" width="62" height="62" viewBox="0 0 62 62" fill="none"><g id="SVG"><path id="Vector" d="M58.3064 11.5405H45.8393V10.9035C45.8393 10.1495 45.4467 9.48745 44.8571 9.1037V7.23837C44.8571 4.32377 42.4799 1.95215 39.5592 1.95215H22.4656C19.5312 1.95215 17.1429 4.32377 17.1429 7.23837V9.10467C16.553 9.48854 16.1607 10.1502 16.1607 10.9036V11.5406H3.69239C2.00713 11.5406 0.635742 12.9064 0.635742 14.5855V30.9575C0.635742 32.4957 1.79086 33.7578 3.27982 33.9609V56.5991C3.27982 58.5006 4.82668 60.0481 6.72942 60.0481H55.2696C57.1724 60.0481 58.7192 58.5006 58.7192 56.5991V33.9607C60.2091 33.7577 61.3645 32.4957 61.3645 30.9574V14.5854C61.3644 12.9063 59.9929 11.5405 58.3064 11.5405ZM21.151 9.0308V7.23837C21.151 6.52671 21.7403 5.94788 22.4656 5.94788H39.559C40.2707 5.94788 40.8489 6.52671 40.8489 7.23837V9.03226C40.1873 9.39941 39.7333 10.0961 39.7333 10.9035V11.5405H22.2667V10.9035C22.2667 10.095 21.8126 9.3976 21.151 9.0308ZM44.5741 10.9035V11.5405H40.9985V10.9035C40.9985 10.4161 41.3976 10.0195 41.8868 10.0195H43.6894C44.1775 10.0195 44.5741 10.4161 44.5741 10.9035ZM18.4081 7.23837C18.4081 5.02127 20.228 3.21734 22.4656 3.21734H39.559C41.783 3.21734 43.5918 5.02115 43.5918 7.23837V8.74817H42.1141V7.23837C42.1141 5.82921 40.9676 4.68269 39.559 4.68269H22.4656C21.0434 4.68269 19.8858 5.82921 19.8858 7.23837V8.74817H18.4081V7.23837ZM17.4259 10.9035C17.4259 10.4161 17.825 10.0195 18.3142 10.0195H20.118C20.6048 10.0195 21.0014 10.4161 21.0014 10.9035V11.5405H17.4258V10.9035H17.4259ZM57.4539 56.5989C57.4539 57.8029 56.4741 58.7827 55.2695 58.7827H6.7293C5.52466 58.7827 4.54489 57.8029 4.54489 56.5989V34.0023H26.8178L27.5418 37.6606C27.732 38.4984 28.4536 39.084 29.2975 39.084H32.7014C33.5453 39.084 34.2667 38.4984 34.4607 37.6445L35.1909 34.0022H57.4539V56.5989ZM27.4936 30.8925C27.4256 30.5562 27.683 30.2549 28.0001 30.2549H33.9999C34.3353 30.2549 34.5764 30.5798 34.5187 30.8955C34.4933 31.0229 33.1378 37.8114 33.2239 37.3802C33.1646 37.6384 32.9496 37.8188 32.7012 37.8188H29.2974C29.0491 37.8188 28.8341 37.6384 28.7785 37.3975C28.7533 37.2701 27.4084 30.4611 27.4936 30.8925ZM60.0992 30.9574C60.0992 31.939 59.2949 32.7372 58.3064 32.7372C50.0787 32.7372 44.3213 32.7372 35.4429 32.7372L35.7604 31.1348C35.9694 30.0201 35.1156 28.9898 33.9999 28.9898H28.0001C26.8728 28.9898 26.0284 30.0362 26.2531 31.1409L26.5682 32.7372C17.6885 32.7372 11.9084 32.7372 3.69239 32.7372C2.70402 32.7372 1.90093 31.9391 1.90093 30.9574V14.5854C1.90093 13.6038 2.70402 12.8055 3.69239 12.8055H58.3064C59.2948 12.8055 60.0992 13.6037 60.0992 14.5854V30.9574Z" fill="#0D76C4" stroke="#0D76C4" stroke-width="0.3"></path></g></svg> 