<?xml version="1.0" encoding="UTF-8"?> <svg xmlns="http://www.w3.org/2000/svg" width="72" height="72" viewBox="0 0 72 72" fill="none"><g id="SVG"><path id="Vector" d="M55.3846 10.3846H16.6154C16.2331 10.3846 15.9231 10.0746 15.9231 9.69231C15.9231 9.31002 16.2331 9 16.6154 9H55.3846C55.7671 9 56.0769 9.31002 56.0769 9.69231C56.0769 10.0746 55.7671 10.3846 55.3846 10.3846Z" fill="white" stroke="white" stroke-width="0.5"></path><path id="Vector_2" d="M55.754 34.3845H55.3847C55.0023 34.3845 54.6924 34.0744 54.6924 33.6922V18.923C54.6924 18.5407 55.0023 18.2307 55.3847 18.2307H63.6924C64.0748 18.2307 64.3847 18.5407 64.3847 18.923V25.7537C64.3847 30.5128 60.5129 34.3845 55.754 34.3845ZM56.077 19.6153V32.9929C59.9232 32.8233 63.0001 29.6411 63.0001 25.7539V19.6155L56.077 19.6153Z" fill="white" stroke="white" stroke-width="0.5"></path><path id="Vector_3" d="M16.6155 34.3845H14.8616C10.4598 34.3845 7.61548 30.9967 7.61548 25.7537V18.923C7.61548 18.5407 7.92549 18.2307 8.30779 18.2307H16.6155C16.9978 18.2307 17.3078 18.5407 17.3078 18.923V33.6923C17.3078 34.0746 16.9978 34.3845 16.6155 34.3845ZM9.00009 19.6153V25.7537C9.00009 29.2568 10.5399 32.9998 14.8616 32.9998H15.9232V19.6152H9.00009V19.6153Z" fill="white" stroke="white" stroke-width="0.5"></path><path id="Vector_4" d="M44.3077 68.5383H27.6923C27.31 68.5383 27 68.2285 27 67.846V62.3076C27 61.9251 27.31 61.6153 27.6923 61.6153H32.5385V54.3933C28.0331 53.6089 23.9115 51.2909 20.8792 47.8226C17.6832 44.1669 15.9231 39.4765 15.9231 34.6153V4.15373C15.9231 3.77144 16.2331 3.46143 16.6154 3.46143H55.3846C55.7671 3.46143 56.0769 3.77144 56.0769 4.15373V34.6153C56.0769 39.4765 54.3168 44.1669 51.1208 47.8226C48.0885 51.2909 43.967 53.6089 39.4616 54.3933V61.6153H44.3077C44.6901 61.6153 45 61.9251 45 62.3076V67.846C45 68.2285 44.6901 68.5383 44.3077 68.5383ZM28.3846 67.1537H43.6154V62.9999H38.7693C38.3868 62.9999 38.0769 62.69 38.0769 62.3076V53.802C38.0769 53.4575 38.3302 53.1654 38.6712 53.1168C47.8048 51.8103 54.6923 43.8562 54.6923 34.6153V4.84604H17.3077V34.6153C17.3077 43.8562 24.1953 51.8103 33.3288 53.1168C33.6698 53.1655 33.9231 53.4575 33.9231 53.802V62.3076C33.9231 62.69 33.6131 62.9999 33.2308 62.9999H28.3846V67.1537Z" fill="white" stroke="white" stroke-width="0.5"></path><path id="Vector_5" d="M29.8199 47.7695C29.7873 47.7695 29.7543 47.7671 29.7211 47.7623C28.3293 47.5632 26.4398 46.4159 24.9075 44.8395C23.8604 43.7624 22.1038 41.5671 22.1038 38.9672C22.1038 38.5848 22.4138 38.2749 22.7961 38.2749C23.1784 38.2749 23.4884 38.5848 23.4884 38.9672C23.4884 42.461 27.8003 46.089 29.9171 46.3918C30.2957 46.4459 30.5586 46.7967 30.5045 47.1751C30.4551 47.5203 30.1588 47.7695 29.8199 47.7695Z" fill="white" stroke="white" stroke-width="0.5"></path><path id="Vector_6" d="M52.6155 68.5384H19.3847C19.0024 68.5384 18.6924 68.2285 18.6924 67.8461C18.6924 67.4637 19.0024 67.1538 19.3847 67.1538H52.6155C52.9979 67.1538 53.3078 67.4637 53.3078 67.8461C53.3078 68.2285 52.9979 68.5384 52.6155 68.5384Z" fill="white" stroke="white" stroke-width="0.5"></path><path id="Vector_7" d="M42.9536 37.3241C42.8109 37.3241 42.668 37.2801 42.5468 37.1919L36 32.4353L29.4534 37.1917C29.2106 37.368 28.8822 37.368 28.6395 37.1917C28.3969 37.0155 28.2953 36.703 28.388 36.4177L30.8887 28.7216L24.3421 23.9652C24.0995 23.7889 23.9978 23.4764 24.0906 23.1912C24.1834 22.906 24.4491 22.7128 24.749 22.7128H32.8411L35.3417 15.0167C35.4343 14.7315 35.7002 14.5383 36.0001 14.5383C36.3 14.5383 36.5659 14.7315 36.6585 15.0167L39.1592 22.7128H47.2512C47.5511 22.7128 47.817 22.906 47.9096 23.1912C48.0024 23.4764 47.9009 23.7889 47.6581 23.9652L41.1117 28.7216L43.6123 36.4177C43.7051 36.703 43.6036 37.0153 43.3609 37.1917C43.2391 37.2799 43.0964 37.3241 42.9536 37.3241ZM26.8795 24.0976L32.1093 27.8972C32.3519 28.0735 32.4535 28.386 32.3608 28.6712L30.3632 34.8192L35.593 31.0195C35.8356 30.8433 36.1642 30.8433 36.4068 31.0195L41.6366 34.8192L39.639 28.6712C39.5462 28.386 39.6477 28.0735 39.8905 27.8972L45.1201 24.0976H38.6558C38.3559 24.0976 38.09 23.9044 37.9974 23.6192L36 17.4711L34.0024 23.6191C33.9097 23.9043 33.6439 24.0974 33.344 24.0974L26.8795 24.0976Z" fill="white" stroke="white" stroke-width="0.5"></path><path id="Vector_8" d="M65.077 13.1538C63.1683 13.1538 61.6155 11.6009 61.6155 9.69225C61.6155 7.78356 63.1683 6.23071 65.077 6.23071C66.9857 6.23071 68.5386 7.78356 68.5386 9.69225C68.5386 11.6009 66.9857 13.1538 65.077 13.1538ZM65.077 7.61533C63.9318 7.61533 63.0001 8.54704 63.0001 9.69225C63.0001 10.8375 63.9318 11.7692 65.077 11.7692C66.2222 11.7692 67.1539 10.8375 67.1539 9.69225C67.1539 8.54704 66.2222 7.61533 65.077 7.61533Z" fill="white" stroke="white" stroke-width="0.5"></path><path id="Vector_9" d="M6.92296 53.3076C5.01427 53.3076 3.46143 51.7548 3.46143 49.8461C3.46143 47.9374 5.01427 46.3845 6.92296 46.3845C8.83166 46.3845 10.3845 47.9374 10.3845 49.8461C10.3845 51.7548 8.83166 53.3076 6.92296 53.3076ZM6.92296 47.7691C5.77775 47.7691 4.84604 48.7008 4.84604 49.8461C4.84604 50.9913 5.77775 51.923 6.92296 51.923C8.06818 51.923 8.99989 50.9913 8.99989 49.8461C8.99989 48.7008 8.06818 47.7691 6.92296 47.7691Z" fill="white" stroke="white" stroke-width="0.5"></path><path id="Vector_10" d="M65.077 58.8462C63.1683 58.8462 61.6155 57.2933 61.6155 55.3846C61.6155 53.4759 63.1683 51.9231 65.077 51.9231C66.9857 51.9231 68.5386 53.4759 68.5386 55.3846C68.5386 57.2933 66.9857 58.8462 65.077 58.8462ZM65.077 53.3077C63.9318 53.3077 63.0001 54.2394 63.0001 55.3846C63.0001 56.5298 63.9318 57.4616 65.077 57.4616C66.2222 57.4616 67.1539 56.5298 67.1539 55.3846C67.1539 54.2394 66.2222 53.3077 65.077 53.3077Z" fill="white" stroke="white" stroke-width="0.5"></path><path id="Vector_11" d="M8.30773 13.1538C6.39904 13.1538 4.84619 11.6009 4.84619 9.69225C4.84619 7.78356 6.39904 6.23071 8.30773 6.23071C10.2164 6.23071 11.7693 7.78356 11.7693 9.69225C11.7693 11.6009 10.2164 13.1538 8.30773 13.1538ZM8.30773 7.61533C7.16251 7.61533 6.23081 8.54704 6.23081 9.69225C6.23081 10.8375 7.16251 11.7692 8.30773 11.7692C9.45295 11.7692 10.3847 10.8375 10.3847 9.69225C10.3847 8.54704 9.45295 7.61533 8.30773 7.61533Z" fill="white" stroke="white" stroke-width="0.5"></path></g></svg> 