<?xml version="1.0" encoding="UTF-8"?> <svg xmlns="http://www.w3.org/2000/svg" width="72" height="72" viewBox="0 0 72 72" fill="none"><g id="SVG"><path id="Vector" d="M62.3076 69.9231H56.7692C54.8605 69.9231 53.3076 68.3702 53.3076 66.4615V63.6923C53.3076 63.3099 53.6175 63 53.9999 63H65.0768C65.4593 63 65.7692 63.3099 65.7692 63.6923V66.4615C65.7692 68.3702 64.2163 69.9231 62.3076 69.9231ZM54.6922 64.3846V66.4615C54.6922 67.6068 55.6239 68.5385 56.7692 68.5385H62.3076C63.4528 68.5385 64.3845 67.6068 64.3845 66.4615V64.3846H54.6922Z" fill="white" stroke="white" stroke-width="0.5"></path><path id="Vector_2" d="M15.2307 69.9231H9.69225C7.78356 69.9231 6.23071 68.3702 6.23071 66.4615V63.6923C6.23071 63.3099 6.54073 63 6.92302 63H17.9999C18.3822 63 18.6923 63.3099 18.6923 63.6923V66.4615C18.6923 68.3702 17.1394 69.9231 15.2307 69.9231ZM7.61533 64.3846V66.4615C7.61533 67.6068 8.54704 68.5385 9.69225 68.5385H15.2307C16.3759 68.5385 17.3076 67.6068 17.3076 66.4615V64.3846H7.61533Z" fill="white" stroke="white" stroke-width="0.5"></path><path id="Vector_3" d="M52.6155 20.0769H19.3847C19.0024 20.0769 18.6924 19.7669 18.6924 19.3846V11.0769C18.6924 6.1143 22.7298 2.0769 27.6924 2.0769H44.3078C49.2704 2.0769 53.3078 6.1143 53.3078 11.0769V19.3846C53.3078 19.7669 52.9979 20.0769 52.6155 20.0769ZM20.077 18.6923H51.9231V11.0769C51.9231 6.87778 48.5069 3.46152 44.3078 3.46152H27.6924C23.4933 3.46152 20.077 6.87778 20.077 11.0769V18.6923Z" fill="white" stroke="white" stroke-width="0.5"></path><path id="Vector_4" d="M47.0769 20.077H24.923C24.5407 20.077 24.2307 19.767 24.2307 19.3847V11.077C24.2307 9.16832 25.7836 7.61548 27.6923 7.61548H44.3076C46.2163 7.61548 47.7692 9.16832 47.7692 11.077V19.3847C47.7692 19.767 47.4593 20.077 47.0769 20.077ZM25.6153 18.6924H46.3846V11.077C46.3846 9.9318 45.4529 9.00009 44.3076 9.00009H27.6923C26.547 9.00009 25.6153 9.9318 25.6153 11.077V18.6924Z" fill="white" stroke="white" stroke-width="0.5"></path><path id="Vector_5" d="M65.7692 64.3846H6.23075C3.94032 64.3846 2.0769 62.5212 2.0769 60.2308V29.7692C2.0769 29.3869 2.38692 29.0769 2.76921 29.0769C3.1515 29.0769 3.46152 29.3869 3.46152 29.7692C3.46152 31.2962 4.7038 32.5384 6.23075 32.5384H12.4615C12.8438 32.5384 13.1538 32.8485 13.1538 33.2308V36C13.1538 36.5548 13.3698 37.0762 13.7622 37.4686L16.5315 40.2379C16.9237 40.63 17.4453 40.8461 18 40.8461C18.5547 40.8461 19.0762 40.63 19.4686 40.2377L22.2379 37.4686C22.6301 37.0762 22.8461 36.5548 22.8461 36V33.2308C22.8461 32.8485 23.1561 32.5384 23.5384 32.5384H48.4615C48.8439 32.5384 49.1538 32.8485 49.1538 33.2308V36C49.1538 36.5548 49.37 37.0762 49.7622 37.4686L52.5313 40.2379C52.9236 40.63 53.4452 40.8461 54 40.8461C54.5548 40.8461 55.0764 40.63 55.4686 40.2377L58.2379 37.4686C58.63 37.0762 58.8461 36.5548 58.8461 36V33.2308C58.8461 32.8485 59.156 32.5384 59.5384 32.5384H65.7692C67.2962 32.5384 68.5384 31.2962 68.5384 29.7692C68.5384 29.3869 68.8483 29.0769 69.2307 29.0769C69.6132 29.0769 69.9231 29.3869 69.9231 29.7692V60.2308C69.9231 62.5212 68.0596 64.3846 65.7692 64.3846ZM3.46152 32.8627V60.2308C3.46152 61.7577 4.7038 63 6.23075 63H65.7692C67.2962 63 68.5384 61.7577 68.5384 60.2308V32.8627C67.8029 33.5218 66.8322 33.9231 65.7692 33.9231H60.2307V36C60.2307 36.9245 59.8706 37.7938 59.2171 38.4477L56.4477 41.2169C55.7939 41.8708 54.9246 42.2308 54 42.2308C53.0753 42.2308 52.2061 41.8706 51.5523 41.2171L48.783 38.4477C48.1293 37.7938 47.7692 36.9245 47.7692 36V33.9231H24.2307V36C24.2307 36.9246 23.8706 37.7939 23.2169 38.4477L20.4477 41.2169C19.7939 41.8708 18.9246 42.2308 18 42.2308C17.0753 42.2308 16.2061 41.8706 15.5524 41.2171L12.7832 38.4477C12.1293 37.7939 11.7692 36.9246 11.7692 36V33.9231H6.23075C5.16792 33.9231 4.19703 33.5218 3.46152 32.8627Z" fill="white" stroke="white" stroke-width="0.5"></path><path id="Vector_6" d="M65.7692 33.9232H59.5384C59.156 33.9232 58.8461 33.6131 58.8461 33.2308V30.4616C58.8461 29.3164 57.9144 28.3847 56.7692 28.3847H51.2307C50.0855 28.3847 49.1538 29.3164 49.1538 30.4616V33.2308C49.1538 33.6131 48.8439 33.9232 48.4615 33.9232H23.5384C23.1561 33.9232 22.8461 33.6131 22.8461 33.2308V30.4616C22.8461 29.3164 21.9144 28.3847 20.7692 28.3847H15.2308C14.0855 28.3847 13.1538 29.3164 13.1538 30.4616V33.2308C13.1538 33.6131 12.8438 33.9232 12.4615 33.9232H6.23075C3.94032 33.9232 2.0769 32.0597 2.0769 29.7693V22.8462C2.0769 20.5558 3.94032 18.6924 6.23075 18.6924H65.7692C68.0596 18.6924 69.9231 20.5558 69.9231 22.8462V29.7693C69.9231 32.0597 68.0596 33.9232 65.7692 33.9232ZM60.2307 32.5385H65.7692C67.2962 32.5385 68.5384 31.2963 68.5384 29.7693V22.8462C68.5384 21.3193 67.2962 20.077 65.7692 20.077H6.23075C4.7038 20.077 3.46152 21.3193 3.46152 22.8462V29.7693C3.46152 31.2963 4.7038 32.5385 6.23075 32.5385H11.7692V30.4616C11.7692 28.5529 13.3221 27.0001 15.2308 27.0001H20.7692C22.6779 27.0001 24.2307 28.5529 24.2307 30.4616V32.5385H47.7692V30.4616C47.7692 28.5529 49.3221 27.0001 51.2307 27.0001H56.7692C58.6779 27.0001 60.2307 28.5529 60.2307 30.4616V32.5385Z" fill="white" stroke="white" stroke-width="0.5"></path><path id="Vector_7" d="M54.0001 42.2308C53.0754 42.2308 52.2061 41.8706 51.5523 41.2171L48.7831 38.4477C48.1294 37.7938 47.7693 36.9245 47.7693 36V30.4615C47.7693 28.5528 49.3221 27 51.2308 27H56.7693C58.678 27 60.2308 28.5528 60.2308 30.4615V36C60.2308 36.9245 59.8707 37.7938 59.2171 38.4477L56.4478 41.217C55.794 41.8706 54.9247 42.2308 54.0001 42.2308ZM51.2308 28.3846C50.0856 28.3846 49.1539 29.3163 49.1539 30.4615V36C49.1539 36.5548 49.37 37.0763 49.7623 37.4687L52.5314 40.2379C52.9237 40.63 53.4452 40.8462 54.0001 40.8462C54.5549 40.8462 55.0765 40.63 55.4687 40.2378L58.2379 37.4687C58.6301 37.0763 58.8462 36.5548 58.8462 36V30.4615C58.8462 29.3163 57.9145 28.3846 56.7693 28.3846H51.2308Z" fill="white" stroke="white" stroke-width="0.5"></path><path id="Vector_8" d="M18.0001 42.2308C17.0754 42.2308 16.2061 41.8706 15.5525 41.2171L12.7832 38.4477C12.1294 37.7939 11.7693 36.9246 11.7693 36V30.4615C11.7693 28.5528 13.3221 27 15.2308 27H20.7693C22.678 27 24.2308 28.5528 24.2308 30.4615V36C24.2308 36.9246 23.8707 37.7939 23.217 38.4477L20.4478 41.217C19.794 41.8706 18.9247 42.2308 18.0001 42.2308ZM15.2308 28.3846C14.0856 28.3846 13.1539 29.3163 13.1539 30.4615V36C13.1539 36.5548 13.3699 37.0763 13.7623 37.4687L16.5315 40.2379C16.9238 40.63 17.4454 40.8462 18.0001 40.8462C18.5547 40.8462 19.0763 40.63 19.4687 40.2378L22.2379 37.4687C22.6302 37.0763 22.8462 36.5548 22.8462 36V30.4615C22.8462 29.3163 21.9145 28.3846 20.7693 28.3846H15.2308Z" fill="white" stroke="white" stroke-width="0.5"></path></g></svg> 