<?xml version="1.0" encoding="UTF-8"?> <svg xmlns="http://www.w3.org/2000/svg" width="69" height="69" viewBox="0 0 69 69" fill="none"><g id="SVG" clip-path="url(#clip0_148_4812)"><path id="Vector" d="M34.5 69C53.5538 69 69 53.5538 69 34.5C69 15.4462 53.5538 0 34.5 0C15.4462 0 0 15.4462 0 34.5C0 53.5538 15.4462 69 34.5 69Z" fill="#32BA7C"></path><path id="Vector_2" d="M25.6846 50.0631L43.4243 67.8028C58.1167 63.8848 69 50.4984 69 34.5C69 34.1735 69 33.847 69 33.5205L55.0694 20.6782L25.6846 50.0631Z" fill="#0AA06E"></path><path id="Vector_3" d="M35.3705 42.2272C36.8942 43.7508 36.8942 46.3628 35.3705 47.8865L32.2144 51.0426C30.6907 52.5663 28.0787 52.5663 26.5551 51.0426L12.7333 37.112C11.2097 35.5884 11.2097 32.9764 12.7333 31.4527L15.8895 28.2966C17.4131 26.7729 20.0251 26.7729 21.5488 28.2966L35.3705 42.2272Z" fill="white"></path><path id="Vector_4" d="M47.4512 18.1751C48.9749 16.6514 51.5868 16.6514 53.1105 18.1751L56.2667 21.3312C57.7903 22.8549 57.7903 25.4669 56.2667 26.9905L32.3234 50.8249C30.7998 52.3486 28.1878 52.3486 26.6641 50.8249L23.508 47.6688C21.9843 46.1451 21.9843 43.5331 23.508 42.0095L47.4512 18.1751Z" fill="white"></path></g><defs><clipPath id="clip0_148_4812"><rect width="69" height="69" fill="white"></rect></clipPath></defs></svg> 