<?xml version="1.0" encoding="UTF-8"?> <svg xmlns="http://www.w3.org/2000/svg" width="69" height="69" viewBox="0 0 69 69" fill="none"><g id="SVG" clip-path="url(#clip0_148_4847)"><path id="Vector" d="M34.5 69C53.5538 69 69 53.5538 69 34.5C69 15.4462 53.5538 0 34.5 0C15.4462 0 0 15.4462 0 34.5C0 53.5538 15.4462 69 34.5 69Z" fill="#F15249"></path><path id="Vector_2" d="M20.0251 50.0631L38.6356 68.6735C54.3075 66.8233 66.7144 54.5252 68.6734 38.8533L49.9542 20.134L20.0251 50.0631Z" fill="#AD0E0E"></path><path id="Vector_3" d="M50.8248 42.1183C52.3485 43.6419 52.3485 46.2539 50.8248 47.7776L47.7775 50.8249C46.2538 52.3485 43.6418 52.3485 42.1182 50.8249L18.175 26.8817C16.6513 25.358 16.6513 22.746 18.175 21.2224L21.3311 18.0662C22.8548 16.5425 25.4668 16.5425 26.9904 18.0662L50.8248 42.1183Z" fill="white"></path><path id="Vector_4" d="M38.2002 29.3849L29.3848 38.2003L42.1182 50.825C43.6419 52.3486 46.2539 52.3486 47.7775 50.825L50.9337 47.6688C52.4573 46.1451 52.4573 43.5332 50.9337 42.0095L38.2002 29.3849Z" fill="#D6D6D6"></path><path id="Vector_5" d="M42.1182 18.1751C43.6418 16.6514 46.2538 16.6514 47.7775 18.1751L50.9336 21.3312C52.4573 22.8549 52.4573 25.4669 50.9336 26.9905L26.8816 50.8249C25.3579 52.3486 22.7459 52.3486 21.2223 50.8249L18.175 47.7776C16.6513 46.254 16.6513 43.642 18.175 42.1183L42.1182 18.1751Z" fill="white"></path></g><defs><clipPath id="clip0_148_4847"><rect width="69" height="69" fill="white"></rect></clipPath></defs></svg> 