<?xml version="1.0" encoding="UTF-8"?> <svg xmlns="http://www.w3.org/2000/svg" width="62" height="62" viewBox="0 0 62 62" fill="none"><g clip-path="url(#clip0_161_7602)"><path d="M1.27029 61.1898H60.3853C60.7349 61.1898 61.0179 60.9069 61.0179 60.5572C61.0179 60.2076 60.7351 59.9246 60.3853 59.9246H1.90288V1.4429C1.90288 1.0933 1.61989 0.810303 1.27029 0.810303C0.920691 0.810303 0.637695 1.0933 0.637695 1.4429V60.5574C0.637695 60.9069 0.920691 61.1898 1.27029 61.1898Z" fill="#0D76C4" stroke="#0D76C4" stroke-width="0.3"></path><path d="M7.20779 54.8034H16.1703C16.5199 54.8034 16.8029 54.5204 16.8029 54.1708V35.0515C16.8029 34.7019 16.5199 34.4189 16.1703 34.4189H7.20779C6.85819 34.4189 6.5752 34.7018 6.5752 35.0515V54.1707C6.5752 54.5204 6.85819 54.8034 7.20779 54.8034ZM7.84038 35.6841H15.5377V53.5381H7.84038V35.6841Z" fill="#0D76C4" stroke="#0D76C4" stroke-width="0.3"></path><path d="M22.0608 19.9165C21.7112 19.9165 21.4282 20.1995 21.4282 20.5491V54.1709C21.4282 54.5205 21.7112 54.8035 22.0608 54.8035H31.0239C31.3735 54.8035 31.6565 54.5205 31.6565 54.1709V20.5491C31.6565 20.1995 31.3735 19.9165 31.0239 19.9165H22.0608ZM30.3913 53.5383H22.6934V21.1817H30.3913V53.5383Z" fill="#0D76C4" stroke="#0D76C4" stroke-width="0.3"></path><path d="M36.9143 27.1677C36.5647 27.1677 36.2817 27.4507 36.2817 27.8003V54.1708C36.2817 54.5204 36.5647 54.8034 36.9143 54.8034H45.8768C46.2264 54.8034 46.5094 54.5204 46.5094 54.1708V27.8003C46.5094 27.4507 46.2264 27.1677 45.8768 27.1677H36.9143ZM45.2443 53.5382H37.5469V28.4329H45.2443V53.5382Z" fill="#0D76C4" stroke="#0D76C4" stroke-width="0.3"></path><path d="M51.1343 20.5491V54.1709C51.1343 54.5205 51.4172 54.8035 51.7669 54.8035H60.7294C61.079 54.8035 61.362 54.5205 61.362 54.1709V20.5491C61.362 20.1995 61.0791 19.9165 60.7294 19.9165H51.7669C51.4172 19.9165 51.1343 20.1994 51.1343 20.5491ZM52.3995 21.1817H60.0968V53.5383H52.3995V21.1817Z" fill="#0D76C4" stroke="#0D76C4" stroke-width="0.3"></path><path d="M12.136 20.9963L26.6232 6.50975L41.0289 20.9154C41.276 21.1626 41.6763 21.1626 41.9234 20.9154L55.6563 7.18303V11.109C55.6563 11.4586 55.9392 11.7416 56.2889 11.7416C56.6385 11.7416 56.9215 11.4586 56.9215 11.109C56.9215 11.074 56.9213 11.0514 56.9213 11.0377V11.073C56.9212 10.8822 56.9204 9.85533 56.9178 5.63787C56.9098 5.36711 56.7455 5.16016 56.529 5.07116C56.282 4.9698 55.8923 5.05432 50.8352 5.02272C50.4856 5.02272 50.2026 5.30571 50.2026 5.65531C50.2026 6.00491 50.4856 6.28791 50.8352 6.28791H54.7622L41.4761 19.5737L27.0705 5.16803C26.8234 4.92088 26.4232 4.92088 26.176 5.16803L11.2415 20.1018C10.9944 20.3489 10.9944 20.7492 11.2415 20.9963C11.4887 21.2435 11.889 21.2435 12.136 20.9963Z" fill="#0D76C4" stroke="#0D76C4" stroke-width="0.3"></path></g><defs><clipPath id="clip0_161_7602"><rect width="62" height="62" fill="white"></rect></clipPath></defs></svg> 