<?xml version="1.0" encoding="UTF-8"?> <svg xmlns="http://www.w3.org/2000/svg" width="68" height="68" viewBox="0 0 68 68" fill="none"><path d="M57.1814 45.6294L38.8565 38.0055V36.8349C42.7559 35.0782 45.535 31.2812 45.8352 26.8094C46.7583 26.8044 47.6496 26.4304 48.2676 25.7934C48.933 25.1483 49.2989 24.273 49.2989 23.3299C49.2989 22.2044 48.7531 21.2126 47.9216 20.5761C48.9308 19.8698 49.5956 18.6999 49.5956 17.3742C49.5956 16.0367 48.9275 14.8307 47.842 14.1233C48.0467 13.6639 48.1524 13.1652 48.1524 12.6503C48.1524 10.8873 46.9545 9.4333 45.3068 9.04442C45.5148 6.86112 43.736 4.90054 41.3947 5.0469C41.0545 3.24051 39.469 1.87055 37.5706 1.87055C36.8213 1.87055 36.1071 2.0792 35.4946 2.47087C34.6856 1.37184 33.3834 0.697021 31.9836 0.697021C30.684 0.697021 29.4631 1.27834 28.6392 2.25265C27.9021 1.73774 27.024 1.4599 26.0984 1.4599C24.0915 1.4599 22.3529 2.8191 21.8285 4.70809C19.7064 4.84635 18.0206 6.6174 18.0206 8.77468C18.0206 9.44405 18.1859 10.0972 18.4949 10.6772C17.3227 11.4333 16.5788 12.7519 16.5788 14.1775C16.5788 16.2793 18.1235 18.0138 20.1671 18.2984C20.4901 18.9225 20.938 19.4682 21.4627 19.9283C20.801 20.0679 20.1911 20.3934 19.7321 20.8663C19.0668 21.5141 18.7009 22.3881 18.7009 23.3299C18.7009 25.2436 20.2517 26.7985 22.163 26.809C22.4406 30.9639 24.8818 34.9281 29.1432 36.8381V38.0055L10.821 45.6294C7.03487 47.1863 4.58887 50.8492 4.58887 54.9578V66.609C4.58887 66.9924 4.89925 67.3028 5.28268 67.3028H62.717C63.1005 67.3028 63.4109 66.9925 63.4109 66.609V54.9578C63.4107 50.8492 60.9648 47.1863 57.1814 45.6294ZM47.9112 23.3299C47.9112 23.895 47.6945 24.4167 47.2865 24.8123C46.9223 25.1874 46.4105 25.4079 45.8759 25.4218V21.2624C46.8542 21.2143 47.9112 22.1076 47.9112 23.3299ZM20.6508 16.9501C19.1452 16.8931 17.9664 15.6763 17.9664 14.1776C17.9664 13.0353 18.6847 11.9946 19.7538 11.588C20.2107 11.4123 20.3404 10.8446 20.0356 10.489C19.625 10.008 19.4082 9.41576 19.4082 8.77481C19.4082 7.29369 20.6143 6.08762 22.0954 6.08762C22.6275 6.07699 23.0112 6.02705 23.0819 5.49673C23.2784 3.98719 24.5753 2.84752 26.0984 2.84752C26.929 2.84752 27.7028 3.16999 28.276 3.75676C28.5999 4.0864 29.1492 4.01707 29.3763 3.61172C29.9076 2.66995 30.9062 2.08451 31.9836 2.08451C33.1394 2.08451 34.1965 2.75801 34.6775 3.80138C34.877 4.23727 35.4589 4.35003 35.8037 3.99648C36.2698 3.51955 36.8972 3.25791 37.5707 3.25791C38.9516 3.25791 40.0749 4.38669 40.0749 5.85971C40.0749 6.33 40.532 6.65805 40.9693 6.52377C41.1834 6.45869 41.4151 6.42616 41.659 6.42616C42.9138 6.42616 43.9355 7.44788 43.9355 8.70269C43.9355 8.9399 43.8949 9.17962 43.8162 9.41683C43.6697 9.86201 43.9933 10.3215 44.4626 10.3302C45.7541 10.3518 46.7649 11.3709 46.7649 12.6501C46.7649 13.138 46.6118 13.6 46.3219 13.989C46.0513 14.3535 46.198 14.8823 46.6253 15.0487C47.5861 15.4282 48.2081 16.3402 48.2081 17.374C48.2081 18.8296 46.9717 19.8746 45.876 19.8555V17.7683C45.876 17.3406 45.4894 17.0165 45.0781 17.0861C44.9365 17.0893 42.4635 17.662 39.1651 16.5613C36.8383 15.7835 34.7578 14.2654 33.412 12.718C33.1458 12.411 32.6665 12.4269 32.4106 12.6678C29.3622 15.5165 24.807 16.5361 22.9777 16.1057C22.5322 16.0015 22.124 16.3393 22.124 16.7805V16.7873V18.6668C21.7622 18.2941 21.4695 17.8565 21.2635 17.3727C21.159 17.1249 20.9204 16.961 20.6508 16.9501ZM20.0884 23.3299C20.0884 22.7662 20.3051 22.2444 20.7131 21.8474C21.0762 21.4734 21.5871 21.2539 22.1237 21.239V25.4222C20.9963 25.3923 20.0884 24.4654 20.0884 23.3299ZM23.5113 26.009C23.5113 25.686 23.5113 17.2787 23.5113 17.5342H23.5358C26.7606 17.5342 30.1599 16.4178 32.8362 14.1495C35.988 17.4295 40.4288 18.9558 44.4868 18.564C44.4889 21.6332 44.4868 26.1419 44.4868 26.0357C44.4721 31.8319 39.6892 36.6961 33.5441 36.475C27.8531 36.2305 23.5113 31.5741 23.5113 26.009ZM37.4689 37.4405C37.4689 37.603 37.4689 42.9135 37.4689 42.6522C37.4689 44.4856 35.8002 45.4871 33.9998 45.4871C32.1983 45.4871 30.5307 44.4862 30.5307 42.6522C30.5307 42.4774 30.5307 37.2437 30.5307 37.4405C32.8511 38.0568 35.4445 37.9783 37.4689 37.4405ZM62.0231 65.9151H5.97649V54.9578C5.97649 51.4129 8.08502 48.2556 11.3522 46.9113L29.1432 39.5098V42.6522V42.6658C29.1432 45.1681 31.2856 46.8802 33.9999 46.8802C36.5256 46.8802 38.8566 45.265 38.8566 42.6658V42.6522V39.5098L56.6503 46.9113C59.9147 48.2555 62.0232 51.4129 62.0232 54.9578V65.9151H62.0231Z" fill="#0D76C4" stroke="#0D76C4" stroke-width="0.2"></path><path d="M34.1477 49.3111C33.8341 49.7088 33.8904 50.1989 34.3834 50.4495C34.7313 50.5617 35.084 50.4727 35.2859 50.0755C35.3899 49.8675 35.3593 49.5622 35.1328 49.3111C34.8456 49.024 34.391 49.0697 34.1477 49.3111Z" fill="#0D76C4" stroke="#0D76C4" stroke-width="0.2"></path><path d="M34.1477 55.3888C33.9576 55.581 33.9074 55.8811 33.9959 56.1381C34.1405 56.4371 34.3978 56.5691 34.6477 56.5691C34.9373 56.5691 35.1539 56.4024 35.286 56.1381C35.3688 55.8977 35.3798 55.6357 35.1329 55.3888C34.8699 55.1259 34.412 55.1259 34.1477 55.3888Z" fill="#0D76C4" stroke="#0D76C4" stroke-width="0.2"></path><path d="M34.1477 61.4677C33.9462 61.6691 33.9032 62.0045 34.0094 62.217C34.0804 62.4332 34.325 62.6465 34.6477 62.6465C34.9402 62.6465 35.1506 62.4835 35.286 62.217C35.3676 61.9763 35.3822 61.7143 35.1329 61.4677C34.8699 61.2035 34.412 61.2035 34.1477 61.4677Z" fill="#0D76C4" stroke="#0D76C4" stroke-width="0.2"></path><path d="M31.7045 21.9926C31.7045 21.6092 31.3941 21.2988 31.0107 21.2988H29.31C28.9266 21.2988 28.6162 21.6092 28.6162 21.9926C28.6162 22.3761 28.9266 22.6865 29.31 22.6865H31.0107C31.3943 22.6865 31.7045 22.3761 31.7045 21.9926Z" fill="#0D76C4" stroke="#0D76C4" stroke-width="0.2"></path><path d="M36.9892 22.6865H38.6899C39.0733 22.6865 39.3837 22.3761 39.3837 21.9926C39.3837 21.6092 39.0734 21.2988 38.6899 21.2988H36.9892C36.6058 21.2988 36.2954 21.6092 36.2954 21.9926C36.2954 22.3761 36.6057 22.6865 36.9892 22.6865Z" fill="#0D76C4" stroke="#0D76C4" stroke-width="0.2"></path><path d="M37.5556 31.9633C37.847 31.714 37.8808 31.2749 37.6314 30.9848C37.3807 30.6949 36.9417 30.6624 36.653 30.909C34.8426 32.462 33.1568 32.462 31.3465 30.909C31.0579 30.6624 30.6201 30.6949 30.368 30.9848C30.1188 31.2748 30.1526 31.7138 30.4439 31.9633C32.7653 33.9544 35.2302 33.958 37.5556 31.9633Z" fill="#0D76C4" stroke="#0D76C4" stroke-width="0.2"></path><path d="M53.5419 51.8452H45.914C45.5306 51.8452 45.2202 52.1555 45.2202 52.539C45.2202 52.9225 45.5305 53.2328 45.914 53.2328H53.5419C53.9253 53.2328 54.2357 52.9225 54.2357 52.539C54.2357 52.1556 53.9254 51.8452 53.5419 51.8452Z" fill="#0D76C4" stroke="#0D76C4" stroke-width="0.2"></path></svg> 