<?xml version="1.0" encoding="UTF-8"?> <svg xmlns="http://www.w3.org/2000/svg" width="62" height="62" viewBox="0 0 62 62" fill="none"><g clip-path="url(#clip0_161_7617)"><path d="M32.3069 9.38517C25.986 3.06541 15.7076 3.06178 9.39164 9.37779C6.33003 12.4394 4.64355 16.5098 4.64355 20.8392C4.64355 25.1672 6.33003 29.2383 9.39164 32.3C12.4533 35.3616 16.5243 37.0481 20.8537 37.0481C25.1817 37.0481 29.2527 35.3616 32.3144 32.3C38.6291 25.9851 38.6267 15.7054 32.3069 9.38517ZM20.8537 35.7828C16.8617 35.7828 13.1093 34.2285 10.2862 31.4053C7.46298 28.5822 5.90874 24.8298 5.90874 20.8391C5.90874 16.8471 7.46298 13.0948 10.2862 10.2722C16.105 4.45339 25.5831 4.45145 31.4124 10.2796C37.2379 16.1058 37.2416 25.5834 31.4198 31.4052C28.5966 34.2285 24.8444 35.7828 20.8537 35.7828Z" fill="#0D76C4" stroke="#0D76C4" stroke-width="0.3"></path><path d="M17.0766 8.34982C15.0343 8.96329 13.1502 10.0925 11.6279 11.6148C10.3751 12.8664 9.40643 14.3317 8.74914 15.97C8.61945 16.2949 8.77626 16.6632 9.10007 16.7928C9.17793 16.8237 9.257 16.8386 9.33608 16.8386C9.58686 16.8386 9.82409 16.6891 9.9229 16.442C10.5172 14.9631 11.3919 13.6398 12.5224 12.5094C13.8976 11.1343 15.5976 10.1149 17.4398 9.56209C17.7746 9.46134 17.9649 9.1086 17.8636 8.77377C17.7636 8.43943 17.409 8.25283 17.0766 8.34982Z" fill="#0D76C4" stroke="#0D76C4" stroke-width="0.3"></path><path d="M60.1989 53.4077C59.2548 52.4623 46.8977 41.13 37.2236 33.0622C39.855 29.5511 41.2989 25.3143 41.2979 20.8454C41.2967 15.3844 39.1678 10.2489 35.3056 6.38673C27.3327 -1.58669 14.3609 -1.59165 6.39297 6.3768C2.52947 10.2397 0.401855 15.3758 0.401855 20.8381C0.401855 26.3004 2.52947 31.4364 6.39297 35.2987C10.38 39.2857 15.6174 41.2787 20.8548 41.2787C25.1602 41.2787 29.4548 39.9085 33.066 37.2131C41.0855 46.8311 52.457 59.2358 53.4134 60.1934C55.2845 62.0644 58.32 62.0649 60.1915 60.1934C62.0646 58.3201 62.0672 55.277 60.1989 53.4077ZM7.28749 34.4039C3.66364 30.7801 1.66704 25.9629 1.66704 20.8378C1.66704 15.7128 3.66376 10.8951 7.28749 7.2712C10.9064 3.65231 15.7188 1.66008 20.8399 1.66008H20.8449C25.9698 1.66129 30.7872 3.65728 34.411 7.28113C38.0349 10.905 40.0315 15.7216 40.0327 20.8467C40.0368 37.8465 19.3542 46.4707 7.28749 34.4039ZM59.297 59.2986C57.9676 60.628 55.6374 60.628 54.3079 59.2986C53.3591 58.3485 42.0663 46.0303 34.0725 36.4475C34.9047 35.7464 35.7272 34.9288 36.4546 34.0654C46.0942 42.1075 58.3666 53.3631 59.3044 54.3021C60.6795 55.6773 60.6771 57.9185 59.297 59.2986Z" fill="#0D76C4" stroke="#0D76C4" stroke-width="0.3"></path></g><defs><clipPath id="clip0_161_7617"><rect width="62" height="62" fill="white"></rect></clipPath></defs></svg> 