<?xml version="1.0" encoding="UTF-8"?> <svg xmlns="http://www.w3.org/2000/svg" width="62" height="62" viewBox="0 0 62 62" fill="none"><g clip-path="url(#clip0_163_7662)"><path d="M29.4408 61.3575C45.3161 61.3575 58.2311 48.4357 58.2311 32.5524C58.2311 24.8422 55.1785 17.8357 50.2258 12.6624L50.7918 12.0964H55.6377C55.8058 12.0964 55.9664 12.0297 56.0849 11.9112L61.179 6.81712C61.5758 6.41884 61.2946 5.73733 60.7317 5.73733H57.1512L58.0457 4.84281C58.2928 4.59565 58.2928 4.19544 58.0457 3.94829C57.7985 3.70113 57.3983 3.70113 57.1512 3.94829L56.2566 4.84281V1.27635C56.2566 0.713993 55.5731 0.430149 55.1769 0.829032L50.084 5.92248C49.9655 6.04103 49.8987 6.20172 49.8987 6.3698V11.2006L49.3313 11.768C44.1579 6.81542 37.1514 3.76289 29.4408 3.76289C13.5581 3.76289 0.635742 16.6779 0.635742 32.5526C0.635742 48.4357 13.5581 61.3575 29.4408 61.3575ZM55.886 7.00239H59.2047L55.3758 10.8313H52.057L55.886 7.00239ZM51.1639 6.63172L54.9916 2.80347V6.10775L51.1639 9.93528V6.63172ZM29.4408 5.02796C36.8023 5.02796 43.4929 7.93857 48.437 12.6622L43.4438 17.6551C39.7778 14.2072 34.8588 12.0772 29.4408 12.0772C18.1419 12.0772 8.94955 21.2621 8.94955 32.5523C8.94955 43.8506 18.1419 53.043 29.4408 53.043C40.7311 53.043 49.9159 43.8506 49.9159 32.5523C49.9159 27.1346 47.786 22.2155 44.3384 18.5497L49.3315 13.5567C54.0553 18.5006 56.9659 25.1909 56.9659 32.5524C56.9659 47.7377 44.6181 60.0923 29.4408 60.0923C14.2549 60.0923 1.90093 47.7376 1.90093 32.5524C1.90093 17.3752 14.2549 5.02796 29.4408 5.02796ZM28.9862 33.0072C29.2334 33.2543 29.6336 33.2543 29.8807 33.0072L31.6499 31.2381C31.8807 31.6245 32.0219 32.0706 32.0219 32.5526C32.0219 33.9845 30.8643 35.1491 29.4409 35.1491C28.0102 35.1491 26.845 33.9846 26.845 32.5526C26.845 31.1292 28.0101 29.9716 29.4409 29.9716C29.9229 29.9716 30.369 30.1128 30.7554 30.3436L28.9862 32.1128C28.7391 32.3597 28.7391 32.76 28.9862 33.0072ZM31.6693 29.4294C31.0392 28.9785 30.2732 28.7061 29.4408 28.7061C27.312 28.7061 25.5797 30.4316 25.5797 32.5523C25.5797 34.6818 27.312 36.414 29.4408 36.414C31.5622 36.414 33.287 34.6818 33.287 32.5523C33.287 31.72 33.0148 30.954 32.5638 30.3238L37.5678 25.32C39.284 27.2462 40.3369 29.7756 40.3369 32.5523C40.3369 38.5687 35.4492 43.4632 29.4408 43.4632C23.425 43.4632 18.5299 38.5687 18.5299 32.5523C18.5299 26.5446 23.4251 21.6568 29.4408 21.6568C32.2176 21.6568 34.7469 22.7096 36.6732 24.4255L31.6693 29.4294ZM37.5673 23.5317C35.4107 21.5872 32.5662 20.3917 29.4408 20.3917C22.727 20.3917 17.2647 25.8472 17.2647 32.5524C17.2647 39.2663 22.727 44.7285 29.4408 44.7285C36.146 44.7285 41.6021 39.2663 41.6021 32.5524C41.6021 29.4271 40.4066 26.5826 38.4618 24.4262L43.444 19.4442C46.6629 22.8807 48.6507 27.4837 48.6507 32.5524C48.6507 43.1532 40.033 51.7779 29.4408 51.7779C18.84 51.7779 10.2147 43.1532 10.2147 32.5524C10.2147 21.9603 18.84 13.3425 29.4408 13.3425C34.5097 13.3425 39.1129 15.3305 42.5494 18.5497L37.5673 23.5317Z" fill="#0D76C4" stroke="#0D76C4" stroke-width="0.3"></path></g><defs><clipPath id="clip0_163_7662"><rect width="62" height="62" fill="white"></rect></clipPath></defs></svg> 