<?xml version="1.0" encoding="UTF-8"?> <svg xmlns="http://www.w3.org/2000/svg" width="62" height="62" viewBox="0 0 62 62" fill="none"><g clip-path="url(#clip0_163_7650)"><path d="M47.2789 24.1871C49.8959 21.5701 49.8977 17.3367 47.2789 14.7193C44.6612 12.1016 40.4291 12.1012 37.8111 14.7193C35.2016 17.3293 35.2004 21.5764 37.8111 24.1871C40.4289 26.8049 44.6608 26.8051 47.2789 24.1871ZM38.7056 15.6138C40.8259 13.4948 44.2555 13.4862 46.3844 15.6138C48.5067 17.7347 48.509 21.168 46.3844 23.2926C44.2555 25.4201 40.8259 25.4117 38.7056 23.2926C36.5891 21.1755 36.5891 17.7309 38.7056 15.6138Z" fill="#0D76C4" stroke="#0D76C4" stroke-width="0.4"></path><path d="M61.3041 3.89235C61.2156 2.18432 59.8113 0.779994 58.1032 0.691353C53.8634 0.483798 49.0723 0.855193 44.5332 2.01902C38.4343 3.58501 32.6532 6.5311 27.8401 10.9773C25.0187 13.5709 22.6528 16.582 20.755 19.8968C12.8097 20.4029 5.42104 24.2363 0.942387 30.2208C0.0441132 31.4226 1.29659 33.0547 2.67572 32.4981C7.20511 30.6889 11.9875 30.6635 16.2132 32.3715C15.7703 34.6741 15.5046 37.0401 15.4287 39.4566C15.4287 39.5072 15.4413 39.5451 15.454 39.5832C13.9738 39.7097 12.5822 40.3549 11.5066 41.4177C10.3427 42.5817 8.15388 45.694 6.49659 48.8697C4.37104 52.9816 3.90289 55.6764 5.11746 56.891C7.81228 59.5985 18.2121 52.8677 20.578 50.5018C21.6534 49.4265 22.286 48.0347 22.4126 46.5544C22.4506 46.5544 22.4885 46.5671 22.5265 46.5671H22.5392C24.9556 46.5039 27.3216 46.2255 29.6242 45.7827C31.3448 50.0084 31.3069 54.8034 29.5103 59.3327C29.2573 59.9527 29.447 60.6485 29.9785 61.0534C30.5226 61.4708 31.2563 61.4583 31.775 61.0662C37.7594 56.6 41.5928 49.2113 42.0862 41.2407C44.9835 39.596 47.653 37.5844 49.9936 35.2438C58.2545 26.9825 61.8651 15.4235 61.3041 3.89235ZM58.6777 17.457L44.5395 3.31763C48.8269 2.18214 53.3686 1.72561 58.0364 1.96417C59.1026 2.01794 59.9812 2.89635 60.0342 3.96391C60.2666 8.64588 59.8107 13.1796 58.6777 17.457ZM2.20661 31.3178C1.98803 31.4004 1.82879 31.1463 1.95824 30.9744C6.06514 25.4892 12.7592 21.8957 20.0328 21.2199C18.4573 24.2265 17.1461 27.9634 16.4609 31.0918C11.9907 29.3477 6.96099 29.4231 2.20661 31.3178ZM19.6882 49.6023C17.2443 52.0462 7.71092 57.7056 6.00592 55.998C5.43884 55.4309 5.5649 53.4121 7.62325 49.4485C9.19359 46.4234 11.3262 43.3907 12.401 42.3159C13.3672 41.3503 14.6546 40.827 16.0149 40.827C16.1892 40.827 16.3659 40.8356 16.5425 40.8529C16.6697 40.9801 21.4547 45.7643 21.151 45.4608C21.3041 47.0131 20.7777 48.5121 19.6882 49.6023ZM31.0228 60.0487C30.8433 60.1829 30.5984 60.0078 30.6794 59.8016C30.6806 59.8016 30.6806 59.801 30.6806 59.801C32.576 55.0417 32.6513 50.0082 30.9079 45.5375C34.4454 44.7574 38.2069 43.3168 40.7723 41.9755C40.0954 49.2619 36.5048 55.9542 31.0228 60.0487ZM49.0952 34.3578C46.6786 36.7617 43.9206 38.8113 40.8969 40.456C37.6074 42.2779 33.7233 43.657 30.1175 44.4034C27.739 44.9095 25.2845 45.2005 22.7795 45.3017L16.7065 39.2288C16.795 36.7112 17.0987 34.2693 17.5922 31.9034C18.4145 27.8675 19.9454 23.9202 21.6913 20.8205C23.5512 17.4931 25.8917 14.482 28.6878 11.901C32.7715 8.13329 37.7021 5.37659 43.1508 3.71882L58.2924 18.8611C56.4958 24.7813 53.3964 30.0566 49.0952 34.3578Z" fill="#0D76C4" stroke="#0D76C4" stroke-width="0.4"></path></g><defs><clipPath id="clip0_163_7650"><rect width="62" height="62" fill="white"></rect></clipPath></defs></svg> 