<?xml version="1.0" encoding="UTF-8"?> <svg xmlns="http://www.w3.org/2000/svg" width="146" height="32" viewBox="0 0 146 32" fill="none"><g clip-path="url(#clip0_461_1757)"><path fill-rule="evenodd" clip-rule="evenodd" d="M104.67 31.9997V6.41574H95.1721C91.7821 6.38732 88.6375 8.20787 86.9344 11.185C85.2312 14.1621 85.2312 17.8383 86.9344 20.8154C88.6375 23.7925 91.7821 25.613 95.1721 25.5846H101.982V31.9997H95.1721C86.454 32.0024 79.3701 24.8541 79.3164 15.9998C79.3705 7.14572 86.4541 -0.00232362 95.1721 5.66621e-07H111.028V31.9997H104.67ZM114.207 31.9997V15.9998C114.261 7.14572 121.345 -0.00232362 130.063 5.66621e-07V6.41574C124.844 6.4238 120.606 10.6999 120.564 15.9998V31.9997H114.207ZM69.7811 15.9995V32H76.1372V15.9995C76.0873 7.67435 69.7948 0.761654 61.627 0.0590826V6.51203C66.2844 7.18504 69.7537 11.2216 69.7811 15.9995ZM44.4238 32V15.9995C44.4739 7.67297 50.7685 0.759743 58.9379 0.0590826V6.51203C54.2797 7.18416 50.8094 11.221 50.7819 15.9995V32H44.4238ZM34.8887 9.12842V31.9997H41.2455V9.12842H34.8887ZM31.7087 31.9995H18.5664V25.5837H31.7107V31.9995H31.7087ZM15.855 31.9997H15.8769H15.8782V25.584H15.8563C13.3406 25.5886 10.9265 24.5759 9.14727 22.7695C7.36231 20.9834 6.35728 18.5448 6.35728 15.9999C6.35728 13.455 7.36231 11.0164 9.14727 9.23029C10.9262 7.42333 13.3404 6.4103 15.8563 6.41512H31.712V3.3253e-05H15.8563C11.6564 -0.0084979 7.62618 1.68234 4.65657 4.69873C1.67739 7.68036 0 11.7509 0 15.9989C0 20.2469 1.67739 24.3174 4.65657 27.2991C7.62555 30.3159 11.6553 32.0074 15.855 31.9997ZM132.752 6.41574V5.66621e-07H145.92V6.41574H132.752ZM34.8887 5.66621e-07V6.41574H41.2455V5.66621e-07H34.8887Z" fill="#0257B6"></path></g><defs><clipPath id="clip0_461_1757"><rect width="146" height="32" fill="white"></rect></clipPath></defs></svg> 