<?xml version="1.0" encoding="UTF-8"?> <svg xmlns="http://www.w3.org/2000/svg" width="302" height="248" viewBox="0 0 302 248" fill="none"><g opacity="0.05"><path fill-rule="evenodd" clip-rule="evenodd" d="M285.866 120.968C284.998 121.72 284.015 122.472 282.915 123.167C277.418 113.445 270.416 102.45 273.946 89.4877H274.177C276.955 96.4897 282.279 101.929 286.098 107.542C286.329 108.005 286.619 108.353 286.85 108.758L301.722 93.1913C301.433 100.193 298.887 108.468 293.621 113.676C290.496 116.049 288.586 118.595 285.866 120.968ZM281.411 53.8992C281.642 56.7347 281.179 59.7438 281.7 62.695C282.221 63.9103 282.626 65.1833 283.031 66.4564C284.304 69.7549 285.751 72.8219 288.239 74.2107C290.322 70.1021 292.174 65.6463 292.695 60.4961C292.521 57.1397 291.885 54.0149 290.727 51.0058C288.933 46.3185 285.924 42.152 281.931 38.5064L281.642 38.2749H280.948C281.121 38.68 281.237 39.1429 281.353 39.6637C282.394 44.2931 281.931 48.7489 281.411 53.8992ZM199.759 212.688C203.174 206.207 205.662 198.568 209.655 192.55C212.432 188.326 215.847 184.911 220.881 183.175H221.113C217.004 190.004 218.161 198.047 215.789 205.339C220.013 206.785 224.7 208.579 229.214 209.389C232.339 209.968 235.406 210.026 238.068 209.1C235.637 211.183 233.265 212.862 230.371 214.655C229.966 214.945 229.561 215.234 229.098 215.466C222.906 219.343 215.962 218.012 209.25 215.871C206.067 214.829 202.826 213.614 199.759 212.688ZM220.592 199.957C223.717 192.55 225.8 184.101 229.793 177.504C232.281 173.338 235.464 169.866 240.151 167.84C237.663 173.512 236.853 181.844 236.853 187.921C238.531 187.747 240.209 187.805 241.887 188.036C243.565 188.21 245.243 188.615 246.864 189.078C250.799 190.004 254.618 191.277 258.148 191.335C255.081 194.17 251.088 196.601 246.748 198.337C245.07 198.973 243.449 199.494 241.713 199.957C237.663 201.057 233.438 201.519 229.388 201.404C226.379 201.346 223.369 200.825 220.592 199.957ZM246.979 184.449C245.186 184.333 243.507 184.101 242.003 183.928H241.54C241.713 183.465 241.829 183.06 242.003 182.597C244.318 175.479 245.012 166.915 247.384 159.855C248.773 155.688 250.857 151.927 254.155 149.381H254.792L256.759 171.833L267.465 170.097L274.698 168.882C271.805 170.734 269.721 173.685 267.349 176.636C265.844 178.488 264.224 180.282 262.199 181.671C258.206 184.622 252.245 184.854 246.979 184.449ZM105.262 215.523C105.435 215.292 105.493 214.887 105.493 214.54C103.12 212.862 102.021 209.679 100.169 206.785C99.822 201.693 98.0281 195.964 97.0444 191.856C107.113 195.385 112.842 205.281 118.571 213.903C136.394 224.088 158.153 226.403 177.48 217.375C187.376 209.447 190.79 196.601 203.174 192.839L203.521 192.897C203.521 193.707 203.231 194.286 202.595 194.749C201.38 203.429 196.345 210.431 193.163 215.581C198.718 217.028 203.81 219.632 209.134 221.137C212.259 222.005 215.384 222.583 218.682 222.294C217.756 222.468 217.004 222.988 215.962 224.03C213.763 225.535 211.449 226.576 209.018 227.271C199.933 229.932 189.633 226.865 181.357 221.773C174.356 221.657 166.543 223.799 161.335 226.808L180.49 233.289L176.092 241.68C151.903 227.676 147.852 231.668 125.689 241.622L121.059 234.678C129.45 231.9 134.369 230.338 140.387 227.328C134.022 224.088 126.499 222.988 119.439 220.789C113.189 220.616 110.007 225.94 103.873 227.444C100.053 228.312 95.4819 228.312 91.2576 227.271C88.3064 226.576 85.4708 225.361 83.214 223.567C86.3967 222.93 88.885 221.657 91.4312 220.326C95.7134 218.07 99.6484 215.466 105.262 215.523ZM262.662 165.063C262.662 165.063 262.662 164.774 262.488 164.253C260 152.795 256.585 139.717 264.282 130.111H264.513L267.927 142.089L270.3 150.364C274.64 148.108 280.485 147.008 285.404 146.372C287.255 146.14 288.991 146.024 290.496 145.851C290.091 146.661 289.859 146.777 288.991 147.76C287.95 149.786 286.734 151.464 285.288 153.026C280.6 158.003 274.177 160.607 267.58 163.211C265.96 163.848 264.282 164.426 262.662 165.063ZM43.6904 191.277C48.2041 191.74 52.6599 190.467 57.1157 189.888C60.067 189.541 63.0761 189.483 66.1431 190.409C66.2588 189.946 66.2588 189.599 66.1431 189.136C61.9187 182.481 65.1593 172.933 61.2243 166.857C62.6131 166.857 63.1918 167.841 64.7542 168.13C67.4162 169.692 69.3837 171.833 70.8303 174.38C75.344 181.729 75.9806 192.319 79.6841 200.015C76.7328 199.668 73.608 199.899 70.4253 200.131C65.9695 200.42 61.3979 200.883 56.9421 200.189C54.1645 199.783 51.5026 198.915 48.8985 197.295C47.394 196.138 44.6742 194.575 43.6904 192.666C43.459 192.203 43.2854 191.682 43.3432 191.219L43.6904 191.277ZM23.4946 130.227C26.2723 123.63 30.7859 117.148 31.1332 109.626L31.3646 109.336L31.8276 109.626L31.9433 109.857C32.2326 110.552 32.6377 111.015 33.2743 111.767C37.2093 121.489 35.126 132.368 31.3646 141.742C30.7859 143.305 30.1494 144.751 29.455 146.256C25.3464 142.032 19.7911 140.411 15.1038 137.171C14.6409 136.823 14.2358 136.534 13.7729 136.187C9.37492 132.02 7.11809 125.713 6.53941 119.868C9.54853 121.315 12.5576 122.53 15.2774 123.977C18.2865 125.539 21.1221 127.449 23.4946 130.227ZM2.72015 94.175C8.39117 96.7791 11.7475 101.351 15.6246 105.343L15.8561 105.633L27.6611 87.636H28.0662C34.4316 101.929 21.0642 111.072 20.0804 123.514C18.4601 122.183 16.8977 120.736 15.3932 119.174C12.4998 116.28 9.54853 113.098 6.36581 110.262C2.43081 105.98 -0.231102 98.6887 0.463309 92.3233C1.33132 92.6705 1.79426 93.4227 2.72015 94.175ZM44.0376 171.197C45.2529 171.544 46.3523 171.891 47.394 172.296C45.195 165.005 48.6092 158.061 48.3777 150.885L48.4934 150.596C54.4538 155.399 56.132 162.69 57.4629 170.271C58.3888 175.71 59.1989 181.266 61.4558 185.895C60.0091 185.548 58.6203 185.317 57.1736 185.085C55.669 184.796 54.1645 184.622 52.5442 184.564C49.5351 183.754 46.5838 182.944 43.864 181.96C38.7717 180.108 34.258 177.62 30.8438 174.032C29.2814 172.354 27.8926 170.387 26.8509 168.188C28.124 168.361 29.5129 168.535 30.9017 168.766C35.3575 169.403 39.929 170.039 44.0376 171.197ZM285.519 139.659C281.931 142.032 277.302 143.478 273.02 143.999C268.969 133.409 266.481 121.894 270.647 111.015L270.994 110.783C272.036 113.04 272.21 115.355 273.483 117.496C275.74 121.489 278.228 125.134 280.253 129.359C282.105 128.085 283.899 126.928 285.751 125.829C289.628 123.456 293.331 121.083 296.63 116.859C295.01 124.671 292.926 132.368 288.181 137.576C287.313 138.328 286.445 139.022 285.519 139.659ZM68.7471 208.521C69.2679 208.29 69.7887 208.174 70.3095 208.001C75.1704 206.496 80.0313 205.281 84.8922 204.934C84.8922 204.934 84.8922 204.586 84.6607 204.066C79.6841 197.469 83.677 186.59 77.9481 180.282L78.1217 180.166C84.6607 183.233 88.7114 188.557 91.8363 194.749C94.7297 200.42 96.9286 206.728 99.6484 212.514C96.9865 212.572 94.2089 213.093 91.4891 213.787C85.3551 215.234 79.1054 217.491 72.9136 216.565C71.9877 216.334 71.0618 216.102 70.1359 215.871C66.2588 214.598 62.9603 212.456 61.1086 208.984C63.4233 209.274 65.9116 208.695 68.7471 208.521ZM13.0785 145.33C13.715 145.33 14.2937 145.446 14.9302 145.504C20.9485 146.082 26.6773 147.413 31.2489 150.191C31.5382 150.249 31.7118 150.422 32.0012 150.596L39.6397 129.474L39.7554 129.127C40.2762 129.532 40.8549 130.169 41.3179 130.979C49.3615 141.164 36.9778 154.82 41.7229 166.047C39.4082 163.674 36.3412 163.037 32.8113 162.285C32.2326 161.996 31.654 161.764 31.0753 161.475C24.8834 158.64 18.981 155.63 14.8145 150.827C13.4257 149.149 12.2104 147.24 11.2846 145.041C11.979 144.925 12.384 144.925 13.0785 145.33ZM16.0876 77.3934C19.4439 73.1112 25.1728 69.8128 27.256 65.4727L28.0083 65.3569C28.8763 70.16 27.6032 75.4838 25.2307 80.0553C22.5109 86.0157 18.4601 90.3558 15.7982 96.2583C15.2774 97.3577 14.8145 98.5151 14.4094 99.7882C6.71301 91.108 -0.0574994 81.502 0.000368253 68.829L14.2937 80.4604C14.6987 79.3609 15.3932 78.3193 16.0876 77.3934ZM20.3119 53.8992C20.1383 56.7347 20.6012 59.7438 20.0804 62.695C19.5596 63.9103 19.1546 65.1833 18.7495 66.4564C17.4185 69.7549 16.0297 72.8219 13.5414 74.2107C11.4582 70.1021 9.60639 65.6463 9.08559 60.4961C9.20132 57.1397 9.83786 54.0149 10.9952 51.0058C12.847 46.3185 15.7982 42.152 19.849 38.5064L20.1383 38.2749H20.7748C20.6591 38.68 20.5434 39.1429 20.4276 39.6637C19.386 44.2931 19.849 48.7489 20.3119 53.8992ZM287.429 102.276C286.966 101.698 286.561 101.003 286.214 100.425C279.79 90.5872 274.119 78.4929 275.682 64.894L275.797 64.6047C275.797 64.6047 276.087 64.894 276.087 65.4727C279.501 70.0442 283.783 74.7315 286.561 79.7081C287.371 81.0969 288.008 82.5436 288.586 84.0482C291.885 77.8564 297.729 74.7315 301.201 69.2919C301.549 69.9864 301.143 70.5072 301.722 71.4909C302.359 84.5111 296.109 94.2329 287.429 102.276Z" fill="#333333"></path><path fill-rule="evenodd" clip-rule="evenodd" d="M177.365 6.38989V58.8758H192.41C192.642 72.1275 201.785 83.1803 214.111 86.363C212.838 86.4208 211.564 86.4787 210.291 86.4787C193.278 86.4787 170.536 74.095 156.937 64.489C155.201 63.2738 152.887 63.5631 151.556 65.1834C151.209 65.5306 150.977 65.9357 150.803 66.3408C150.688 65.9357 150.456 65.5306 150.109 65.1834C148.778 63.5631 146.406 63.2738 144.727 64.489C131.128 74.095 108.386 86.4787 91.3734 86.4787C90.1003 86.4787 88.8272 86.4208 87.5541 86.363C99.8799 83.1803 109.023 72.1275 109.255 58.8758H124.589V6.38989H177.365ZM180.258 109.105H177.365V161.938H124.589V109.105H121.349C126.557 99.1517 133.559 89.3142 141.66 79.8239C144.322 76.6991 147.1 73.6321 149.993 70.623C150.341 70.2179 150.63 69.755 150.803 69.292C151.035 69.755 151.324 70.2179 151.671 70.623C161.914 81.3285 172.735 94.638 180.258 109.105Z" fill="#333333"></path><path fill-rule="evenodd" clip-rule="evenodd" d="M37.1514 53.2629C39.061 111.767 71.7562 171.834 137.725 197.932C84.2556 157.251 111.396 105.228 147.158 67.7298C137.32 74.6739 111.801 90.4718 91.4312 90.4718C71.0618 90.4718 44.327 78.7247 37.1514 53.2629ZM80.3785 33.3564C66.606 33.3564 55.4954 44.467 55.4954 58.2395C55.4954 71.9542 66.606 83.1226 80.3785 83.1226C94.2088 83.1226 105.319 71.9542 105.319 58.2395C105.319 44.467 94.2088 33.3564 80.3785 33.3564ZM221.518 33.3564C235.232 33.3564 246.401 44.467 246.401 58.2395C246.401 71.9542 235.232 83.1226 221.518 83.1226C207.687 83.1226 196.519 71.9542 196.519 58.2395C196.519 44.467 207.687 33.3564 221.518 33.3564ZM264.745 53.2629C262.835 111.767 230.14 171.834 164.171 197.932C217.583 157.251 190.501 105.228 154.738 67.7298C164.576 74.6739 190.038 90.4718 210.465 90.4718C230.776 90.4718 257.569 78.7247 264.745 53.2629Z" fill="#333333"></path></g></svg> 