<?xml version="1.0" encoding="UTF-8"?> <svg xmlns="http://www.w3.org/2000/svg" width="28" height="28" viewBox="0 0 28 28" fill="none"><circle cx="14" cy="14" r="14" fill="#1B395F"></circle><path d="M20.6667 17.2797V19.2797C20.6675 19.4654 20.6294 19.6492 20.555 19.8193C20.4807 19.9894 20.3716 20.1421 20.2348 20.2676C20.0979 20.3932 19.9364 20.4887 19.7605 20.5482C19.5847 20.6077 19.3983 20.6298 19.2134 20.6131C17.1619 20.3902 15.1914 19.6892 13.46 18.5664C11.8493 17.5428 10.4836 16.1772 9.46004 14.5664C8.33336 12.8272 7.6322 10.8471 7.41337 8.78641C7.39671 8.60205 7.41862 8.41625 7.4777 8.24082C7.53679 8.0654 7.63175 7.9042 7.75655 7.76749C7.88134 7.63077 8.03324 7.52155 8.20256 7.44675C8.37189 7.37196 8.55493 7.33325 8.74004 7.33307H10.74C11.0636 7.32989 11.3772 7.44446 11.6225 7.65543C11.8679 7.8664 12.0281 8.15937 12.0734 8.47974C12.1578 9.11978 12.3143 9.74822 12.54 10.3531C12.6297 10.5917 12.6491 10.851 12.596 11.1003C12.5428 11.3496 12.4193 11.5785 12.24 11.7597L11.3934 12.6064C12.3424 14.2754 13.7243 15.6574 15.3934 16.6064L16.24 15.7597C16.4213 15.5805 16.6501 15.457 16.8995 15.4038C17.1488 15.3506 17.4081 15.37 17.6467 15.4597C18.2516 15.6854 18.88 15.842 19.52 15.9264C19.8439 15.9721 20.1396 16.1352 20.3511 16.3847C20.5625 16.6343 20.6748 16.9528 20.6667 17.2797Z" fill="white"></path></svg> 