<?xml version="1.0" encoding="UTF-8"?> <svg xmlns="http://www.w3.org/2000/svg" width="80" height="80" viewBox="0 0 80 80" fill="none"><path d="M63.1275 44.4781C65.5697 42.2549 68.1538 39.8601 70.3559 37.3788C72.1212 35.3897 72.9564 33.9171 71.3655 30.7003C71.34 30.5765 71.3322 30.4514 71.2888 30.3297C70.9418 29.3572 70.0882 28.6776 69.0588 28.5564L65.2216 28.1086C68.6856 25.1261 68.6287 25.4777 68.6388 23.387C68.8243 22.8056 68.6816 22.2309 68.3223 21.8181C65.2413 18.2803 65.3026 18.0817 64.5298 18.0354C64.1852 18.0084 63.8198 18.1376 63.5556 18.3749C60.9215 20.7438 54.3257 26.1567 53.6145 26.7514L50.9744 26.4399C48.2759 20.3066 44.1814 9.63687 40.1039 7.22793C39.1651 6.67323 37.2654 5.66371 36.1476 6.00831C36.0107 5.99366 35.8788 5.96192 35.7362 5.96967C34.7022 5.9984 33.7922 6.60099 33.3614 7.54079L24.7309 26.2879C24.6034 26.5671 24.3426 26.7705 24.0496 26.8279L3.70378 30.351C1.50466 30.7427 0.698692 33.4869 2.34233 35L17.5066 48.9827C17.7353 49.1986 17.8433 49.5054 17.8053 49.8122L14.8734 70.2418C14.5671 72.3879 16.5779 73.6407 18.7748 73.7399C24.5433 74.5266 36.3962 74.0848 36.3962 73.0964C36.3962 72.5174 31.9845 72.0481 26.5423 72.0481C25.56 72.0481 24.6131 72.0638 23.7179 72.0923C24.6549 71.5858 34.3738 65.8927 38.5197 63.2406C57.041 72.1922 56.2408 72.2968 57.6008 72.2201C59.1694 72.6038 61.0543 71.4633 61.7215 69.8733C62.5181 67.9746 62.1072 65.8108 61.6803 63.7965C59.2152 51.823 58.9195 51.9582 58.8178 49.1075C60.2149 47.49 61.6479 45.8251 63.1275 44.4781ZM64.4081 19.981C65.6887 21.4538 66.4079 22.3324 66.9333 22.8544C56.3462 31.6515 49.1427 38.1112 40.6546 46.4287C35.7946 41.7664 32.762 39.3946 28.1098 34.1395C29.4327 32.8891 30.5039 31.8273 31.7288 30.6698C39.8849 39.3251 39.8767 40.1938 40.7454 40.2126C41.2049 40.2166 41.2026 40.2252 43.9531 37.4914C47.7224 33.7492 61.082 22.9621 64.4081 19.981ZM38.5131 61.2713C37.718 60.8818 36.7828 60.9128 36.0085 61.3448L18.0075 71.4459C17.3267 71.829 16.5093 71.2701 16.6197 70.4923L19.554 50.0477C19.6643 49.1745 19.3518 48.2968 18.7107 47.6913L3.53833 33.7023C2.96676 33.1751 3.25004 32.2246 4.00938 32.0887L24.369 28.5627C25.2387 28.3933 25.9751 27.816 26.3359 27.0221L34.9653 8.27723C35.2587 7.63807 36.2336 7.4643 36.6415 8.23358L46.2796 26.4781C46.6978 27.2599 47.4687 27.7935 48.3499 27.9067L51.7616 28.3092C43.667 35.1621 44.0473 34.917 41.925 37.0175C35.6001 30.2894 35.3958 29.1302 33.5477 28.8428C32.9731 28.7535 31.9628 28.6051 31.3811 28.8278C31.3559 28.8374 31.3466 28.8523 31.3453 28.8702C30.6688 29.0498 30.7641 29.2138 26.7621 32.9848C26.1532 33.5599 26.1073 34.537 26.6599 35.1637C31.6622 40.8343 34.7916 43.2013 40.0457 48.2933C40.0605 48.3078 40.0801 48.3126 40.0956 48.3257C40.1979 48.4385 40.2933 48.5489 40.4845 48.6188C41.2357 48.8936 42.1962 48.7232 42.7895 48.1786C49.5484 41.974 56.4479 35.7168 63.4079 29.6736L68.8543 30.3091C69.6307 30.4015 69.9541 31.3348 69.4195 31.8876L55.0319 46.7032C54.4126 47.3616 54.1507 48.2669 54.3311 49.1159L58.3694 69.3469C58.5233 70.1064 57.7442 70.7145 57.0448 70.3797L38.5131 61.2713Z" fill="#E2EAFC"></path><path d="M64.5195 6.54922C64.1966 8.01464 64.0128 9.51682 63.9749 11.015C63.9623 11.5021 64.3472 11.9071 64.8343 11.9197H64.8573C65.3341 11.9197 65.727 11.5395 65.7396 11.0598C65.7741 9.67422 65.9441 8.28463 66.2428 6.92951C66.3474 6.45329 66.0475 5.98282 65.5707 5.87769C65.1031 5.77084 64.624 6.073 64.5195 6.54922Z" fill="#E2EAFC"></path><path d="M72.6088 8.2117C72.2641 7.8699 71.7035 7.8745 71.3611 8.22032C70.0893 9.51053 68.9232 10.9225 67.8937 12.4172C67.4868 13.0099 67.9234 13.7999 68.6198 13.7999C69.5476 13.7999 69.3949 12.7279 72.618 9.45998C72.9604 9.11301 72.9558 8.55407 72.6088 8.2117Z" fill="#E2EAFC"></path><path d="M77.649 14.9017C77.5305 14.9017 71.8355 15.1079 71.9539 15.112C71.4668 15.1304 71.0865 15.5394 71.1049 16.0265C71.1221 16.5021 71.5127 16.8761 71.9849 16.8761C72.1034 16.8761 77.7984 16.67 77.68 16.6659C78.1672 16.6475 78.5474 16.2385 78.5291 15.7513C78.5118 15.2757 78.1212 14.9017 77.649 14.9017Z" fill="#E2EAFC"></path></svg> 