<?xml version="1.0" encoding="UTF-8"?> <svg xmlns="http://www.w3.org/2000/svg" width="80" height="80" viewBox="0 0 80 80" fill="none"><g clip-path="url(#clip0_206_422)"><path d="M1.25409 79.7402C2.0444 79.563 20.6478 75.348 24.861 71.1346C28.4711 67.5252 29.1891 61.9041 26.6922 57.521L27.5121 56.7027L28.0117 57.2024C29.0028 58.1935 30.6155 58.1903 31.6035 57.2024L32.3169 56.4889C33.5958 57.4107 35.2294 57.7177 36.7864 57.2663C37.9942 56.9174 39.2572 56.4669 40.5621 55.9261C42.3171 59.7932 41.5014 64.4525 38.4594 67.4946C37.513 68.4407 36.098 69.4899 34.4713 70.45C32.2413 71.7767 33.2797 75.2047 35.8546 75.0283C42.4952 74.5716 51.2902 70.0864 55.0299 66.3466C57.6663 63.7102 59.1183 60.2025 59.1183 56.4705C59.1183 52.9024 57.7783 49.5489 55.3578 46.9564C58.2278 44.71 61.0557 42.2041 63.8036 39.4558C72.4802 30.7816 77.5922 18.4019 79.6769 6.30503C80.291 2.77503 77.2335 -0.297784 73.6907 0.317216C61.6067 2.39909 49.2183 7.51815 40.5447 16.1966C37.796 18.9452 35.2894 21.7742 33.0432 24.6441C27.5721 19.5525 18.9796 19.6525 13.6496 24.9746C9.90737 28.7167 5.42503 37.5128 4.97596 44.1511C4.80081 46.7424 8.24128 47.7514 9.54581 45.5263C10.5433 43.8578 11.5682 42.4786 12.5099 41.5369C15.5427 38.5055 20.1971 37.6892 24.0677 39.4352C23.5282 40.7344 23.0782 41.996 22.7286 43.2069C22.2802 44.7514 22.5841 46.3961 23.5071 47.6764L22.7925 48.3908C21.7978 49.3864 21.8013 50.9917 22.7925 51.983L23.2933 52.4838L22.4625 53.3146C18.088 50.8194 12.4733 51.5332 8.86237 55.1355C4.64846 59.3489 0.4419 77.961 0.264713 78.7508C0.129869 79.3511 0.672213 79.8739 1.25409 79.7402ZM57.4617 56.4707C57.4617 59.7602 56.1821 62.8516 53.8586 65.1753C50.326 68.7072 42.0164 72.9436 35.7422 73.3757C34.891 73.4302 34.5921 72.306 35.3167 71.875C37.0819 70.8327 38.5744 69.7228 39.6308 68.666C43.1558 65.1416 44.1046 59.745 42.0796 55.2605C42.8216 54.9208 43.5722 54.5607 44.3374 54.1647C46.6597 52.9607 48.9888 51.531 51.1196 50.0669C51.1211 50.0657 51.1221 50.0638 51.1236 50.0627C52.1 49.3972 53.0728 48.696 54.0419 47.9682C56.2436 50.2685 57.4617 53.2727 57.4617 56.4707ZM67.1225 33.0244L61.7047 27.5996C62.6339 27.2489 63.5064 26.7066 64.2527 25.9599C64.9894 25.2233 65.5408 24.353 65.8985 23.4069L70.4216 27.9233C69.2852 29.9241 68.3771 31.3144 67.1225 33.0244ZM55.2161 24.7885C53.0436 22.6152 53.0353 19.0961 55.2121 16.9194C57.3836 14.7485 60.9144 14.7489 63.0857 16.9194C65.2589 19.0927 65.2578 22.6114 63.0816 24.7885C60.9119 26.9566 57.3824 26.9557 55.2161 24.7885ZM73.9739 1.94987C76.3777 1.53065 78.4642 3.61456 78.0446 6.02253C77.1519 11.2036 75.248 18.8563 71.2525 26.4117L66.338 21.5041C66.5346 19.2989 65.7477 17.2391 64.2568 15.7482C62.6841 14.1752 60.5599 13.4822 58.4997 13.6666L53.5838 8.75065C61.1533 4.74518 68.7996 2.84081 73.9739 1.94987ZM52.0721 9.5819L56.596 14.1055C55.6644 14.4561 54.7894 14.9996 54.0406 15.7482C53.3063 16.4825 52.7566 17.3499 52.3996 18.2932L46.981 12.8749C48.5146 11.748 50.0606 10.7217 52.0721 9.5819ZM41.7163 17.368C42.9216 16.1625 44.2457 14.9957 45.6492 13.8858L51.9594 20.1955C51.7607 22.4222 52.5642 24.4799 54.0447 25.9599C55.5557 27.4713 57.6467 28.2341 59.8024 28.0397L66.111 34.3558C65.0011 35.7591 63.8358 37.0817 62.6325 38.2847C58.6113 42.306 54.4225 45.8103 50.1788 48.7021C48.0849 50.1394 45.8842 51.4932 43.5753 52.6914C43.5724 52.693 43.5707 52.6961 43.5677 52.6977C40.9972 54.0278 38.5608 55.0296 36.3264 55.6749C35.1005 56.0322 33.7772 55.6953 32.8692 54.7986C32.8636 54.7927 32.8619 54.7847 32.8561 54.7789L25.2164 47.1392C25.2111 47.1339 25.2039 47.1324 25.1985 47.1274C24.3005 46.2188 23.9638 44.8964 24.3202 43.6682C25.1332 40.8528 26.3278 38.2535 27.7066 35.6861C28.7592 33.7286 29.9592 31.76 31.3005 29.8197C34.1907 25.578 37.695 21.3889 41.7163 17.368ZM11.3385 40.3657C10.3022 41.4019 9.19065 42.8924 8.12049 44.6822C7.68674 45.4199 6.57253 45.0988 6.62956 44.2628C7.05268 37.9902 11.2867 29.6807 14.8202 26.1464C19.5558 21.4188 27.2139 21.3619 32.0321 25.9597C31.3046 26.9285 30.6036 27.9007 29.9386 28.876C29.9364 28.8792 29.9327 28.8807 29.9305 28.8838C28.4928 30.9674 27.2196 33.0661 26.1216 35.1336C25.7346 35.8611 25.4202 36.4285 24.735 37.9191C20.2464 35.9044 14.8541 36.8507 11.3385 40.3657ZM23.9638 49.5627L24.6263 48.9002C24.7664 49.0403 29.6257 53.9002 31.0942 55.3689L30.4321 56.0307C30.0858 56.3753 29.526 56.3741 29.183 56.0311C29.0132 55.8613 23.8816 50.7291 23.9636 50.8114C23.621 50.4702 23.616 49.9097 23.9638 49.5627ZM24.4646 53.6552L26.3411 55.5317C26.2353 55.6372 22.7596 59.1053 22.8532 59.0121C22.3394 59.5258 21.4997 59.5233 20.9844 59.0121C20.4713 58.4982 20.4657 57.6549 20.9844 57.1353L24.4646 53.6552ZM20.8211 54.956L19.8132 55.9639C18.6533 57.1238 18.6449 59.0147 19.8157 60.1863C20.981 61.3402 22.8677 61.3405 24.0246 60.1835L25.0441 59.166C25.1736 60.5286 24.7002 61.9036 23.6977 62.9057C22.291 64.3121 16.511 65.9632 13.2299 66.7744C14.038 63.4938 15.6842 57.7141 17.091 56.3069C18.0917 55.3074 19.4636 54.8322 20.8211 54.956ZM10.0328 56.3077C12.2717 54.0733 15.4153 53.1394 18.3992 53.6111C17.4847 53.9161 16.6311 54.4233 15.9196 55.1357C13.6691 57.3861 11.5416 66.6591 11.3069 67.7088C11.1738 68.301 11.7044 68.8324 12.2971 68.6982C13.3463 68.4624 22.6192 66.3271 24.8689 64.0771C25.5833 63.3627 26.0908 62.5061 26.3947 61.5878C26.8657 64.5764 25.9292 67.7235 23.6894 69.9633C20.4125 73.2403 6.51549 76.7791 2.1844 77.8202C3.22315 73.4874 6.75659 59.5839 10.0328 56.3077Z" fill="white"></path></g><defs><clipPath id="clip0_206_422"><rect width="80" height="80" fill="white"></rect></clipPath></defs></svg> 