<?xml version="1.0" encoding="UTF-8"?> <svg xmlns="http://www.w3.org/2000/svg" width="80" height="80" viewBox="0 0 80 80" fill="none"><path d="M61.609 44.1968C63.8908 42.1131 66.3053 39.8687 68.3628 37.5432C70.0122 35.679 70.7925 34.2989 69.3061 31.284C69.2822 31.168 69.2749 31.0508 69.2344 30.9367C68.9102 30.0252 68.1126 29.3883 67.1508 29.2747L63.5656 28.855C66.8021 26.0598 66.749 26.3894 66.7584 24.4299C66.9317 23.885 66.7984 23.3464 66.4627 22.9595C63.584 19.6439 63.6412 19.4576 62.9192 19.4143C62.5972 19.389 62.2558 19.5101 62.0089 19.7325C59.5479 21.9526 53.3851 27.0257 52.7206 27.583L50.2538 27.2911C47.7325 21.5429 43.9068 11.5431 40.0971 9.28538C39.2199 8.76551 37.4449 7.81937 36.4006 8.14233C36.2726 8.1286 36.1494 8.09886 36.0161 8.10613C35.05 8.13305 34.1998 8.69781 33.7973 9.5786L25.7334 27.1487C25.6143 27.4103 25.3706 27.6009 25.0969 27.6548L6.08691 30.9566C4.03218 31.3238 3.27913 33.8957 4.81486 35.3138L18.9835 48.4185C19.1971 48.6209 19.298 48.9084 19.2626 49.1959L16.5231 68.3429C16.237 70.3542 18.1157 71.5284 20.1684 71.6213C25.5581 72.3587 36.6328 71.9446 36.6328 71.0182C36.6328 70.4757 32.5107 70.0357 27.4259 70.0357C26.5081 70.0357 25.6234 70.0505 24.7869 70.0772C25.6624 69.6025 34.7432 64.2668 38.6169 61.7813C55.9221 70.1709 55.1744 70.2688 56.4452 70.197C57.9108 70.5566 59.6719 69.4877 60.2953 67.9975C61.0396 66.2181 60.6556 64.1901 60.2568 62.3023C57.9536 51.0805 57.6773 51.2072 57.5822 48.5355C58.8876 47.0196 60.2265 45.4592 61.609 44.1968ZM62.8054 21.2378C64.002 22.6181 64.674 23.4415 65.1649 23.9308C55.273 32.1755 48.5424 38.2296 40.6116 46.0249C36.0707 41.6553 33.2372 39.4325 28.8905 34.5073C30.1265 33.3354 31.1273 32.3403 32.2719 31.2555C39.8924 39.3673 39.8848 40.1814 40.6964 40.199C41.1258 40.2028 41.1236 40.2109 43.6935 37.6487C47.2154 34.1415 59.6978 24.0316 62.8054 21.2378ZM38.6107 59.9356C37.8678 59.5705 36.994 59.5996 36.2705 60.0045L19.4515 69.4714C18.8154 69.8304 18.0516 69.3066 18.1548 68.5777L20.8964 49.4167C20.9995 48.5983 20.7075 47.7757 20.1085 47.2082L5.93233 34.0976C5.39829 33.6035 5.66297 32.7127 6.37245 32.5853L25.3953 29.2807C26.2079 29.1218 26.896 28.5808 27.233 27.8367L35.2958 10.2688C35.57 9.66977 36.4809 9.50692 36.862 10.2279L45.8673 27.3269C46.258 28.0596 46.9783 28.5598 47.8017 28.6658L50.9894 29.043C43.4262 35.4657 43.7816 35.236 41.7986 37.2046C35.889 30.899 35.6981 29.8125 33.9713 29.5431C33.4344 29.4594 32.4905 29.3204 31.947 29.5291C31.9235 29.5381 31.9148 29.5521 31.9135 29.5688C31.2815 29.7371 31.3705 29.8908 27.6313 33.4251C27.0624 33.964 27.0194 34.8798 27.5358 35.4672C32.2096 40.7817 35.1335 43.0001 40.0427 47.7725C40.0565 47.786 40.0748 47.7905 40.0893 47.8028C40.1849 47.9085 40.2741 48.012 40.4527 48.0775C41.1545 48.3351 42.052 48.1754 42.6064 47.6649C48.9214 41.8499 55.368 35.9856 61.8709 30.3218L66.9597 30.9173C67.6851 31.004 67.9874 31.8786 67.4879 32.3968L54.0449 46.2822C53.4663 46.8992 53.2216 47.7477 53.3901 48.5434L57.1633 67.5041C57.3071 68.216 56.5791 68.7859 55.9256 68.4721L38.6107 59.9356Z" fill="#E2EAFC"></path><path d="M62.9096 8.64951C62.6079 10.0229 62.4362 11.4308 62.4008 12.8349C62.389 13.2914 62.7486 13.671 63.2037 13.6828H63.2252C63.6707 13.6828 64.0378 13.3264 64.0496 12.8769C64.0818 11.5783 64.2407 10.276 64.5198 9.00592C64.6175 8.5596 64.3373 8.11866 63.8918 8.02014C63.4549 7.92 63.0073 8.20319 62.9096 8.64951Z" fill="#E2EAFC"></path><path d="M70.4678 10.2076C70.1458 9.88728 69.622 9.89159 69.3021 10.2157C68.1137 11.4249 67.0242 12.7482 66.0623 14.1491C65.6821 14.7046 66.0901 15.445 66.7408 15.445C67.6077 15.445 67.4649 14.4403 70.4764 11.3775C70.7963 11.0523 70.792 10.5285 70.4678 10.2076Z" fill="#E2EAFC"></path><path d="M75.1771 16.4775C75.0665 16.4775 69.7454 16.6707 69.856 16.6746C69.4008 16.6918 69.0455 17.0751 69.0627 17.5317C69.0788 17.9775 69.4438 18.328 69.885 18.328C69.9957 18.328 75.3167 18.1348 75.2061 18.1309C75.6613 18.1137 76.0166 17.7304 75.9994 17.2738C75.9833 16.828 75.6183 16.4775 75.1771 16.4775Z" fill="#E2EAFC"></path></svg> 