<?xml version="1.0" encoding="UTF-8"?> <svg xmlns="http://www.w3.org/2000/svg" width="80" height="80" viewBox="0 0 80 80" fill="none"><g clip-path="url(#clip0_206_394)"><path d="M56.2741 0.238342H9.64537C7.56725 0.238342 5.87646 1.92912 5.87646 4.00803V69.5233C5.87646 71.5966 7.56725 73.2841 9.64537 73.2841H14.2766V74.2201C14.2766 77.2755 16.7585 79.7613 19.826 79.7613C36.9533 79.7607 51.9768 79.7602 68.5791 79.7598C71.6362 79.7598 74.1236 77.2722 74.1236 74.2152V72.0732C74.1236 70.5377 72.8738 69.288 71.3385 69.288H68.4352V11.4213C68.4352 9.88678 67.1862 8.6385 65.6516 8.6385H60.0351V4.00803C60.0349 1.92897 58.3474 0.238342 56.2741 0.238342ZM14.2766 11.4213V71.6276H9.64537C8.48053 71.6276 7.53318 70.6835 7.53318 69.5235V4.00803C7.53318 2.84319 8.48053 1.89506 9.64537 1.89506H56.2741C57.4341 1.89506 58.3782 2.84319 58.3782 4.00803V8.6385H17.0594C15.5249 8.6385 14.2766 9.88662 14.2766 11.4213ZM71.3385 70.9447C71.9605 70.9447 72.4669 71.4512 72.4669 72.0732V74.2152C72.4669 76.359 70.7229 78.103 68.5791 78.103H23.768C24.7518 77.1016 25.3601 75.7279 25.3601 74.2152V72.0732C25.3601 71.4512 25.8665 70.9447 26.4885 70.9447H71.3385ZM65.6515 10.2952C66.2727 10.2952 66.7783 10.8001 66.7783 11.4213V69.288H26.4885C24.9532 69.288 23.7033 70.5379 23.7033 72.0732V74.2152C23.7033 76.359 21.9641 78.103 19.826 78.103C19.8232 78.103 19.8207 78.1046 19.8179 78.1046H19.8097C17.6726 78.1046 15.9332 76.3621 15.9332 74.2201V11.4213C15.9332 10.8001 16.438 10.2952 17.0593 10.2952H65.6515Z" fill="white"></path><path d="M30.855 19.8294H51.8586C52.3165 19.8294 52.6871 19.459 52.6871 19.001C52.6871 18.5432 52.3166 18.1725 51.8586 18.1725H30.855C30.3972 18.1725 30.0266 18.543 30.0266 19.001C30.0268 19.459 30.3972 19.8294 30.855 19.8294Z" fill="white"></path><path d="M21.9122 28.2296H60.8017C61.2595 28.2296 61.6301 27.8591 61.6301 27.4011C61.6301 26.9432 61.2597 26.5727 60.8017 26.5727H21.9122C21.4544 26.5727 21.0837 26.9432 21.0837 27.4011C21.0837 27.8591 21.4544 28.2296 21.9122 28.2296Z" fill="white"></path><path d="M21.9122 36.6297H60.8017C61.2595 36.6297 61.6301 36.2592 61.6301 35.8013C61.6301 35.3433 61.2597 34.9728 60.8017 34.9728H21.9122C21.4544 34.9728 21.0837 35.3433 21.0837 35.8013C21.0837 36.2592 21.4544 36.6297 21.9122 36.6297Z" fill="white"></path><path d="M21.9122 45.0308H60.8017C61.2595 45.0308 61.6301 44.6604 61.6301 44.2024C61.6301 43.7446 61.2597 43.374 60.8017 43.374H21.9122C21.4544 43.374 21.0837 43.7444 21.0837 44.2024C21.0839 44.6602 21.4544 45.0308 21.9122 45.0308Z" fill="white"></path><path d="M21.9122 53.431H44.3978C44.8556 53.431 45.2262 53.0605 45.2262 52.6025C45.2262 52.1447 44.8558 51.7741 44.3978 51.7741H21.9122C21.4544 51.7741 21.0837 52.1446 21.0837 52.6025C21.0839 53.0604 21.4544 53.431 21.9122 53.431Z" fill="white"></path><path d="M21.9122 61.8311H44.3978C44.8556 61.8311 45.2262 61.4607 45.2262 61.0027C45.2262 60.5449 44.8558 60.1743 44.3978 60.1743H21.9122C21.4544 60.1743 21.0837 60.5447 21.0837 61.0027C21.0839 61.4605 21.4544 61.8311 21.9122 61.8311Z" fill="white"></path><path d="M54.9821 50.2242C51.786 50.2242 49.186 52.825 49.186 56.0211C49.186 59.2246 51.786 61.831 54.9821 61.831C58.1856 61.831 60.792 59.2246 60.792 56.0211C60.792 52.825 58.1856 50.2242 54.9821 50.2242ZM54.9821 60.1742C52.6993 60.1742 50.8428 58.3113 50.8428 56.0211C50.8428 53.7383 52.6993 51.881 54.9821 51.881C57.2723 51.881 59.1353 53.7383 59.1353 56.0211C59.1353 58.3113 57.2723 60.1742 54.9821 60.1742Z" fill="white"></path><path d="M54.9863 52.8403C53.2308 52.8403 51.8022 54.2689 51.8022 56.0244C51.8022 57.7839 53.2308 59.2149 54.9863 59.2149C56.7449 59.2149 58.176 57.7838 58.176 56.0244C58.176 54.2689 56.7449 52.8403 54.9863 52.8403ZM54.9863 57.5581C54.1441 57.5581 53.459 56.8697 53.459 56.0244C53.459 55.1822 54.1441 54.4971 54.9863 54.4971C55.8316 54.4971 56.5193 55.1822 56.5193 56.0244C56.5193 56.8697 55.8316 57.5581 54.9863 57.5581Z" fill="white"></path></g><defs><clipPath id="clip0_206_394"><rect width="80" height="80" fill="white"></rect></clipPath></defs></svg> 