<?xml version="1.0" encoding="UTF-8"?> <svg xmlns="http://www.w3.org/2000/svg" width="80" height="80" viewBox="0 0 80 80" fill="none"><g clip-path="url(#clip0_206_412)"><path d="M68.6414 65.4705H68.8978C72.0034 65.4705 74.5304 62.9401 74.5304 59.8298V44.2235C74.5304 41.3932 72.429 39.0499 69.6435 38.6557V32.6093C69.6435 27.631 68.3759 22.7247 65.9915 18.3822C66.9039 16.3994 66.6421 14.1312 65.289 12.4372C59.0973 4.68428 49.8801 0.238342 40.0004 0.238342C30.1207 0.238342 20.9034 4.68428 14.7117 12.4372C13.3585 14.1312 13.0968 16.3994 14.0092 18.3822C11.6248 22.7247 10.3571 27.631 10.3571 32.6093V38.6458C7.60308 39.0127 5.46948 41.3712 5.46948 44.2233V59.8296C5.46948 62.9401 7.99667 65.4704 11.1031 65.4704H14.7914C15.1846 66.9246 16.5024 68.0032 18.0795 68.0032C19.9651 68.0032 21.4989 66.4694 21.4989 64.5838V39.4749C21.4989 37.5893 19.9651 36.0555 18.0795 36.0555C17.5285 36.0555 17.0151 36.1987 16.5539 36.4312V32.6093C16.5539 28.844 17.4771 25.1207 19.2103 21.7987C21.1621 21.8297 22.7762 20.9897 23.8093 19.696C27.7756 14.7307 33.677 11.8832 40.0004 11.8832C46.3239 11.8832 52.2253 14.7307 56.1907 19.6952C57.2376 21.006 58.8606 21.8294 60.7906 21.7987C62.5237 25.1207 63.447 28.844 63.447 32.6093V36.4313C62.9853 36.1988 62.4718 36.0554 61.9204 36.0554C60.0348 36.0554 58.501 37.5891 58.501 39.4748V64.5838C58.501 66.4694 60.0348 68.0032 61.9204 68.0032C63.4974 68.0032 64.8159 66.9246 65.2095 65.4704H66.9845V69.3719C66.9845 71.8749 64.9443 73.9118 62.4365 73.9118H47.4576C46.8782 71.5077 43.8156 69.7246 40.0003 69.7246C35.7581 69.7246 32.4349 71.9266 32.4349 74.7385C32.4349 77.5552 35.7581 79.7613 40.0003 79.7613C43.8145 79.7613 46.8768 77.9757 47.4571 75.5685H62.4365C65.8576 75.5685 68.6412 72.789 68.6412 69.3719V65.4705H68.6414ZM40.0004 78.1048C36.7978 78.1048 34.0918 76.5629 34.0918 74.7387C34.0918 72.9185 36.7978 71.3815 40.0004 71.3815C43.2031 71.3815 45.9082 72.9185 45.9082 74.7387C45.9081 76.5629 43.2029 78.1048 40.0004 78.1048ZM14.66 63.8138H11.1029C8.90979 63.8138 7.12604 62.0268 7.12604 59.8298V44.2235C7.12604 42.0313 8.90979 40.2476 11.1854 40.2476H14.6598L14.66 63.8138ZM18.0793 37.7122C19.0517 37.7122 19.842 38.5026 19.842 39.4749V64.584C19.842 65.5563 19.0517 66.3466 18.0793 66.3466C17.107 66.3466 16.3167 65.5563 16.3167 64.584V39.4749C16.3167 38.5026 17.107 37.7122 18.0793 37.7122ZM14.897 32.6093V38.2483C14.8542 38.3591 14.8218 38.4746 14.7904 38.5907H12.0139V32.6093C12.0139 28.2005 13.0693 23.854 15.0557 19.9482C15.727 20.671 16.5654 21.2037 17.4996 21.5085C15.8006 24.9455 14.897 28.7571 14.897 32.6093ZM57.4851 18.6613C53.204 13.3005 46.8312 10.2265 40.0004 10.2265C33.1704 10.2265 26.7967 13.3013 22.5149 18.6622C20.7589 20.8593 16.9426 20.6755 15.5393 17.7587C14.8437 16.3115 15.0176 14.709 16.006 13.4712C21.8815 6.11459 30.627 1.89506 40.0004 1.89506C49.3739 1.89506 58.1193 6.11459 63.9948 13.4712C64.9834 14.7088 65.1573 16.3113 64.4615 17.7587C63.0778 20.6347 59.2667 20.8913 57.4851 18.6613ZM63.684 64.584C63.684 65.5563 62.8929 66.3466 61.9206 66.3466C60.9482 66.3466 60.1579 65.5563 60.1579 64.584V39.4749C60.1579 38.5026 60.9482 37.7122 61.9206 37.7122C62.8929 37.7122 63.684 38.5026 63.684 39.4749V64.584ZM65.1037 38.2485V32.6093C65.1037 28.7571 64.2001 24.9455 62.501 21.5085C63.4351 21.2037 64.2737 20.671 64.945 19.9482C66.9314 23.854 67.9868 28.2005 67.9868 32.6093V38.5907H65.2101C65.179 38.4746 65.1467 38.3593 65.1037 38.2485ZM65.3407 63.8138V40.2474H68.8978C71.09 40.2474 72.8737 42.0312 72.8737 44.2233V59.8296C72.8737 62.0268 71.09 63.8137 68.8978 63.8137H65.3407V63.8138Z" fill="white"></path></g><defs><clipPath id="clip0_206_412"><rect width="80" height="80" fill="white"></rect></clipPath></defs></svg> 