<?xml version="1.0" encoding="UTF-8"?> <svg xmlns="http://www.w3.org/2000/svg" width="80" height="80" viewBox="0 0 80 80" fill="none"><path d="M69.2952 35.0097C64.1397 34.8439 55.2631 39.5217 48.7656 40.6895C48.9427 39.9879 48.9677 39.1608 49.0473 38.5518C49.7911 32.8641 51.0364 25.9251 48.8855 20.9308C48.3651 19.7222 46.8314 17.5077 45.164 17.5299C44.7193 17.3692 44.2661 17.2649 43.8273 17.2729C42.4385 17.3179 41.064 18.2531 40.2413 19.7143C38.2883 23.1776 39.8038 28.316 27.8814 42.3683C27.0791 43.3127 26.3821 44.3287 25.7499 45.3392C25.2191 42.6018 22.4692 42.0807 20.4213 43.4195C18.6158 43.0286 14.6202 42.9807 11.3993 43.7494C11.6658 42.9326 10.724 42.3157 10.0848 42.8351C6.89584 45.4032 5.38637 51.2579 5.15491 53.6899C4.51975 60.3761 5.82737 66.4436 9.27084 72.7842C9.78121 73.7242 11.326 73.0356 10.7032 71.8828C14.7756 72.3579 18.9786 71.5735 22.1635 70.105C22.9285 70.0912 23.6617 69.8919 24.2803 69.5121C25.7149 70.9008 29.126 72.3354 30.6251 73.021C34.7948 74.9283 38.9347 75.9083 43.4932 76.5003C50.9313 77.4662 59.4973 75.4223 65.3019 70.8615C66.5897 69.8497 67.8419 68.1154 68.5358 66.6325C68.991 65.6599 69.0828 64.9126 68.939 64.0795C69.044 62.5053 67.9072 61.2268 66.5472 60.405C68.0996 59.9311 69.4599 58.6173 70.5513 57.8969C73.8348 55.7335 74.1006 52.0384 71.9908 50.1187C72.7279 49.5079 73.3004 48.7133 73.6382 47.7091C74.1477 46.1921 73.6657 44.0007 72.3264 42.8155C75.6621 40.2918 73.6332 35.1626 69.2952 35.0097ZM9.84018 70.0703C9.8227 70.0672 9.80611 70.0736 9.78862 70.0717C5.16199 60.4027 6.20049 51.1868 9.49147 46.0659C9.56998 46.0584 9.64896 46.0512 9.72609 46.0208C12.6471 44.8489 16.1881 44.6729 18.9129 44.9238C17.6208 46.7457 15.1761 52.284 14.7284 56.7758C14.1017 63.0593 16.7802 67.7308 19.4512 69.3448C16.794 70.1975 13.321 70.7032 9.84018 70.0703ZM70.8584 43.8279C71.8172 44.3117 72.425 46.0307 72.041 47.1715C71.6285 48.3991 70.8409 49.1681 69.6342 49.5213C68.1124 49.9686 65.7325 50.3226 60.9975 51.4312C60.5445 51.5376 60.2626 51.9907 60.369 52.4437C60.4771 52.9049 60.9397 53.1771 61.3815 53.0723C67.0965 51.7287 68.3687 51.715 70.3496 51.0365C71.2072 51.4132 71.783 52.5327 71.6417 53.6054C71.498 54.6882 70.7619 55.7391 69.6232 56.4905C69.2568 56.7319 68.8762 57.0215 68.4845 57.321C66.3189 58.9727 66.5409 58.6171 64.1964 59.3361C63.2563 59.6236 62.2843 59.9208 61.252 60.0678C60.7913 60.1326 60.471 60.5593 60.5368 61.02C60.604 61.4968 61.0554 61.8056 61.489 61.7353C62.3761 61.6096 63.1955 61.3847 63.969 61.1564C64.0581 61.208 64.1563 61.2473 64.2644 61.2636C65.4826 61.4478 67.8651 63.0265 67.1265 64.4844C65.7212 67.2576 61.8104 69.3188 55.7769 70.452C50.6945 71.4053 49.9135 71.5501 45.2315 71.1574C36.3787 70.4125 29.7068 68.1077 24.8361 64.1103C24.0563 63.4735 22.9924 64.5091 23.6776 65.3032C23.8327 65.7079 24.2455 65.762 24.2416 66.5719C24.2343 68.1645 22.4494 68.7941 20.9407 68.2098C20.039 67.8609 19.1954 67.1226 18.4341 66.018C16.7809 63.6188 16.0602 60.3958 16.4046 56.9425C16.68 54.1803 17.6025 51.2239 19.3095 47.6389C19.7285 46.7558 20.1958 45.8409 20.8716 45.197C21.3883 44.7044 22.2319 44.2535 23.0371 44.4389C24.6658 44.8216 24.0396 47.0503 24.0922 48.2557C23.9387 48.5527 23.7744 48.8622 23.636 49.1396C23.3537 49.7041 23.771 50.3583 24.3886 50.3583C24.6979 50.3583 24.9963 50.1872 25.1433 49.8921C26.0988 47.9756 27.4196 45.5129 29.1649 43.4588C41.228 29.253 40.0649 23.4567 41.709 20.5414C43.0436 18.1737 45.7071 18.2432 46.8891 22.1732C48.4095 27.2199 46.4887 35.2242 44.6457 41.6339C44.5722 41.8884 44.6238 42.1632 44.7828 42.3744C44.943 42.5861 45.1503 42.7238 45.4586 42.709C53.6703 42.6762 63.2191 36.5235 69.236 36.6936C71.2747 36.7651 73.0167 38.7095 71.9949 40.7218C71.6987 41.3048 70.8771 41.8769 69.7395 42.291C66.5464 43.4525 64.9356 43.3164 61.5197 43.7489C61.0579 43.8076 60.7321 44.2294 60.7902 44.6912C60.8494 45.1531 61.2685 45.4789 61.7325 45.4207C64.737 45.0397 67.4546 45.0672 70.7184 43.7174C70.7646 43.755 70.8031 43.7999 70.8584 43.8279Z" fill="#E2EAFC"></path><path d="M12.5027 48.8619C11.1016 48.1137 9.41806 49.6464 10.2813 50.5381C10.3149 51.3579 10.9925 51.924 11.7842 51.9324H11.8017C13.5843 51.9324 13.9138 49.6099 12.5027 48.8619Z" fill="#E2EAFC"></path><path d="M64.5926 10.4391C64.2112 10.3481 63.8733 10.5172 63.6951 10.7901L60.1825 16.1566L53.7684 16.3047C53.0724 16.3214 52.6945 17.131 53.131 17.6749L57.1493 22.6755L55.3085 28.8203C55.1101 29.4818 55.7569 30.0995 56.4154 29.8499L62.4127 27.5736C68.2304 31.5299 67.7855 31.5209 68.4304 31.305C68.4321 31.3297 68.4321 31.353 68.4339 31.3778C69.4392 30.8992 70.2032 30.2385 70.1796 29.1864L70.0816 24.8159C71.2328 23.8677 72.4358 22.9066 73.6457 22.113C74.4302 21.5984 74.2776 20.8812 74.2413 19.9689C74.2302 19.6883 74.0923 19.3655 74.0799 19.0849C74.0644 19.1006 74.0487 19.1162 74.0333 19.1319C73.7312 18.5553 73.446 18.787 68.8704 17.448C66.8039 12.1842 67.0876 12.0333 66.6096 11.5988C66.0203 11.0632 65.3217 10.6515 64.5587 10.3593C64.5711 10.3861 64.5804 10.4123 64.5926 10.4391ZM67.3229 23.0106C67.1024 23.1785 66.9795 23.4445 66.9927 23.7215L67.2428 28.8664C62.8422 25.8846 62.8593 25.6034 62.2284 25.8409L57.4126 27.669L58.8913 22.7347C58.9703 22.4693 58.9144 22.1813 58.741 21.9652L55.5137 17.9502L60.6641 17.8312C60.9405 17.8246 61.1972 17.682 61.3497 17.45L64.1701 13.141L65.8748 18.0012C65.967 18.2628 66.182 18.463 66.4486 18.5354L71.419 19.8869L67.3229 23.0106Z" fill="#E2EAFC"></path><path d="M33.9247 10.3673C33.5704 10.6684 33.5265 11.1999 33.8271 11.5548L37.7796 16.2176C38.0762 16.5679 38.6059 16.6201 38.9676 16.3157C39.3219 16.0146 39.3658 15.4831 39.0652 15.1282L35.1128 10.4654C34.8122 10.11 34.2812 10.0672 33.9247 10.3673Z" fill="#E2EAFC"></path><path d="M43.0617 4C42.5966 4.00713 42.2247 4.38943 42.2313 4.85511L42.3563 13.3245C42.3629 13.7852 42.7392 14.1544 43.1988 14.1544H43.2109C43.676 14.1472 44.0479 13.7649 44.0413 13.2992L43.9163 4.82988C43.9097 4.36475 43.5345 4.02688 43.0617 4Z" fill="#E2EAFC"></path><path d="M51.9388 5.93172C50.8363 7.67649 49.9291 9.54632 49.2391 11.4891C49.0449 12.0362 49.45 12.6135 50.0333 12.6135C51.2053 12.6135 50.5684 11.2583 53.3627 6.83126C53.6117 6.43798 53.4944 5.91746 53.1005 5.66899C52.7067 5.42107 52.1878 5.53845 51.9388 5.93172Z" fill="#E2EAFC"></path></svg> 