<?xml version="1.0" encoding="UTF-8"?> <svg xmlns="http://www.w3.org/2000/svg" width="80" height="80" viewBox="0 0 80 80" fill="none"><g clip-path="url(#clip0_206_375)"><path d="M17.2681 24.9405H39.8913C40.3491 24.9405 40.7197 24.57 40.7197 24.1121C40.7197 23.6541 40.3492 23.2836 39.8913 23.2836H17.2681C16.8103 23.2836 16.4397 23.6541 16.4397 24.1121C16.4397 24.57 16.8102 24.9405 17.2681 24.9405Z" fill="white"></path><path d="M8.29523 31.4388H48.8641C49.322 31.4388 49.6926 31.0683 49.6926 30.6104C49.6926 30.1525 49.3221 29.7819 48.8641 29.7819H8.29523C7.83742 29.7819 7.4668 30.1524 7.4668 30.6104C7.46695 31.0683 7.83742 31.4388 8.29523 31.4388Z" fill="white"></path><path d="M8.29523 37.9371H48.8641C49.322 37.9371 49.6926 37.5666 49.6926 37.1087C49.6926 36.6507 49.3221 36.2802 48.8641 36.2802H8.29523C7.83742 36.2802 7.4668 36.6507 7.4668 37.1087C7.4668 37.5666 7.83742 37.9371 8.29523 37.9371Z" fill="white"></path><path d="M8.29523 44.4346H48.8641C49.322 44.4346 49.6926 44.0641 49.6926 43.6061C49.6926 43.1482 49.3221 42.7777 48.8641 42.7777H8.29523C7.83742 42.7777 7.4668 43.1482 7.4668 43.6061C7.4668 44.0641 7.83742 44.4346 8.29523 44.4346Z" fill="white"></path><path d="M8.29523 50.9329H48.8641C49.322 50.9329 49.6926 50.5624 49.6926 50.1044C49.6926 49.6466 49.3221 49.276 48.8641 49.276H8.29523C7.83742 49.276 7.4668 49.6465 7.4668 50.1044C7.46695 50.5624 7.83742 50.9329 8.29523 50.9329Z" fill="white"></path><path d="M49.6926 56.6029C49.6926 56.145 49.3221 55.7744 48.8641 55.7744H8.29523C7.83742 55.7744 7.4668 56.1449 7.4668 56.6029C7.4668 57.0607 7.83727 57.4313 8.29523 57.4313H48.8641C49.322 57.4311 49.6926 57.0607 49.6926 56.6029Z" fill="white"></path><path d="M29.4073 63.1003C29.4073 62.6425 29.0368 62.2719 28.5788 62.2719H8.29523C7.83742 62.2719 7.4668 62.6424 7.4668 63.1003C7.4668 63.5582 7.83727 63.9288 8.29523 63.9288H28.5788C29.0368 63.9286 29.4073 63.5582 29.4073 63.1003Z" fill="white"></path><path d="M46.1548 69.0097C46.04 69.0736 45.7503 69.0413 45.0239 68.5389C43.5515 67.5205 42.5986 67.785 42.059 68.1863C41.1969 68.8285 41.2665 69.9699 40.9783 70.2814C40.8253 70.4482 40.3481 70.3688 40.0358 70.1261C39.5601 69.7566 39.174 69.0786 38.6654 68.5122C37.825 67.5738 36.7595 67.1824 35.822 67.4638C35.034 67.7 34.4023 68.4046 34.0884 69.3964C33.904 69.9791 33.8147 70.7119 33.6314 71.1802C33.2301 72.2068 32.0233 72.8741 30.9376 72.6638C29.8553 72.4558 28.98 71.3889 28.9881 70.2855C28.9914 69.8285 28.6233 69.4547 28.1654 69.4514C28.1639 69.4514 28.1614 69.4514 28.1598 69.4514C27.7051 69.4514 27.3347 69.8186 27.3314 70.2741C27.3184 72.1686 28.7648 73.9338 30.6247 74.2905C32.467 74.6489 34.4783 73.5619 35.175 71.7836C35.4629 71.0464 35.4737 70.5071 35.6676 69.8963C35.8092 69.4489 36.0511 69.1246 36.2978 69.051C36.6375 68.9507 37.1115 69.2621 37.4328 69.6188C37.9336 70.1775 38.2981 70.8729 39.0183 71.4333C39.9211 72.1347 41.3578 72.3158 42.1975 71.4033C42.8531 70.6908 42.7884 69.7089 43.0486 69.5144C43.1408 69.453 43.4951 69.4966 44.0815 69.9011C44.5944 70.2563 45.7917 71.0863 46.9428 70.4674C47.3448 70.2497 47.4953 69.7474 47.2776 69.3446C47.0609 68.9425 46.5586 68.7928 46.1548 69.0097Z" fill="white"></path><path d="M50.7344 9.07611H46.0771C45.9377 7.15548 44.348 5.63079 42.3926 5.63079H34.748C34.3411 2.59079 31.7282 0.239075 28.5757 0.239075C25.4272 0.239075 22.8175 2.59064 22.4115 5.63079H14.766C12.8105 5.63079 11.2208 7.15564 11.0815 9.07611H6.42489C3.5838 9.07611 1.27271 11.3913 1.27271 14.2372V74.6084C1.27271 77.4495 3.58396 79.7606 6.42489 79.7606H50.7344C53.5755 79.7606 55.8866 77.4494 55.8866 74.6084V68.5622C55.971 68.535 56.3335 68.5359 56.5894 68.2913C57.3004 67.6114 77.3841 47.5038 77.4702 47.4174C79.1463 45.7403 79.1463 43.0119 77.4702 41.3356C75.7924 39.6586 73.0646 39.6603 71.3885 41.3356C67.5915 45.1327 63.0236 49.7005 55.8866 56.8375V14.2372C55.8866 11.3913 53.5755 9.07611 50.7344 9.07611ZM12.7113 9.3422C12.7113 8.20892 13.6327 7.28751 14.766 7.28751H23.1847C23.6425 7.28751 24.0132 6.91704 24.0132 6.45907C24.0132 3.94329 26.0599 1.89579 28.5757 1.89579C31.0955 1.89579 33.1463 3.94329 33.1463 6.45907C33.1463 6.91689 33.5168 7.28751 33.9747 7.28751H42.3927C43.526 7.28751 44.4474 8.20892 44.4474 9.3422V14.3658C44.4474 15.4991 43.526 16.4205 42.3927 16.4205H14.766C13.6327 16.4205 12.7113 15.4991 12.7113 14.3658C12.7113 13.5627 12.7113 9.16314 12.7113 9.3422ZM54.2299 74.6084C54.2299 76.5361 52.6621 78.1039 50.7344 78.1039H6.42489C4.49724 78.1039 2.92942 76.5361 2.92942 74.6084V14.2372C2.92942 12.3045 4.49724 10.7328 6.42489 10.7328H11.0546V14.3658C11.0546 16.4125 12.7194 18.0772 14.766 18.0772H42.3926C44.4393 18.0772 46.104 16.4124 46.104 14.3658V10.7328H50.7344C52.6621 10.7328 54.2299 12.3045 54.2299 14.2372V58.4941L50.5241 62.1999C50.4588 62.283 50.3365 62.4141 50.2952 62.6342L49.4611 67.1117C49.3993 67.445 49.4344 67.7808 49.5435 68.0914L49.3608 68.2742C49.038 68.5986 49.038 69.1228 49.3616 69.4464C49.6857 69.7689 50.2102 69.7692 50.5338 69.4456L50.7199 69.2594C51.0405 69.3694 51.3419 69.4013 51.6851 69.3389L54.23 68.8684L54.2299 74.6084ZM51.384 67.7097C51.2093 67.7425 51.058 67.5905 51.0904 67.4152L51.6365 64.4836L54.3197 67.1669L51.384 67.7097ZM76.299 42.5067C77.3255 43.5333 77.3296 45.2022 76.3111 46.2336L72.5722 42.4947C73.6027 41.4763 75.2716 41.4794 76.299 42.5067ZM71.4007 43.666C71.4846 43.7499 75.2707 47.5369 75.1388 47.4049L56.0193 66.5236L52.2811 62.7855L71.4007 43.666Z" fill="white"></path><path d="M28.5755 9.69491C30.36 9.69491 31.8113 8.24365 31.8113 6.45912C31.8113 4.67865 30.36 3.23053 28.5755 3.23053C26.7951 3.23053 25.3469 4.6785 25.3469 6.45912C25.3469 8.24365 26.7951 9.69491 28.5755 9.69491ZM28.5755 4.8874C29.446 4.8874 30.1546 5.59287 30.1546 6.45912C30.1546 7.32959 29.446 8.03819 28.5755 8.03819C27.7091 8.03819 27.0038 7.32959 27.0038 6.45912C27.0036 5.59272 27.7091 4.8874 28.5755 4.8874Z" fill="white"></path></g><defs><clipPath id="clip0_206_375"><rect width="80" height="80" fill="white"></rect></clipPath></defs></svg> 