<?xml version="1.0" encoding="UTF-8"?> <svg xmlns="http://www.w3.org/2000/svg" width="80" height="80" viewBox="0 0 80 80" fill="none"><path d="M2.3732 35.1752C2.20531 41.2946 3.06404 46.2816 6.79142 51.5969C10.4363 56.7947 15.6143 61.5463 21.8926 64.4377C21.2191 65.1282 20.5276 65.8233 19.8551 66.5136C19.5144 66.8633 19.5727 67.4567 19.9755 67.9035C23.1372 71.4115 23.7656 71.9591 23.6478 71.8455C23.969 72.1552 24.6306 72.0978 25.2065 71.8957C26.1214 72.4509 26.991 71.2575 26.2862 70.5385C24.682 68.9025 24.0546 68.4809 22.6936 67.1389C25.1086 63.6876 28.4909 60.9015 32.519 59.0541C32.9958 58.8346 33.7173 59.0794 34.163 59.6124C36.0648 61.8843 35.8664 62.0238 37.1674 63.6118C37.3662 63.8542 37.6396 64.1874 37.7878 64.4183C34.306 66.7046 32.4041 68.8836 29.9293 70.3811C29.5123 70.6338 29.379 71.1761 29.6318 71.5931C29.8845 72.009 30.4268 72.1423 30.8439 71.8907C32.1766 71.083 33.3163 70.1317 34.5238 69.123C35.8209 68.0396 37.164 66.9183 38.9838 65.7464C39.4434 65.45 39.5916 65.0605 39.6341 64.7859C39.8163 63.6272 38.4956 62.6356 37.7235 61.4289C37.1559 60.5442 36.4137 59.5516 35.5164 58.4796C34.5548 57.3319 32.9831 56.901 31.7825 57.4502C31.4429 57.6059 31.1165 57.7805 30.7856 57.9486C29.751 56.2063 29.0306 53.9659 28.0819 52.2365C27.0375 50.3826 25.3436 49.0438 24.6789 47.5754C23.8588 45.5905 24.4308 43.2973 23.6518 40.8774C22.5167 37.1029 18.5811 35.6045 17.1146 38.598C16.8331 39.2735 16.8262 39.9698 16.8434 40.6258C16.9166 43.2263 16.6552 46.0314 17.0909 49.173C14.7226 46.5495 12.3613 43.0405 12.4443 43.1602C11.1986 41.3643 10.9168 40.3481 9.99943 38.2814C9.33994 36.8007 9.34522 35.2359 8.63109 32.9144C8.328 32.1697 8.2013 29.9023 6.31032 29.6193C5.66234 29.5223 5.09019 29.6842 4.63983 30.0852C4.3577 30.3347 4.15391 30.6571 3.99896 31.0229C2.68099 32.002 2.41799 33.5453 2.3732 35.1752ZM6.04837 31.3645C6.57592 31.4421 6.72437 32.9393 6.96979 33.5055C7.58655 35.5232 7.6242 37.2845 8.38638 38.9989C9.27929 40.997 9.60799 42.1655 10.9898 44.1586C10.9932 44.1644 10.9978 44.1713 11.0024 44.177C13.754 48.1706 17.4627 52.9615 19.5192 53.1005C19.9902 53.1281 20.4153 52.7696 20.4521 52.2859C20.4889 51.8022 20.1224 51.3794 19.6387 51.3404C19.5564 51.3336 19.4474 51.288 19.3239 51.2208C18.286 47.9563 18.7026 44.0256 18.6081 40.5781C18.5868 39.7623 18.5685 38.9452 19.4365 38.7697C20.2975 38.6681 21.8747 39.9846 22.2237 42.5318C22.3453 43.3242 22.4885 46.5818 22.6316 46.8965C22.6706 47.2154 22.8755 47.8313 23.0589 48.2751C23.9152 50.171 25.5696 51.3643 26.539 53.0936C27.4456 54.7461 28.1227 56.9014 29.2371 58.7993C27.4225 59.8738 25.754 61.1315 24.2801 62.5674C19.6224 59.3538 14.1945 55.593 10.6394 51.2014C8.61153 48.7036 8.13444 47.1281 7.06515 44.0541C5.23163 38.7289 5.45902 35.3383 5.35789 34.3884C5.33801 33.6367 5.30627 31.257 6.04837 31.3645Z" fill="#1B395F"></path><path d="M34.5101 62.2836C34.8951 61.4991 34.5406 60.5512 33.6863 60.134C32.9889 59.241 30.9783 60.0381 31.2817 61.5942C31.5783 63.102 33.7911 63.7494 34.5101 62.2836Z" fill="#1B395F"></path><path d="M72.3244 57.3936C76.089 52.954 77.2653 48.572 77.6182 43.0944C77.7099 41.6708 77.6245 40.4086 76.6386 39.3826C76.1095 37.3884 74.0817 37.3006 73.1004 38.475C72.511 39.1815 72.3915 40.016 72.102 40.5935C71.3955 42.3269 71.1434 44.0016 70.474 45.1972C69.4869 46.9601 69.1569 47.8394 67.9005 49.3378C66.576 50.9173 65.0655 52.6233 63.4876 54.1078C63.7874 52.7224 63.9648 51.1818 64.0723 49.779H64.0689C64.111 49.5896 64.1711 48.2048 64.3423 46.7803C64.9302 41.7149 58.9586 42.0919 57.6661 47.6271C57.2565 49.2652 57.2996 50.9733 56.6171 52.2652C56.2334 52.943 55.6429 53.5152 55.019 54.1218C53.3213 55.7647 53.0714 56.2113 51.863 58.4382C51.3813 59.3269 50.8847 60.2304 50.3572 60.9719C50.0972 60.8094 49.8429 60.6404 49.5756 60.4867C48.5128 59.8755 47.0285 60.1409 46.0461 61.1151C45.1351 62.0228 44.409 62.827 43.8276 63.5738C43.0279 64.602 41.7564 65.3745 41.8262 66.477C41.8435 66.7447 41.9503 67.1319 42.3639 67.4547C44.8567 69.4061 47.1319 72.1331 49.1275 73.6105C49.5227 73.9001 50.073 73.815 50.3626 73.4256C50.6521 73.0326 50.5694 72.4812 50.1776 72.1905C48.1953 70.7271 46.5272 68.5271 43.7242 66.2817C44.1348 65.7909 44.6986 65.3285 45.2201 64.6583C45.7555 63.9701 46.4333 63.2199 47.2904 62.3663C47.7477 61.9136 48.3761 61.8309 48.6967 62.017C52.1031 63.9759 54.8685 66.7057 56.732 69.9421C55.3761 71.046 54.8159 71.3509 53.3037 72.6363C52.4915 73.3253 53.3841 74.6233 54.3264 74.0499C54.7978 74.243 55.3215 74.3195 55.6108 74.0877C56.8105 73.1265 58.1645 71.8381 59.2133 70.8698C59.6097 70.5039 59.7105 69.9789 59.435 69.6387C58.8913 68.9671 58.3309 68.2896 57.7864 67.6178C63.6296 65.5519 68.643 61.7349 72.3244 57.3936ZM51.8214 61.9609C52.9284 60.3921 53.7343 58.5133 54.6376 57.1675C55.9016 55.3466 57.708 54.5851 58.5703 52.1985C58.599 52.1193 58.6312 52.0274 58.63 52.0147C58.9201 51.1553 59.1269 49.0555 59.3814 48.0418C59.9597 45.5475 61.8639 44.417 62.4857 45.281C62.7908 45.6579 62.5774 46.1532 62.3272 49.5193H62.3295C62.3306 49.5205 62.3306 49.5205 62.3306 49.5205C62.2188 50.0225 62.2017 53.2929 61.1001 55.9409C61.0212 55.971 60.9311 56.0147 60.875 56.0175C60.8681 56.0175 60.8623 56.0175 60.8566 56.0175C60.3786 56.0175 59.9857 56.3989 59.9742 56.8792C59.9627 57.3663 60.3488 57.7707 60.8359 57.7822C63.17 57.8078 68.0101 51.865 69.2585 50.4637C70.3327 49.1827 70.8118 48.2865 71.4195 47.1514C72.3206 45.4715 72.4282 45.4497 73.0142 43.4244C73.6877 41.101 73.611 41.69 74 40.5947C74.1024 40.3054 74.3647 39.4966 74.6537 39.4814C75.3971 39.4385 74.8031 42.964 74.7628 43.3141C74.3062 46.5327 73.5188 48.4861 72.395 51.0864C71.161 53.8009 70.7202 54.6879 68.7552 56.762C65.3883 60.2067 60.4381 63.0488 55.8261 65.636C54.6548 64.2739 53.308 63.0454 51.8214 61.9609Z" fill="#1B395F"></path><path d="M47.5582 62.7282C45.9257 63.3721 46.3435 65.6062 47.9592 65.6062C48.7186 65.6062 49.5067 65.0697 49.7227 64.3355C50.148 62.9016 48.3322 61.9476 47.5582 62.7282Z" fill="#1B395F"></path><path d="M45.0737 22.7597C49.2139 21.7497 51.7954 17.6445 51.5953 13.7393C51.4333 10.581 48.6254 7.13143 45.3361 6.05031C42.2131 5.02338 37.938 6.98087 36.0117 9.13532C33.1996 12.2799 33.2452 16.7902 35.3997 19.8063C37.3961 22.6013 41.3426 24.2071 45.0737 22.7597ZM44.7846 7.72656C47.3949 8.58478 49.7076 11.38 49.8329 13.8301C49.9765 16.6368 48.3531 19.4275 45.8841 20.616C43.4151 21.8028 40.1557 21.2359 38.2991 19.2965C36.2506 17.1573 35.9473 13.4084 37.6063 10.7614C38.9619 8.59679 42.2469 6.89245 44.7846 7.72656Z" fill="#1B395F"></path><path d="M25.134 41.3067C25.1577 41.7694 25.5226 42.15 25.9798 42.226C36.9567 44.0491 47.4158 43.8153 58.6586 42.3629C59.1849 41.8367 59.333 41.5537 59.4169 41.1312C59.9185 40.728 59.7054 40.2192 59.7559 39.7801C59.7559 32.7426 55.5039 26.3576 49.1746 23.8915C49.1216 23.8707 48.8847 23.8334 48.7732 23.8441C48.7226 23.8488 48.5315 23.8968 48.5232 23.9002C48.5273 23.8911 48.5326 23.8827 48.5367 23.8736C45.8167 24.4922 46.9463 24.0994 42.466 29.9635C38.1144 23.9262 38.1595 23.8158 37.6716 23.7386C37.7287 23.7081 37.7831 23.6724 37.8405 23.6427C36.8046 23.5085 35.3883 23.8469 34.4515 24.342C30.686 26.3324 24.7359 33.528 25.134 41.3067ZM43.2256 32.183C44.0746 32.183 44.8467 31.7878 45.343 31.0985L49.1541 25.8065C54.4281 28.1615 57.9437 33.625 57.9912 39.6566C49.8754 40.4649 39.34 41.1341 28.1268 39.6819C28.1998 33.6072 31.8156 28.0943 37.2296 25.7005L41.1059 31.0956C41.9523 32.275 43.3434 32.2119 43.2256 32.183Z" fill="#1B395F"></path></svg> 