<?xml version="1.0" encoding="UTF-8"?> <svg xmlns="http://www.w3.org/2000/svg" width="80" height="80" viewBox="0 0 80 80" fill="none"><path d="M6.86312 57.0352L7.92998 59.3102C15.3078 59.9103 28.4734 60.1103 40.0529 60.1575C40.0098 71.2507 39.8391 72.4237 40.9704 73.9876C41.4853 74.9657 42.5503 75.6464 43.7916 75.6464H70.9609C72.7075 75.6464 74.1277 74.3162 74.1277 72.6814V57.477C74.1277 56.227 73.05 55.2103 71.7251 55.2103H70.151L70.1529 48.277C70.1529 47.1592 69.2454 46.25 68.065 46.25C67.4463 46.25 59.3519 47.0743 51.8672 46.7651C51.3354 45.9232 50.75 45.1248 50.0962 44.4082C46.8695 40.8755 43.6825 38.787 39.4423 37.4246C36.0851 36.3458 32.5299 36.0713 29.1544 36.6316C19.1058 38.3502 10.4384 44.8565 6.01551 55.3243C5.59952 56.0517 6.15372 56.955 6.86312 57.0352ZM72.4838 57.477V72.6814C72.4838 73.4097 71.801 74.0026 70.9609 74.0026H43.7916C42.9579 74.0026 42.2805 73.414 42.2805 72.6911C42.2805 66.3539 42.2805 60.6735 42.2805 53.5601C42.2805 53.2165 42.6208 52.9372 43.0393 52.9372C48.7434 53.0407 49.1107 52.6965 49.6703 53.2561L52.3105 55.8915C52.9237 56.5031 53.7895 56.8542 54.6874 56.8542H71.7251C72.136 56.8542 72.4838 57.1394 72.4838 57.477ZM68.1238 47.8912C68.3368 47.8912 68.5091 48.064 68.5091 48.277L68.5072 55.2103H54.6874C54.2219 55.2103 53.7788 55.0348 53.4727 54.7282L50.8314 52.0923C50.322 51.5845 49.6039 51.2934 48.8601 51.2934H45.8454V48.1582C45.8454 48.025 45.9427 47.9147 46.0712 47.8944C52.6315 48.9025 61.3302 48.4215 68.1238 47.8912ZM41.1785 39.8416C36.7683 45.0462 28.7138 45.0419 24.3301 39.643C30.1871 37.5402 35.2217 37.2501 41.1785 39.8416ZM22.7223 40.2614C27.7144 47.0003 37.5578 47.0055 42.6433 40.6689C42.6672 40.639 42.6747 40.603 42.6939 40.571C45.6114 42.1297 48.2916 44.6147 49.8042 46.6398C46.5529 46.3981 46.4759 46.2474 46.1129 46.2474C45.0588 46.2474 44.2015 47.1046 44.2015 48.1582V51.2934H43.0393C41.9711 51.2934 41.0744 51.9586 40.7627 52.8697C40.3729 53.2551 40.0542 53.5052 40.0575 53.9786C40.0638 54.9047 40.0553 55.8315 40.0555 56.7578C30.5256 56.8104 17.1435 56.6368 7.72891 55.4918C10.9191 48.2897 16.3715 42.9079 22.7223 40.2614Z" fill="#E2EAFC"></path><path d="M22.2858 22.492C22.2902 22.4935 22.2945 22.4928 22.2989 22.4942C23.6606 32.4398 31.4749 35.8295 37.3548 32.357C40.4819 30.5102 41.404 26.202 41.9747 22.9079C45.0362 22.436 45.1466 18.0821 43.3548 17.0755C44.9233 11.5865 42.2734 6.41346 37.8873 4.79936C35.0994 3.77464 31.557 4.5698 29.4048 6.64065C25.4391 5.52887 20.5761 9.1411 21.6061 16.51C20.4134 16.722 19.5251 17.8833 19.6874 19.4071C19.8393 20.8021 21.1546 22.0944 22.2858 22.492ZM26.0936 28.3637C24.6397 26.2737 23.8855 23.5253 23.7253 19.7941C27.7461 20.09 33.8899 17.2071 36.6095 13.5258C37.1957 16.0586 38.2291 18.4739 40.3373 19.9244C40.3443 19.9902 40.3662 20.0507 40.3888 20.113C40.2277 22.4474 39.9721 24.8907 39.0324 27.0912C38.0178 29.4697 36.2178 31.2366 34.2176 31.8178C31.0915 32.7269 27.7653 30.7668 26.0936 28.3637ZM23.1463 13.5387C23.3218 11.7546 24.0238 10.2264 25.1219 9.23536C26.3002 8.17212 28.0253 7.80611 29.3149 8.34709C29.6381 8.48194 30.0149 8.39632 30.2482 8.13359C31.8941 6.27411 34.9988 5.48965 37.3201 6.3426C41.9074 8.02935 43.4216 13.9347 41.0554 18.4108C38.9822 16.8282 38.2485 13.9046 37.7942 10.9263C37.6648 10.0734 36.447 9.95848 36.1931 10.8182C35.0276 14.7811 27.5878 18.6036 23.6018 18.1397C23.1686 16.3098 23.0171 14.86 23.1463 13.5387Z" fill="#E2EAFC"></path><path d="M47.5673 61.4143C47.5673 61.8681 47.9354 62.2362 48.3892 62.2362H65.8389C66.2927 62.2362 66.6608 61.8681 66.6608 61.4143C66.6608 60.9606 66.2927 60.5924 65.8389 60.5924H48.3892C47.9354 60.5924 47.5673 60.9606 47.5673 61.4143Z" fill="#E2EAFC"></path><path d="M62.9804 66.2563H50.9641C50.5104 66.2563 50.1422 66.6245 50.1422 67.0783C50.1422 67.532 50.5104 67.9002 50.9641 67.9002H62.9804C63.4342 67.9002 63.8023 67.532 63.8023 67.0783C63.8023 66.6245 63.4342 66.2563 62.9804 66.2563Z" fill="#E2EAFC"></path></svg> 