<?xml version="1.0" encoding="UTF-8"?> <svg xmlns="http://www.w3.org/2000/svg" width="80" height="80" viewBox="0 0 80 80" fill="none"><path d="M51.3123 13.7131C51.0435 12.0072 51.1924 12.609 50.6328 11.8728C50.5892 11.9289 50.6765 11.8167 50.6328 11.8728C50.26 11.2655 50.0642 11.4989 44.6503 10.5737C41.5127 4.70635 41.7872 4.40253 41.1682 3.95869C40.4129 3.41712 39.6763 3.25995 38.7524 3.02387C38.707 2.94832 38.7986 3.09956 38.7524 3.02387C38.3167 2.92342 37.9523 3.15301 37.794 3.46958L34.4141 10.2237L26.9344 11.2674C26.6107 11.3131 26.3417 11.5375 26.239 11.8478C26.1363 12.157 26.2189 12.4986 26.4511 12.7274L31.829 18.0293L30.5119 25.4666C30.3885 26.1631 31.1176 26.7062 31.7508 26.3774L38.4548 22.9005C44.5929 26.1351 45.2566 26.6514 45.6894 26.5428C45.6893 26.5425 45.6894 26.5432 45.6894 26.5428C45.7107 26.5375 45.7324 26.5287 45.7536 26.5204C45.7626 26.5122 45.7735 26.5059 45.7832 26.4983C45.7718 26.5003 45.7604 26.5022 45.7494 26.5044C46.8253 25.8255 47.8416 25.0621 47.6754 23.8661L46.9732 18.8128C48.18 17.5586 49.4452 16.2825 50.7409 15.1995C51.1794 14.833 51.4012 14.2776 51.3123 13.7131ZM43.6194 17.1821C43.4163 17.3775 43.3225 17.661 43.3683 17.94L44.3941 24.1216C38.7636 21.161 38.6678 20.8609 38.0652 21.1703L32.5032 24.0557L33.5959 17.8854C33.645 17.6074 33.5546 17.3239 33.3537 17.1252L28.8911 12.7263L35.0972 11.8601C35.3774 11.821 35.6196 11.6469 35.7457 11.3946L38.5496 5.79017L41.2922 11.4248C41.4161 11.6781 41.656 11.8556 41.9351 11.8969L48.1323 12.8334L43.6194 17.1821Z" fill="#1B395F"></path><path d="M75.7338 43.2796C76.076 42.9935 76.249 42.5602 76.1796 42.1197C75.9731 40.8098 76.0622 40.5867 75.9048 40.6095C75.7833 40.3546 75.55 40.1688 75.2662 40.1266L70.7969 39.4518C68.4703 35.0701 68.6791 34.8722 68.2098 34.5358C67.6597 34.1414 66.6319 33.3459 66.2949 33.5779C65.9257 33.5493 65.5977 33.7709 65.4626 34.0421L62.8697 39.2236L57.1313 40.025C56.43 40.1241 56.1413 40.9857 56.6479 41.485L60.7745 45.5536L59.7644 51.2585C59.6398 51.962 60.3789 52.4959 61.0034 52.1693L66.1457 49.5016C71.627 52.3804 71.4618 52.5116 72.0377 52.2289C72.0415 52.2495 72.0437 52.269 72.0477 52.2896C72.9101 51.7488 73.528 51.0709 73.3964 50.1239L72.8444 46.1513C72.8405 46.1229 72.8321 46.0928 72.8276 46.0642C73.7592 45.0967 74.7347 44.1146 75.7338 43.2796ZM66.1513 47.6755C65.7773 47.6755 65.9382 47.7153 61.7557 49.8476L62.5415 45.4084C62.5906 45.1305 62.5002 44.8459 62.2993 44.6483L59.088 41.4828L63.5528 40.8599C63.8329 40.8209 64.0752 40.6467 64.2013 40.3945L66.2183 36.3627L68.1917 40.4168C68.3156 40.6702 68.5556 40.8476 68.8347 40.8889L73.2928 41.562L70.0469 44.6907C69.8437 44.8872 69.7499 45.1696 69.7957 45.4486L70.5335 49.8967C66.4004 47.7334 66.5324 47.6755 66.1513 47.6755Z" fill="#1B395F"></path><path d="M12.0957 28.0068L9.50272 33.1882L3.76432 33.9897C3.06309 34.0888 2.77437 34.9503 3.281 35.4497L7.40761 39.5171L6.39633 45.222C6.27206 45.9238 7.00961 46.4601 7.63531 46.1329L12.7788 43.4651C18.1772 46.3004 17.9114 46.2902 18.2962 46.2902C18.4725 46.2902 18.6478 46.2355 18.7962 46.1295C18.8008 46.1262 18.8038 46.1213 18.8083 46.1179C18.8981 46.1236 18.9607 46.164 19.1404 45.9959C19.5587 45.6046 20.0534 44.5734 19.9746 44.0061L19.4267 40.0631C20.3683 39.0845 21.3555 38.0887 22.3666 37.2436C22.7087 36.9577 22.8818 36.5244 22.8124 36.0838C22.7714 35.8233 22.715 35.0166 22.6637 34.6888C22.6414 34.547 22.5876 34.5677 22.5368 34.5719C22.415 34.3181 22.1822 34.1333 21.8993 34.0913L17.5046 33.427C15.1277 28.9551 15.3689 28.8109 14.8972 28.4726C14.3303 28.0661 13.5364 27.6923 12.8041 27.5059C12.8109 27.5169 12.8165 27.528 12.8232 27.5391C12.5143 27.5535 12.2348 27.7287 12.0957 28.0068ZM16.6788 38.6554C16.4756 38.8507 16.3819 39.1343 16.4276 39.4133L17.1666 43.8592C13.1418 41.7536 12.9791 41.4321 12.3892 41.735L8.38763 43.8112L9.17456 39.372C9.22367 39.0941 9.13326 38.8094 8.93234 38.6119L5.72214 35.4474L10.1858 34.8246C10.466 34.7855 10.7082 34.6114 10.8344 34.3591L12.8513 30.3274L14.8237 34.3803C14.9476 34.6337 15.1875 34.8112 15.4666 34.8525L19.9258 35.5267L16.6788 38.6554Z" fill="#1B395F"></path><path d="M3.80102 50.0944C3.35119 50.1323 3.00851 50.5118 3.01633 50.9628C3.44422 76.0779 2.60509 76.1603 3.26189 76.8308C3.69345 77.2683 74.4067 77.1306 74.5288 77.0932L74.5284 77.1724L76.2556 76.5283C76.6708 76.3734 76.947 75.9779 76.9493 75.5347L77.0245 60.7476C77.0264 60.3877 76.8465 60.0512 76.5463 59.8527L74.6104 58.573L74.6103 58.6065C74.5175 58.5677 74.4178 58.5412 74.3116 58.5373C65.6349 58.2346 58.8439 58.1959 53.2043 58.4242V34.9957C52.9493 34.7407 50.9517 32.7431 51.0677 32.8591L51.0673 32.8972C50.9587 32.8316 50.8401 32.7814 50.7061 32.7698C40.7541 31.8902 33.2632 31.8913 27.1286 32.7753C26.7033 32.8367 26.3885 33.2051 26.3941 33.6348C26.4705 39.2208 26.5008 44.711 26.5061 50.0547C16.9835 49.5754 9.73957 49.5852 3.80102 50.0944ZM73.4443 60.2239C73.566 65.3004 73.566 70.407 73.4454 75.4277H53.2043V60.1444C58.6435 59.9207 65.1567 59.9449 73.4443 60.2239ZM49.7886 34.4117C50.0795 49.066 49.5803 62.7295 49.7596 75.373H28.1163C28.2332 68.2965 28.2805 46.8696 28.1186 34.3704C33.8213 33.6304 40.7529 33.6449 49.7886 34.4117ZM24.2203 51.6637V75.373H4.74533C4.87257 67.7047 4.87146 59.7618 4.74421 51.7374C9.98172 51.3373 16.2631 51.3153 24.2203 51.6637Z" fill="#1B395F"></path><path d="M34.7903 58.9792C34.9049 58.9792 43.1979 58.8211 43.0825 58.8151C44.1727 58.792 44.2423 57.1586 43.0491 57.1006L40.0721 57.1596V44.2754C40.0721 43.5463 39.2142 43.1471 38.6546 43.6258L34.4755 47.2311C34.1172 47.5414 34.077 48.0828 34.3862 48.4411C34.6965 48.7994 35.239 48.8385 35.5962 48.5304L38.3576 46.1473V57.1936L34.7735 57.2647C34.3002 57.2747 33.9241 57.6654 33.933 58.1387C33.9419 58.6064 34.3248 58.9792 34.7903 58.9792Z" fill="#1B395F"></path></svg> 