<?xml version="1.0" encoding="UTF-8"?> <svg xmlns="http://www.w3.org/2000/svg" width="80" height="80" viewBox="0 0 80 80" fill="none"><path d="M54.9203 5.16571C54.5232 4.95167 54.0224 5.10257 53.8073 5.50069L51.1012 10.5349C50.8041 11.0879 51.2118 11.7464 51.8247 11.7464C52.1174 11.7464 52.401 11.5902 52.5492 11.314L55.2552 6.2798C55.4704 5.87954 55.32 5.38083 54.9203 5.16571Z" fill="#E2EAFC"></path><path d="M55.533 14.4552L59.1535 11.6073C59.5098 11.3259 59.5719 10.81 59.291 10.4526C59.0101 10.0973 58.4937 10.0363 58.1368 10.3145L54.5163 13.1624C54.1599 13.4438 54.0978 13.9597 54.3787 14.3171C54.6586 14.6718 55.1724 14.7365 55.533 14.4552Z" fill="#E2EAFC"></path><path d="M56.0772 19.1576L59.863 18.5272C60.3109 18.4523 60.6132 18.0285 60.5389 17.5812C60.4645 17.1328 60.0353 16.8299 59.5933 16.9048L55.8075 17.5352C55.3596 17.6101 55.0573 18.0328 55.1316 18.4812C55.207 18.9344 55.635 19.2304 56.0772 19.1576Z" fill="#E2EAFC"></path><path d="M72.9853 37.9375C72.8855 37.8248 72.7587 37.7591 72.6254 37.7151C73.357 35.7444 72.7633 33.3604 71.417 31.8994C69.6216 29.9504 65.8733 29.3879 63.9009 31.4628L51.9482 44.0247C52.0513 35.5322 52.0345 33.4022 52.1508 24.208C52.1739 22.3878 52.1883 20.5164 51.5418 18.8161C50.9259 17.1963 49.8645 16.2155 48.5869 15.7123C47.9616 15.3743 47.2571 15.1646 46.4977 15.1646H37.9923C37.9677 14.9928 38.1776 13.5515 37.1693 12.5597C36.7931 12.1894 36.3474 11.9957 35.8315 11.9979L31.6406 12.0674V9.72154C31.6406 8.1066 29.9347 6.79346 27.8382 6.79346H27.1286C25.0032 6.79346 23.338 8.07984 23.338 9.72154V12.2134L18.8238 12.2932C17.6584 12.3125 16.7316 13.4908 16.7139 14.9762L16.712 15.1646H9.74101C7.29077 15.1646 5.29751 17.152 5.29751 19.5953C5.45585 71.8752 4.92646 69.4517 5.71155 71.1526C5.91335 72.3095 6.52725 73.3237 7.88681 73.9481C9.113 74.5112 10.5061 74.5492 11.8551 74.5776C22.3558 74.7982 32.7945 74.7829 43.4184 74.9292C45.453 74.9573 47.4741 74.7468 49.344 73.7064C51.6732 72.4104 52.0562 70.0705 52.2556 67.6793C52.4764 65.0318 52.3766 62.3744 52.2177 59.7249C56.2358 55.4955 71.2145 39.787 71.8086 39.0985C72.2794 39.6433 72.6716 40.2651 72.9495 40.933C70.9119 42.8486 68.8229 45.0917 66.8086 46.9476C66.4742 47.2547 66.4528 47.7748 66.7605 48.1087C67.0668 48.4423 67.5876 48.4649 67.9217 48.1569C70.0913 46.16 72.3079 43.7551 74.467 41.7656C74.7041 41.5473 74.7918 41.2113 74.6912 40.9041C74.3349 39.8179 73.7447 38.7915 72.9853 37.9375ZM46.8714 62.959C45.5671 60.7086 43.8193 58.6969 41.7442 57.133L58.1383 39.9032C60.5074 41.0325 62.4984 42.912 63.7533 45.2163C57.3851 51.9093 53.0658 56.4488 46.8714 62.959ZM39.002 64.9848C39.032 64.8521 39.086 64.728 39.1642 64.6263C39.222 64.6691 39.2781 64.714 39.3327 64.7611L39.002 64.9848ZM41.2463 64.4711C40.7919 63.7827 40.1427 63.2329 39.4025 62.8693C39.8518 61.4004 40.3443 59.8908 40.8959 58.5647C42.741 59.9865 44.3006 61.7886 45.4655 63.8068C43.8978 64.2248 42.6635 64.5855 41.3677 64.9285C41.3689 64.771 41.3398 64.6122 41.2463 64.4711ZM18.8517 13.9371L23.338 13.8577V15.3273C23.338 15.781 23.7061 16.1492 24.1599 16.1492C24.6137 16.1492 24.9818 15.781 24.9818 15.3273V9.72154C24.9818 9.11366 25.8637 8.43729 27.1286 8.43729H27.8382C29.0737 8.43729 29.9968 9.1158 29.9968 9.72154V15.2684C29.9968 15.7222 30.3649 16.0903 30.8187 16.0903C31.2725 16.0903 31.6406 15.7222 31.6406 15.2684V13.7117L35.8588 13.6417C35.9177 13.6417 35.9889 13.7038 36.0167 13.7316C36.1697 13.8825 36.3485 14.2325 36.3485 14.7247V19.2185C36.3485 19.7203 36.1491 20.0964 35.9859 20.2354C35.9413 20.2731 35.898 20.3011 35.8658 20.3016C28.493 20.4291 18.634 20.597 18.7896 20.597C18.7372 20.597 18.6162 20.5081 18.4985 20.2898C18.1637 19.7044 18.3758 19.2736 18.3578 14.9944C18.3653 14.3534 18.6858 13.9392 18.8517 13.9371ZM6.94135 19.5953C6.94135 18.0584 8.19724 16.8084 9.74101 16.8084H16.6948L16.6668 19.4904C16.6668 20.5491 17.1355 21.6396 18.0883 22.0704C19.5622 23.3472 21.7434 22.9629 33.1977 22.951C34.325 22.9499 35.506 22.9357 36.4967 22.3979C38.0332 21.5639 38.7071 19.6367 38.5657 17.8942C38.5358 17.5257 38.4628 17.166 38.3804 16.8084H46.4977C48.0346 16.8084 49.2846 18.0584 49.2846 19.5953L49.2862 46.8224C39.5219 57.1035 40.0165 56.5175 39.9085 56.7303C38.5745 59.4164 37.5862 63.3919 36.769 65.8003C36.4936 66.6129 37.1697 67.4352 38.0249 67.3179C40.8447 66.9218 43.4559 66.0026 46.9018 65.1282C47.3008 65.0288 47.2758 64.8622 49.2331 62.8618C49.1849 65.3466 49.145 65.2672 49.0513 66.7111C48.9796 67.8134 48.9052 68.9531 48.5563 69.927C48.1769 70.9887 47.3962 72.2344 45.8893 72.107C45.5271 72.076 45.1568 72.0824 44.7897 72.092L9.74101 72.0985C8.19724 72.0985 6.94135 70.8485 6.94135 69.3116V19.5953ZM70.4896 38.1366L64.9291 43.9806C63.5925 41.7339 61.6339 39.8778 59.3185 38.6628L65.092 32.595C66.2914 31.335 68.939 31.6355 70.2076 33.0124C71.4079 34.3149 71.8188 36.7389 70.4896 38.1366Z" fill="#E2EAFC"></path><path d="M28.5547 12.044C29.1018 11.0174 28.1524 9.72386 27.1415 9.91855C26.0624 9.95281 25.419 11.3582 26.1141 12.2537C26.3889 12.6073 28.0746 12.9472 28.5547 12.044Z" fill="#E2EAFC"></path><path d="M13.9346 32.4656H38.9576C39.4114 32.4656 39.7795 32.0975 39.7795 31.6437C39.7795 31.1899 39.4114 30.8218 38.9576 30.8218H13.9346C13.4809 30.8218 13.1127 31.1899 13.1127 31.6437C13.1127 32.0975 13.4809 32.4656 13.9346 32.4656Z" fill="#E2EAFC"></path><path d="M13.9346 45.1807H38.0025C38.4562 45.1807 38.8244 44.8126 38.8244 44.3588C38.8244 43.905 38.4562 43.5369 38.0025 43.5369H13.9346C13.4809 43.5369 13.1127 43.905 13.1127 44.3588C13.1127 44.8126 13.4809 45.1807 13.9346 45.1807Z" fill="#E2EAFC"></path><path d="M13.491 59.3738H29.6174C30.0712 59.3738 30.4393 59.0057 30.4393 58.5519C30.4393 58.0981 30.0712 57.73 29.6174 57.73H13.491C13.0372 57.73 12.6691 58.0981 12.6691 58.5519C12.6691 59.0057 13.0372 59.3738 13.491 59.3738Z" fill="#E2EAFC"></path></svg> 