<?xml version="1.0" encoding="UTF-8"?> <svg xmlns="http://www.w3.org/2000/svg" width="80" height="80" viewBox="0 0 80 80" fill="none"><path d="M47.8956 26.0378L38.3874 35.5457C35.2831 34.1594 30.6898 36.1074 31.4384 40.7432C31.5857 41.655 32.0293 42.4902 32.6541 43.1646H23.0676C22.6139 43.1646 22.2457 43.5328 22.2457 43.9865C22.2457 44.4403 22.6139 44.8085 23.0676 44.8085H53.2244C53.6782 44.8085 54.0463 44.4403 54.0463 43.9865C54.0463 43.5328 53.6782 43.1646 53.2244 43.1646H39.7759C41.6996 41.0171 41.2912 38.0697 39.759 36.4985L49.0098 27.2481C49.463 27.7683 49.9198 28.2863 50.3349 28.8346C50.7233 29.349 51.5271 29.2341 51.7577 28.6344C52.3671 27.0482 53.0114 24.7382 53.6011 23.2085C53.806 22.6737 53.416 22.1003 52.8456 22.0912C50.3288 22.0498 49.1536 22.7621 46.8406 23.1753C46.1687 23.2964 45.9281 24.1393 46.4366 24.5955C46.9451 25.0521 47.4187 25.547 47.8956 26.0378Z" fill="#E2EAFC"></path><path d="M56.7628 13.4393C51.3849 9.53352 44.778 7.22168 37.6379 7.22168C21.4446 7.22168 7.97486 19.0836 5.4465 34.5737C5.42188 34.6268 5.39727 34.6799 5.37265 34.733L5.43586 34.6333C5.33071 35.2855 5.24189 35.9429 5.17607 36.6073C4.16031 40.818 4.46458 45.3467 5.21226 49.6678C6.4343 56.7305 11.0324 63.9512 16.6006 68.4568C22.1689 72.9624 27.6436 74.707 34.7927 75.0922C45.548 75.6718 56.5302 71.2343 63.6471 63.1402C70.7641 55.046 73.7637 43.4204 71.1636 32.9557C69.1618 24.8989 63.813 17.7537 56.7628 13.4393ZM37.6379 8.86552C54.7206 8.86552 68.6182 22.7632 68.6182 39.8458C68.6182 56.9274 54.7206 70.8251 37.6379 70.8251C20.5559 70.8251 6.65817 56.9274 6.65817 39.8458C6.65817 22.7632 20.5559 8.86552 37.6379 8.86552Z" fill="#E2EAFC"></path><path d="M17.464 30.1209C23.3475 21.7015 34.5236 17.0729 44.636 18.8527C45.078 18.9329 45.5098 18.6343 45.5885 18.1859C45.6672 17.7396 45.3686 17.3126 44.9218 17.2345C34.0276 15.3103 22.4533 20.1134 16.1166 29.1791C15.8566 29.5515 15.9476 30.0641 16.3194 30.3231C16.6902 30.5832 17.2035 30.4938 17.464 30.1209Z" fill="#E2EAFC"></path><path d="M46.8717 51.9263L40.208 51.6341L36.6705 45.9802C36.5046 45.7148 36.206 45.5575 35.8914 45.5982C35.5799 45.6292 35.3135 45.8347 35.2038 46.1279L32.867 52.3758L26.396 53.9918C26.0926 54.0678 25.8582 54.3086 25.7918 54.6146C25.7255 54.9207 25.8384 55.2375 26.0835 55.4323L31.3029 59.5857L30.8411 66.2403C30.808 66.7093 31.1783 67.1189 31.6608 67.1189C32.1044 67.1189 31.8082 67.1261 37.677 63.3015L43.8628 65.7972C44.1517 65.9139 44.4835 65.8561 44.7179 65.6485C44.9512 65.4398 45.0459 65.1176 44.9624 64.8158L43.1805 58.3871L47.4656 53.2747C47.6668 53.035 47.7139 52.7022 47.5882 52.4164C47.4619 52.1296 47.1842 51.9402 46.8717 51.9263ZM41.6432 57.6626C41.4693 57.8691 41.4088 58.1495 41.481 58.4096L42.9333 63.6504L37.8916 61.6159C37.6395 61.5132 37.3554 61.5421 37.1301 61.693L32.5962 64.6928L32.9724 59.2679C32.9911 58.9982 32.8761 58.736 32.6642 58.568L28.4101 55.1829L33.6846 53.8655C33.9473 53.8002 34.1608 53.6097 34.2556 53.3561L36.16 48.264L39.0437 52.8723C39.1871 53.1024 39.4343 53.2459 39.7045 53.2576L45.1358 53.4952L41.6432 57.6626Z" fill="#E2EAFC"></path><path d="M59.3374 11.2725L62.8541 6.14301C63.1104 5.76951 63.0152 5.25795 62.6411 5.0011C62.2676 4.74532 61.7556 4.8395 61.4982 5.21407L57.9815 10.3436C57.7246 10.7181 57.8204 11.2297 58.1944 11.4855C58.5728 11.7444 59.082 11.6445 59.3374 11.2725Z" fill="#E2EAFC"></path><path d="M68.8205 8.28227C68.5069 7.95479 67.9874 7.94088 67.6583 8.25445L62.5764 13.1035C62.2478 13.4171 62.2355 13.9372 62.5491 14.2658C62.8624 14.5947 63.3839 14.6062 63.7108 14.2936L68.7938 9.44452C69.1218 9.13095 69.1341 8.61083 68.8205 8.28227Z" fill="#E2EAFC"></path><path d="M74.2593 13.9126L66.572 18.0768C66.1734 18.293 66.0246 18.7917 66.2408 19.1909C66.4552 19.5857 66.9518 19.7398 67.3554 19.5216L75.0427 15.3574C75.4414 15.1412 75.5901 14.6425 75.3739 14.2433C75.1572 13.8452 74.659 13.6954 74.2593 13.9126Z" fill="#E2EAFC"></path></svg> 