<?xml version="1.0" encoding="UTF-8"?> <svg xmlns="http://www.w3.org/2000/svg" width="80" height="80" viewBox="0 0 80 80" fill="none"><path d="M16.9422 63.4947C17.6796 64.5996 25.1782 65.3453 26.2139 65.4692C36.5356 66.7036 45.4835 66.6255 57.2932 69.2904C57.4861 69.3351 57.6482 69.3051 57.825 69.2205C60.6445 69.126 60.6919 67.5916 61.3096 64.742C64.8251 48.5262 69.7619 32.562 75.4734 16.9835C75.101 16.0609 74.5701 15.206 73.9242 14.4494C74.177 13.8877 73.8106 13.3663 73.2987 13.3031C57.9622 11.3945 47.1984 10.7466 33.9916 10.6902C31.6542 10.7186 31.4506 10.57 31.1101 11.0373C30.9926 11.1468 30.8959 11.2803 30.8586 11.449C30.1398 14.672 23.1829 33.1437 22.9345 35.2352C22.7763 35.9162 22.6262 36.6049 22.4753 37.2931L7.72931 40.6249C5.4455 41.1407 4.2565 43.6739 4.57863 45.7159C4.92785 47.933 7.27024 49.8951 9.47589 49.3931L20.4099 46.9227C18.2481 56.8369 16.201 62.3958 16.9422 63.4947ZM37.7175 37.2177C37.7791 38.041 38.0452 38.8953 38.2405 39.7206C37.3889 40.4079 36.5149 41.0712 35.6868 41.6028C35.4475 41.4492 35.0808 41.0735 34.897 40.7319C34.7697 40.4959 34.8114 39.8255 34.9682 39.5745C35.1362 39.3059 35.1351 38.9645 34.965 38.6969C34.7788 38.4048 34.7001 38.0404 34.7493 37.6974C34.8089 37.2786 35.0722 36.6645 35.2605 36.4009C35.7176 36.5563 35.937 36.6295 37.7175 37.2177ZM12.2224 47.0876C12.1494 47.0302 12.0702 46.9785 11.977 46.9477C11.4721 46.782 11.0345 45.6678 10.8767 45.0956C13.5062 45.043 33.025 40.2693 33.1866 40.2313C33.1783 41.1089 33.4034 41.5602 33.9221 42.1847C25.8803 44.0017 20.4648 45.2253 12.2224 47.0876ZM33.1796 38.5431C25.9844 40.2278 17.9325 42.3501 10.7366 43.4626C10.7003 43.4682 10.6718 43.489 10.6375 43.499C10.6174 42.7818 10.7276 42.0918 11.0111 41.5685L33.3816 36.5144C33.0668 37.3715 33.0341 37.8524 33.1796 38.5431ZM35.9667 43.3705C38.179 42.0985 40.6456 39.7812 42.2541 38.6001C42.4837 38.4315 42.6095 38.1565 42.587 37.8729C42.5645 37.5887 42.397 37.3372 42.1439 37.2067C39.9962 36.1023 37.8417 35.5778 35.0345 34.5852C34.6263 34.4416 35.0391 34.5004 24.2492 36.8924C24.6412 35.1256 24.5217 35.6735 24.5431 35.4992C25.1979 32.6186 31.3112 16.1052 32.3292 12.3356C46.0612 12.3973 55.8345 12.823 72.0679 14.8078C71.6958 15.9402 71.5119 16.5508 71.3316 17.1264C67.5085 29.4626 59.268 55.1175 56.8427 67.5063C53.1387 66.6967 49.5733 66.0947 46.4836 65.7587C35.4656 64.5588 22.7822 63.9014 18.418 62.5138C18.6414 60.5234 20.7808 53.0265 22.1806 46.5227C36.6701 43.2355 35.7686 43.4837 35.9667 43.3705Z" fill="#E2EAFC"></path><path d="M55.7152 36.6245C52.9578 37.1708 50.2577 38.2421 47.8668 39.735L44.5759 36.7754C44.2394 36.4725 43.7192 36.5003 43.4153 36.8369C43.1119 37.1746 43.1392 37.6942 43.4768 37.9976L47.2343 41.3767C47.5117 41.6264 47.9238 41.6585 48.2387 41.4506C50.5814 39.8945 53.2773 38.7836 56.0341 38.2373C56.4798 38.149 56.7693 37.7166 56.681 37.2714C56.5933 36.8257 56.1582 36.5357 55.7152 36.6245Z" fill="#E2EAFC"></path><path d="M57.1209 22.4854C57.5083 22.4854 57.8535 22.2099 57.9278 21.815C58.0113 21.3687 57.7175 20.9395 57.2713 20.8555C50.3813 19.5643 43.3383 18.7552 36.3375 18.4508C35.8618 18.4192 35.5001 18.7836 35.4803 19.2363C35.461 19.6901 35.8126 20.0737 36.2658 20.0935C43.1895 20.3943 50.1544 21.1942 56.9684 22.4715C57.0198 22.4812 57.0706 22.4854 57.1209 22.4854Z" fill="#E2EAFC"></path><path d="M45.743 29.2861C46.108 29.2861 46.4408 29.0416 46.5376 28.6724C46.6527 28.233 46.39 27.7841 45.9506 27.669C43.2971 26.975 40.5621 26.678 37.8171 26.7845C37.3633 26.8027 37.0101 27.1848 37.0278 27.638C37.046 28.0912 37.4393 28.4578 37.8813 28.4273C40.4669 28.3288 43.037 28.606 45.5343 29.2594C45.6039 29.2776 45.674 29.2861 45.743 29.2861Z" fill="#E2EAFC"></path><path d="M28.8289 50.6688C38.8304 51.9683 43.0056 53.4797 43.6839 53.4797C44.6501 53.4797 44.817 52.0963 43.8841 51.8605C39.02 50.6362 34.0259 49.6864 29.0408 49.0389C28.5924 48.9795 28.1783 49.2973 28.1199 49.7479C28.0611 50.1979 28.3789 50.6105 28.8289 50.6688Z" fill="#E2EAFC"></path><path d="M48.3495 54.0239C46.8336 54.9378 45.7955 56.9188 47.0974 59.1084C48.1471 60.8737 50.6226 61.5317 52.3938 60.5136C54.1813 59.4877 54.8408 56.9664 53.7664 55.2097C52.4746 53.0971 50.011 53.0216 48.3495 54.0239Z" fill="#E2EAFC"></path></svg> 