<?xml version="1.0" encoding="UTF-8"?> <svg xmlns="http://www.w3.org/2000/svg" width="48" height="48" viewBox="0 0 48 48" fill="none"><g clip-path="url(#clip0_201_998)"><path d="M47 17.5055C47 13.5944 38.8889 11.7932 35.2053 11.176C35.1297 10.7794 35.0264 10.3885 34.8963 10.0063C32.4417 3.35742 29.8183 1 28.3125 1C27.1445 1 26.2856 2.03339 25.5273 2.94119C25.0314 3.54042 24.4133 4.28316 24 4.28316C23.5867 4.28316 22.9686 3.54042 22.4727 2.94478C21.7144 2.03339 20.8519 1 19.6875 1C18.002 1 15.375 4.69221 13.2655 9.9704C13.1257 10.3495 13.0128 10.738 12.9277 11.133C9.29797 11.7394 1 13.5406 1 17.5055C1 20.3761 5.80484 23.0349 12.6438 24.4737C12.6869 24.9832 12.7264 25.4497 12.7623 25.8731C8.86672 27.8861 2.50578 32.1775 2.22906 32.3677C2.11534 32.4423 2.02517 32.5476 1.96902 32.6713C1.91287 32.7951 1.89305 32.9322 1.91187 33.0667C1.93069 33.2013 1.98738 33.3277 2.07534 33.4314C2.16329 33.535 2.27891 33.6116 2.40875 33.6522L4.32062 34.2658C2.07812 35.6975 1 37.6243 1 40.1109V46.2108C1 46.4011 1.07573 46.5837 1.21052 46.7182C1.34531 46.8528 1.52813 46.9284 1.71875 46.9284C1.90937 46.9284 2.09219 46.8528 2.22698 46.7182C2.36177 46.5837 2.4375 46.4011 2.4375 46.2108V40.1109C2.4375 37.7392 3.60188 36.1065 6.19656 34.8471L6.60625 34.9727C7.46219 35.2207 8.29536 35.5412 9.09672 35.9307L6.03125 38.0585C5.94885 38.1157 5.87936 38.1895 5.82726 38.2751C5.77515 38.3608 5.74159 38.4564 5.72872 38.5557C5.71586 38.6551 5.72398 38.7561 5.75256 38.8521C5.78115 38.9482 5.82956 39.0372 5.89469 39.1134L12.3275 46.6773C12.4578 46.7921 12.6254 46.8559 12.7992 46.8568C12.973 46.8578 13.1413 46.7958 13.2728 46.6824C13.4044 46.569 13.4903 46.4119 13.5147 46.24C13.5392 46.0682 13.5004 45.8934 13.4056 45.7479L7.49031 38.7869L10.7966 36.5048C10.8813 36.4466 10.9525 36.3709 11.0055 36.2829C11.0584 36.1948 11.0918 36.0964 11.1034 35.9944C11.1149 35.8924 11.1045 35.789 11.0726 35.6914C11.0408 35.5937 10.9883 35.504 10.9187 35.4284C10.7822 35.2813 9.95922 34.4955 7.02672 33.5984C6.16062 33.3329 5.10406 32.9992 4.26672 32.7301C6.22891 31.4348 10.1173 28.9195 12.9133 27.4124C13.1936 30.0354 13.3697 30.2399 13.5314 30.4229C14.3298 31.3334 15.2051 32.1738 16.1477 32.9346L18.4405 46.3148C18.4696 46.4833 18.558 46.6359 18.6897 46.7451C18.8215 46.8543 18.988 46.913 19.1592 46.9105H19.2814C19.4691 46.878 19.6363 46.7725 19.7461 46.6171C19.856 46.4617 19.8995 46.2691 19.8672 46.0816L17.8152 34.1797C19.9966 35.615 22.257 36.5407 23.9784 36.5407C25.7753 36.5407 28.0573 35.6903 30.2136 34.3304L28.1472 46.0852C28.1305 46.1782 28.1323 46.2736 28.1526 46.3659C28.1729 46.4582 28.2112 46.5456 28.2654 46.6231C28.3197 46.7006 28.3887 46.7666 28.4685 46.8173C28.5483 46.8681 28.6374 46.9026 28.7306 46.9189C28.8239 46.9352 28.9194 46.933 29.0118 46.9123C29.1041 46.8917 29.1915 46.853 29.2688 46.7985C29.3462 46.7441 29.412 46.6749 29.4625 46.595C29.513 46.515 29.5472 46.4259 29.5631 46.3328L31.8811 33.1535C32.802 32.4339 33.6527 31.6289 34.4219 30.7494C34.5836 30.5628 34.7273 30.3906 35.0112 27.4196C37.818 28.9266 41.7423 31.4419 43.7225 32.7337C42.8887 32.9992 41.8358 33.3329 40.9733 33.5984C38.0408 34.4955 37.2178 35.2813 37.0812 35.4284C37.0117 35.504 36.9592 35.5937 36.9274 35.6914C36.8955 35.789 36.8851 35.8924 36.8966 35.9944C36.9082 36.0964 36.9416 36.1948 36.9945 36.2829C37.0475 36.3709 37.1187 36.4466 37.2034 36.5048L40.5097 38.7869L34.5764 45.7443C34.4995 45.8121 34.438 45.8955 34.3961 45.989C34.3541 46.0825 34.3327 46.1839 34.3333 46.2863C34.3338 46.3887 34.3564 46.4898 34.3993 46.5829C34.4423 46.6759 34.5047 46.7586 34.5823 46.8256C34.66 46.8925 34.7511 46.9421 34.8495 46.9709C34.948 46.9998 35.0514 47.0073 35.153 46.9929C35.2546 46.9785 35.3519 46.9426 35.4384 46.8875C35.5249 46.8324 35.5986 46.7595 35.6545 46.6737L42.1017 39.1098C42.1668 39.0336 42.2153 38.9446 42.2438 38.8485C42.2724 38.7525 42.2805 38.6515 42.2677 38.5521C42.2548 38.4528 42.2213 38.3572 42.1692 38.2715C42.117 38.1859 42.0476 38.1121 41.9652 38.0549L38.8889 35.9307C39.6901 35.5408 40.5233 35.2203 41.3794 34.9727L41.7891 34.8471C44.3981 36.1065 45.5625 37.7392 45.5625 40.1109V46.2108C45.5625 46.4011 45.6382 46.5837 45.773 46.7182C45.9078 46.8528 46.0906 46.9284 46.2812 46.9284C46.4719 46.9284 46.6547 46.8528 46.7895 46.7182C46.9243 46.5837 47 46.4011 47 46.2108V40.1109C47 37.6243 45.9219 35.6975 43.6794 34.2586L45.5913 33.6522C45.7191 33.6102 45.8325 33.5332 45.9187 33.43C46.0049 33.3268 46.0603 33.2015 46.0786 33.0684C46.097 32.9353 46.0775 32.7997 46.0225 32.6771C45.9675 32.5545 45.8791 32.4498 45.7673 32.3749C45.4834 32.1847 39.0506 27.8932 35.1478 25.8803C35.1838 25.4617 35.2209 25.0024 35.2592 24.5024C42.152 23.0564 47 20.3976 47 17.5055ZM13.7686 14.7175C15.7344 16.0703 19.9067 16.7879 24.0431 16.7879C28.1795 16.7879 32.3087 16.0918 34.2889 14.7426C34.3967 15.672 34.4758 16.5367 34.5189 17.0534C34.4866 17.9146 30.7778 19.5867 24 19.5867C17.2222 19.5867 13.5278 17.9218 13.4811 17.0534C13.5386 16.5152 13.6392 15.654 13.7686 14.7175ZM19.6875 2.43526C20.1798 2.43526 20.8123 3.19236 21.3694 3.87053C22.1277 4.77474 22.9219 5.71843 24 5.71843C25.0781 5.71843 25.8723 4.77474 26.6342 3.87053C27.1912 3.20313 27.8202 2.43526 28.3161 2.43526C28.812 2.43526 31.1084 3.87053 33.545 10.4943C33.7867 11.2902 33.9599 12.1053 34.0625 12.9306C33.9798 13.7667 30.4688 15.3526 24.0431 15.3526C17.7002 15.3526 14.1819 13.8061 14.0381 12.9629C14.1554 12.1325 14.3441 11.3138 14.6023 10.5158C16.9419 4.58816 19.1592 2.52497 19.6875 2.43526ZM2.4375 17.5055C2.4375 15.9626 5.59641 13.8923 12.6294 12.6615V12.7333C12.6205 12.7698 12.6145 12.807 12.6114 12.8445C12.288 14.7749 12.0723 16.8381 12.058 16.9745V17.0104C12.058 17.0104 12.058 17.0355 12.058 17.0462C12.058 17.057 12.058 17.0785 12.058 17.0965C12.058 17.1144 12.058 17.1216 12.058 17.1324C12.1766 19.68 18.1242 21.0219 24 21.0219C29.8758 21.0219 35.8091 19.6835 35.9528 17.1467C35.9528 17.1467 35.9528 17.1288 35.9528 17.118C35.9528 17.1072 35.9528 17.0749 35.9528 17.0498C35.9528 17.0247 35.9528 17.0319 35.9528 17.0211C35.9528 17.0104 35.9528 17.0032 35.9528 16.9924C35.9528 16.8525 35.7588 14.6637 35.4641 12.6866C42.4323 13.8994 45.5625 15.959 45.5625 17.5055C45.5625 20.1644 36.9627 24.1867 24 24.1867C11.0373 24.1867 2.4375 20.1536 2.4375 17.5055ZM33.2575 29.9026C30.6772 32.827 26.6234 35.1054 23.9784 35.1054C21.4628 35.1054 17.4127 32.6763 14.6814 29.5581C14.6167 29.3464 14.4227 28.4386 14.1136 24.7572C17.3778 25.329 20.6859 25.6147 24 25.6112C27.2847 25.6165 30.5636 25.3379 33.8002 24.7787C33.4875 28.6288 33.3222 29.6371 33.2575 29.9026Z" fill="#B02422" stroke="#B02422" stroke-width="0.3"></path></g><defs><clipPath id="clip0_201_998"><rect width="48" height="48" fill="white"></rect></clipPath></defs></svg> 