<?xml version="1.0" encoding="UTF-8"?> <svg xmlns="http://www.w3.org/2000/svg" width="80" height="80" viewBox="0 0 80 80" fill="none"><path d="M5.39568 37.2883C5.42057 37.5318 5.55521 37.73 5.73888 37.8625C6.17617 38.2408 6.18853 38.0515 12.1957 37.1916C12.279 37.3032 12.5524 37.6649 14.7151 40.5769C14.2555 42.295 13.4983 43.957 12.4964 45.4353C11.9752 45.7224 11.9254 46.4449 12.3927 46.8046C17.8823 50.9463 17.6412 51.0137 18.1466 51.0137C18.2923 51.0137 18.4304 50.9638 18.5577 50.8889C19.0942 50.7425 18.9134 50.6084 22.1903 46.6048C23.8704 46.7598 24.9739 46.715 26.6418 46.8537L28.1394 52.2219C28.0063 52.9162 28.6749 53.3529 29.2878 53.1534C29.6031 53.1133 29.9135 53.0579 30.2244 53.0035C30.2082 53.5048 30.2345 52.462 29.8949 66.8662C29.8329 69.5006 29.9525 72.3433 32.4542 73.3843C32.8384 73.6577 33.2928 73.8291 33.785 73.8486C36.3187 74.4014 38.8882 74.3155 41.4712 73.8497C42.7008 73.8088 43.7108 72.8517 43.9161 71.6783C45.206 71.1796 47.8846 71.7405 49.3914 72.1767C52.1396 72.972 54.7717 74.2171 57.6266 74.6108C59.8673 74.9199 62.3435 75.0565 64.5859 74.7601C67.484 74.3768 72.2306 71.5137 71.2155 68.764C74.329 67.7503 75.1022 64.5203 73.5097 62.634C74.5683 61.9878 75.5377 60.7698 75.7087 59.327C75.8578 58.072 74.9592 56.548 73.9423 55.7237C75.183 54.7639 76.1184 52.9883 75.8414 51.1924C75.6076 49.6427 74.6364 48.4259 72.9508 47.5772C70.6387 46.4246 67.707 45.5765 64.6173 45.1506C65.1972 44.7479 65.7682 44.1813 66.2086 43.738C68.7471 41.1823 69.8215 37.5454 68.7746 33.839C68.6769 33.0816 68.4864 32.352 68.1793 31.6783C67.5976 30.3865 66.5483 29.6781 65.499 29.8718C64.2597 30.1094 63.8326 31.3123 63.5207 32.1909C63.4313 32.3461 63.0987 34.1649 60.2892 36.1432C57.064 38.4333 53.3175 39.3478 48.9065 45.5417C47.6318 47.3317 46.2077 49.3308 43.9315 50.6122C43.7636 49.308 42.7334 48.2907 41.4659 48.2515C40.2794 48.0521 39.1938 47.9542 38.1578 47.9106C37.6768 46.0301 37.6131 45.6485 37.1534 43.6384C37.2739 43.5762 38.5634 42.9093 39.5134 42.414C44.3317 44.8419 44.114 44.8493 44.4726 44.8493C44.7264 44.8493 44.9548 44.7106 45.1121 44.5009C45.2638 44.3179 45.5837 43.8847 46.3605 42.8748C47.3884 41.5402 48.0669 40.6594 48.9332 39.0691C49.0452 38.864 49.0572 38.6334 48.991 38.4271C49.0283 37.9811 49.0116 37.3209 48.6503 35.9847C47.5578 35.3131 46.2095 34.3266 45.128 33.4782C45.3996 32.3094 45.5656 31.3413 45.8581 29.9074C47.54 29.4202 50.1616 28.6723 50.4364 28.5807C50.8304 28.4347 51.0938 28.0116 50.9688 27.5783C50.9684 27.5769 50.9672 27.576 50.9668 27.5746C50.9476 24.9032 50.358 22.0745 50.0648 21.3533C49.9771 21.078 49.757 20.8921 49.4967 20.821C49.2217 20.3469 48.9103 19.8924 48.4994 19.458C46.5944 19.6775 44.6159 19.8243 43.0577 19.9395C42.6847 18.8485 42.234 17.9449 41.7108 17.1909C42.7833 15.6318 43.6956 13.9656 44.409 12.2187C44.6189 11.706 44.2679 11.1024 43.6638 11.0905C41.7872 9.95846 39.8187 8.93287 37.8074 8.046C37.5073 7.91496 37.1778 7.95891 36.833 8.26967C35.6333 9.35921 34.5496 10.5813 33.582 11.8864L30.2019 10.9119C29.7007 8.8551 28.7821 6.87541 28.0844 5.86766C28.0641 5.32433 27.5981 5.01347 27.1599 5.08581C24.7932 5.42186 22.4671 6.05435 20.2464 6.9683C20.1931 6.99011 20.1547 7.02917 20.1089 7.06014C19.7994 7.18034 19.579 7.47712 19.5823 7.82875C19.5998 9.67071 19.8176 11.5076 20.2103 13.3017C18.6292 13.8832 17.1248 14.7126 15.785 15.7386L11.4504 13.2761C11.0167 13.03 10.4014 13.2083 10.2586 13.8004C6.96567 19.3811 6.96778 19.0926 6.95062 19.5311C6.91718 19.8086 7.01203 20.0958 7.24874 20.2795L10.9971 23.1873L10.7402 28.2186L4.79851 29.1922C4.22771 29.2862 3.88683 29.9535 4.27698 30.4832C4.5639 32.9072 5.17449 35.1244 5.39568 37.2883ZM59.1204 65.3157C61.0218 67.185 64.0565 68.4168 67.4457 68.6421C68.2462 68.6945 69.4555 68.7727 69.6776 69.3153C69.7889 69.586 69.6262 70.0451 69.2554 70.4957C68.6474 71.257 67.7624 71.8682 66.712 72.2962C66.6592 72.272 66.6118 72.2391 66.5526 72.2262C64.1013 71.69 61.4381 70.8424 60.2186 70.21C58.5369 69.338 57.5895 68.3234 58.145 66.5124C58.2878 66.0465 58.6415 65.6269 59.1204 65.3157ZM72.6062 65.3951C72.3729 66.5156 70.7462 67.4799 69.8231 67.3118C69.7423 67.2955 69.6635 67.3047 69.585 67.3125C68.9046 67.0907 68.1526 67.0413 67.5532 67.0025C65.012 66.8335 61.6473 65.8713 59.8269 63.6806C59.7855 63.6307 59.7312 63.6008 59.6815 63.5633C59.6544 63.4809 59.6237 63.3987 59.5689 63.3253C58.7765 62.2636 59.0995 60.7001 60.3223 60.0651C63.0352 61.9824 64.6677 62.0467 68.1911 62.3204C70.5052 62.4991 73.0796 63.1266 72.6062 65.3951ZM72.108 61.4696C72.0532 61.4819 72.0099 61.5134 71.9605 61.5355C69.6368 60.452 67.2865 60.8121 64.4122 60.2303C62.641 59.8716 61.1031 58.551 60.7602 58.4055C60.7386 58.3107 60.7052 58.2172 60.6483 58.1316C60.1142 57.3279 60.1308 56.1721 60.6873 55.3833C60.7201 55.3368 60.7314 55.2837 60.7533 55.2334C60.7636 55.237 60.7705 55.2453 60.781 55.2485C68.0902 57.5177 71.131 55.825 72.7351 56.8656C73.4618 57.3375 74.151 58.504 74.0767 59.1333C73.9338 60.3373 72.8336 61.3058 72.108 61.4696ZM74.2163 51.4407C74.4507 52.9582 73.2205 54.509 72.3092 54.7744C72.2049 54.8045 72.113 54.8557 72.0325 54.9189C71.3156 54.8131 70.5988 54.8445 69.9157 54.8632C64.8228 55.0153 61.806 53.7446 61.1169 53.6635C61.0649 53.561 60.9947 53.4666 60.8987 53.3906C60.2027 52.8403 60.1658 50.5557 63.2451 50.1885C63.7005 50.1329 64.1585 50.119 64.6166 50.104C66.5042 50.0409 68.1753 49.8626 70.042 48.3435C70.0992 48.2969 70.1356 48.2366 70.1769 48.1794C70.899 48.4434 71.5838 48.7322 72.2145 49.0466C73.426 49.6567 74.0617 50.4176 74.2163 51.4407ZM50.2453 46.4953C55.1941 39.5476 59.0638 39.7377 62.7361 36.2613C62.8006 36.2673 62.7638 36.2817 62.8502 36.2748C65.2404 36.1616 66.7205 34.0084 66.3957 31.8892C66.5003 32.0242 66.6006 32.1766 66.6815 32.3568C68.3348 35.9814 66.0251 40.2946 62.9117 42.9968C62.497 43.3564 62.0272 43.763 61.7008 44.3067C61.5601 44.5379 61.1325 45.2431 61.4723 45.8981C62.0791 47.0671 63.2239 46.1695 68.2761 47.5706C67.6613 47.9385 66.993 48.1984 66.3011 48.3221C64.4256 48.6585 61.2705 48.0395 59.5582 50.3427C58.7556 51.423 58.6005 53.1822 59.4964 54.2915C59.4431 54.3361 59.3862 54.3757 59.3442 54.4351C58.4365 55.7219 58.3836 57.5078 59.1779 58.8583C57.4048 60.0798 57.0195 62.3035 58.09 64.0313C57.3591 64.5467 56.8142 65.2445 56.5729 66.0308C56.2353 67.1331 56.2888 68.2515 56.727 69.1868C57.7399 71.3095 60.7021 72.2997 62.958 72.9835C62.0406 73.0005 61.1666 72.9454 60.4219 72.8737C52.1889 72.0454 49.3204 69.0336 44.2124 69.0389C44.749 63.7392 44.7092 58.1238 44.1095 52.3532C47.075 50.9129 48.831 48.4815 50.2453 46.4953ZM41.3899 49.8942C41.9041 49.8942 42.3221 50.3812 42.3279 51.0758C43.1573 58.0952 43.1579 64.8033 42.3221 71.1218C42.3221 71.72 41.9041 72.207 41.3899 72.207C41.3401 72.207 41.2909 72.2112 41.2422 72.2209C36.6425 73.059 34.33 72.207 33.8835 72.207C33.3692 72.207 32.9513 71.72 32.9454 71.0254C32.1754 64.4975 32.2543 57.6211 32.9513 50.9794C32.9513 50.3812 33.3692 49.8942 33.8835 49.8942C34.4066 49.8942 36.3077 49.0411 41.2524 49.8825C41.2979 49.89 41.3439 49.8942 41.3899 49.8942ZM28.6791 11.5723C28.7413 11.85 28.9393 12.0594 29.1863 12.1549C29.2894 12.2871 29.4219 12.398 29.5952 12.4478C33.5818 13.5858 33.6101 13.6368 33.8359 13.6368C34.1066 13.6368 34.3599 13.501 34.5122 13.279C34.5748 13.231 34.6437 13.1926 34.692 13.1252C35.5604 11.9181 36.5592 10.8059 37.6396 9.78809C39.3219 10.5514 40.9699 11.4083 42.553 12.3511C41.9341 13.7322 41.1886 15.0573 40.3255 16.3063C39.7567 16.5154 39.6278 17.1951 39.9869 17.6104C40.8387 18.5939 41.4878 20.058 41.9716 22.0871C42.0909 22.5885 42.6704 22.9072 43.1923 22.5895C45.0041 22.4081 46.8344 22.364 48.6516 22.4525C49.0495 24.0037 49.2708 25.5948 49.3112 27.2009L44.8922 28.4752C44.5271 28.58 44.3061 28.9176 44.3125 29.2806C44.3107 29.2882 44.3051 29.2937 44.3035 29.3014C43.8821 31.3341 43.7013 32.5755 43.2292 34.267C42.9669 34.601 42.9917 35.0816 43.3093 35.3748L47.1326 38.9004C46.2696 40.3682 45.5238 41.2467 44.2179 42.9732L40.3465 40.9929C40.1257 40.6331 39.6735 40.4938 39.291 40.6824C39.1579 40.7138 39.0346 40.7719 38.9311 40.8646C37.1701 41.7835 35.9199 42.4189 34.4528 43.1873C33.8837 43.4859 34.0377 44.2077 34.0478 44.098C34.2763 45.4119 34.4702 46.7571 34.6399 48.104C33.4397 48.3076 33.3573 48.2673 32.9103 48.4603C32.9373 48.4265 32.9563 48.3893 32.9842 48.3559C31.4933 49.0078 30.7205 49.7321 30.3978 51.3131C30.1364 51.3664 29.8845 51.4 29.6281 51.4411L28.1563 46.1641C28.1983 45.7217 27.883 45.3237 27.4392 45.2699C25.7214 45.067 23.9566 45.1356 22.1941 44.9558C21.8602 44.8088 21.4617 44.882 21.2229 45.1811L18.0921 49.1126L14.0709 46.0212C15.1538 44.341 15.977 42.4693 16.4349 40.5396C16.5159 40.1988 16.3681 39.861 16.0945 39.6749C13.1605 35.7236 13.2509 35.7292 12.8618 35.6143C12.7099 35.5315 12.5372 35.4825 12.352 35.5053L6.91785 36.3152C6.61428 34.1152 6.24693 32.7739 5.96189 30.6675L11.2882 29.7948C11.8581 29.9688 12.318 29.5514 12.3429 29.0648C12.5733 23.0507 12.8132 23.1289 12.4722 22.6706C12.4741 22.4231 12.3784 22.1777 12.1679 22.0143L8.81111 19.4102L11.3796 15.1271L15.0459 17.2094C15.0692 17.2493 15.0808 17.2934 15.1115 17.33C15.4021 17.678 15.92 17.7241 16.2695 17.4328C17.7405 16.1988 19.4817 15.2346 21.3038 14.6438C21.5849 14.5525 21.7693 14.3194 21.8348 14.0519C21.9332 13.8773 21.9731 13.6687 21.9223 13.458C21.5203 11.7876 21.2995 10.0703 21.2464 8.34733C23.0255 7.64668 24.8713 7.13733 26.7502 6.82409C27.649 8.29128 28.2994 9.88796 28.6791 11.5723Z" fill="#E2EAFC"></path><path d="M25.0157 17.6136C24.9052 17.6466 24.8396 17.6858 23.3414 18.3424C19.677 20.3041 17.9449 22.3718 16.9507 25.9666C16.0044 29.3609 16.8891 32.8858 18.8091 35.4903C23.2173 41.5088 31.5652 40.8926 35.8655 36.4514C39.3153 32.8651 40.0313 26.9951 37.5313 22.7977C34.9628 18.458 29.6963 16.2791 25.0157 17.6136ZM36.1175 23.6367C36.1181 23.6378 36.1186 23.6378 36.1186 23.6389C39.37 29.0954 36.3675 37.2173 28.8063 38.1688C27.122 38.1684 25.4628 37.9217 23.9847 37.1453C20.4961 35.3126 18.9893 30.7362 20.0702 26.9466C21.0577 23.4844 24.4897 19.5193 28.275 18.882C31.396 19.0304 34.4319 20.7876 36.1175 23.6367Z" fill="#E2EAFC"></path><path d="M39.3827 70.7899C40.3572 70.7899 41.2401 69.9701 41.2963 68.992C41.4374 66.4981 37.5874 66.3199 37.4853 68.8047C37.4422 69.8626 38.3278 70.7899 39.3827 70.7899Z" fill="#E2EAFC"></path></svg> 