<?xml version="1.0" encoding="UTF-8"?> <svg xmlns="http://www.w3.org/2000/svg" width="48" height="48" viewBox="0 0 48 48" fill="none"><path d="M14 28C13.4067 28 12.8266 28.1759 12.3333 28.5056C11.8399 28.8352 11.4554 29.3038 11.2284 29.8519C11.0013 30.4001 10.9419 31.0033 11.0576 31.5853C11.1734 32.1672 11.4591 32.7018 11.8787 33.1213C12.2982 33.5409 12.8328 33.8266 13.4147 33.9424C13.9967 34.0581 14.5999 33.9987 15.1481 33.7716C15.6962 33.5446 16.1648 33.1601 16.4944 32.6667C16.8241 32.1734 17 31.5933 17 31C16.9991 30.2046 16.6828 29.4421 16.1203 28.8797C15.5579 28.3173 14.7954 28.0009 14 28ZM14 32.5C13.7033 32.5 13.4133 32.412 13.1666 32.2472C12.92 32.0824 12.7277 31.8481 12.6142 31.574C12.5007 31.2999 12.4709 30.9983 12.5288 30.7074C12.5867 30.4164 12.7296 30.1491 12.9393 29.9393C13.1491 29.7296 13.4164 29.5867 13.7074 29.5288C13.9983 29.4709 14.2999 29.5006 14.574 29.6142C14.8481 29.7277 15.0824 29.92 15.2472 30.1666C15.412 30.4133 15.5 30.7033 15.5 31C15.4996 31.3977 15.3414 31.779 15.0602 32.0602C14.779 32.3414 14.3977 32.4996 14 32.5Z" fill="#B02422"></path><path d="M34 28C33.4067 28 32.8266 28.1759 32.3333 28.5056C31.8399 28.8352 31.4554 29.3038 31.2284 29.8519C31.0013 30.4001 30.9419 31.0033 31.0576 31.5853C31.1734 32.1672 31.4591 32.7018 31.8787 33.1213C32.2982 33.5409 32.8328 33.8266 33.4147 33.9424C33.9967 34.0581 34.5999 33.9987 35.1481 33.7716C35.6962 33.5446 36.1648 33.1601 36.4944 32.6667C36.8241 32.1734 37 31.5933 37 31C36.9991 30.2046 36.6828 29.4421 36.1203 28.8797C35.5579 28.3173 34.7954 28.0009 34 28ZM34 32.5C33.7033 32.5 33.4133 32.412 33.1666 32.2472C32.92 32.0824 32.7277 31.8481 32.6142 31.574C32.5007 31.2999 32.4709 30.9983 32.5288 30.7074C32.5867 30.4164 32.7296 30.1491 32.9393 29.9393C33.1491 29.7296 33.4164 29.5867 33.7074 29.5288C33.9983 29.4709 34.2999 29.5006 34.574 29.6142C34.8481 29.7277 35.0824 29.92 35.2472 30.1666C35.412 30.4133 35.5 30.7033 35.5 31C35.4996 31.3977 35.3414 31.779 35.0602 32.0602C34.779 32.3414 34.3977 32.4996 34 32.5Z" fill="#B02422"></path><path d="M43.6724 15.9655C43.3112 15.9664 42.9551 16.0509 42.6321 16.2124C42.309 16.374 42.0278 16.6081 41.8103 16.8966L41.0144 17.9579L38.9241 6.45934C38.6969 5.20782 38.0375 4.07581 37.0609 3.26082C36.0843 2.44583 34.8525 1.99961 33.5805 2H13.4195C12.1474 1.9996 10.9156 2.44587 9.93903 3.26092C8.96243 4.07598 8.30302 5.20807 8.07586 6.45966L5.98546 17.9579L5.18965 16.8966C4.89654 16.5057 4.4879 16.2171 4.0216 16.0714C3.5553 15.9257 3.05499 15.9305 2.59154 16.085C2.12809 16.2394 1.72499 16.5358 1.43935 16.9321C1.15371 17.3284 1 17.8046 1 18.2931V21.3966C1.00068 22.0137 1.24612 22.6053 1.68248 23.0417C2.11884 23.478 2.71048 23.7235 3.32759 23.7241H5.65517V36.2481C4.92411 36.4356 4.28669 36.8837 3.86269 37.5081C3.43868 38.1324 3.25728 38.8902 3.35255 39.6389C3.44783 40.3876 3.81324 41.0757 4.38011 41.574C4.94698 42.0723 5.6763 42.3464 6.43103 42.3448H7.2069V44.6724C7.20757 45.2895 7.45302 45.8812 7.88938 46.3175C8.32574 46.7539 8.91738 46.9993 9.53448 47H12.6379C13.255 46.9993 13.8467 46.7539 14.283 46.3175C14.7194 45.8812 14.9648 45.2895 14.9655 44.6724V42.3448H32.0345V44.6724C32.0352 45.2895 32.2806 45.8812 32.717 46.3175C33.1533 46.7539 33.745 46.9993 34.3621 47H37.4655C38.0826 46.9993 38.6743 46.7539 39.1106 46.3175C39.547 45.8812 39.7924 45.2895 39.7931 44.6724V42.3448H40.569C41.3237 42.3464 42.053 42.0723 42.6199 41.574C43.1868 41.0757 43.5522 40.3876 43.6474 39.6389C43.7427 38.8902 43.5613 38.1324 43.1373 37.5081C42.7133 36.8837 42.0759 36.4356 41.3448 36.2481V23.7241H43.6724C44.2895 23.7235 44.8812 23.478 45.3175 23.0417C45.7539 22.6053 45.9993 22.0137 46 21.3966V18.2931C45.9993 17.676 45.7539 17.0844 45.3175 16.648C44.8812 16.2116 44.2895 15.9662 43.6724 15.9655ZM7.2069 25.2759H9.12328C11.9261 25.275 14.6773 26.0296 17.0875 27.4604C19.4976 28.8912 21.4775 30.9451 22.8189 33.4061C22.8856 33.5285 22.9841 33.6306 23.1039 33.7018C23.2238 33.7729 23.3606 33.8105 23.5 33.8105C23.6394 33.8105 23.7762 33.7729 23.8961 33.7018C24.0159 33.6306 24.1144 33.5285 24.1811 33.4061C25.5225 30.9451 27.5024 28.8912 29.9125 27.4604C32.3227 26.0296 35.0739 25.275 37.8767 25.2759H39.7931V36.1379H7.2069V25.2759ZM39.7931 22.9483V23.7241H37.8767C35.0205 23.7233 32.2093 24.4361 29.6985 25.7978C27.1878 27.1596 25.0571 29.1271 23.5 31.5216C21.9429 29.1271 19.8122 27.1596 17.3015 25.7978C14.7907 24.4361 11.9795 23.7233 9.12328 23.7241H7.2069V20.6207H39.7931V22.9483ZM9.33547 8.2069H22.7241V19.069H7.36067L9.33547 8.2069ZM37.6645 8.2069L39.6393 19.069H24.2759V8.2069H37.6645ZM13.4195 3.55172H33.5805C34.4738 3.55225 35.3394 3.86148 36.0308 4.42704C36.7222 4.99261 37.1969 5.77975 37.3745 6.65517H9.62534C9.80291 5.77971 10.2776 4.99253 10.9691 4.42696C11.6605 3.86139 12.5262 3.55218 13.4195 3.55172ZM3.32759 22.1724C3.1219 22.1721 2.92471 22.0903 2.77926 21.9449C2.63382 21.7994 2.55199 21.6022 2.55172 21.3966V18.2931C2.55172 18.1303 2.60296 17.9716 2.69817 17.8394C2.79339 17.7073 2.92775 17.6086 3.08224 17.5571C3.23672 17.5056 3.40349 17.504 3.55892 17.5525C3.71436 17.6011 3.85057 17.6973 3.94828 17.8276L5.65517 20.1036V22.1724H3.32759ZM13.4138 44.6724C13.4135 44.8781 13.3317 45.0753 13.1863 45.2207C13.0408 45.3662 12.8436 45.448 12.6379 45.4483H9.53448C9.32879 45.448 9.13161 45.3662 8.98616 45.2207C8.84072 45.0753 8.75889 44.8781 8.75862 44.6724V42.3448H13.4138V44.6724ZM38.2414 44.6724C38.2411 44.8781 38.1593 45.0753 38.0138 45.2207C37.8684 45.3662 37.6712 45.448 37.4655 45.4483H34.3621C34.1564 45.448 33.9592 45.3662 33.8137 45.2207C33.6683 45.0753 33.5865 44.8781 33.5862 44.6724V42.3448H38.2414V44.6724ZM42.1207 39.2414C42.1203 39.6528 41.9567 40.0472 41.6657 40.3382C41.3748 40.6291 40.9804 40.7927 40.569 40.7931H6.43103C6.01949 40.7931 5.6248 40.6296 5.3338 40.3386C5.0428 40.0476 4.87931 39.6529 4.87931 39.2414C4.87931 38.8298 5.0428 38.4352 5.3338 38.1441C5.6248 37.8531 6.01949 37.6897 6.43103 37.6897H40.569C40.9804 37.6901 41.3748 37.8537 41.6657 38.1446C41.9567 38.4355 42.1203 38.83 42.1207 39.2414ZM44.4483 21.3966C44.448 21.6022 44.3662 21.7994 44.2207 21.9449C44.0753 22.0903 43.8781 22.1721 43.6724 22.1724H41.3448V20.1036L43.0517 17.8276C43.1494 17.6973 43.2856 17.6011 43.4411 17.5525C43.5965 17.504 43.7633 17.5056 43.9178 17.5571C44.0722 17.6086 44.2066 17.7073 44.3018 17.8394C44.397 17.9716 44.4483 18.1303 44.4483 18.2931V21.3966Z" fill="#B02422"></path></svg> 