<?xml version="1.0" encoding="UTF-8"?> <svg xmlns="http://www.w3.org/2000/svg" width="80" height="80" viewBox="0 0 80 80" fill="none"><path d="M8.52109 69.2315C8.80711 69.3499 9.11452 69.4165 9.4311 69.4511C11.9717 70.9943 14.0792 70.8838 68.0824 71.9C69.1857 71.9208 70.3443 71.9315 71.3207 71.5192C72.2972 71.1069 72.9897 70.1187 72.5221 69.3174C71.766 68.0217 68.9787 68.3242 67.3117 68.362C67.8719 67.7498 68.2221 66.9421 68.2221 66.0491V25.5049C68.2221 24.584 67.8625 23.7192 67.2108 23.0691C66.5633 22.4227 65.7028 22.0668 64.8403 22.0668C64.8349 22.0668 64.8295 22.0668 64.8253 22.0668C60.2691 21.7893 55.8444 21.5864 51.508 21.4385C51.6939 20.0632 51.6123 19.1791 51.6692 18.1708C51.7153 17.3001 51.7677 16.3129 51.1577 15.4503C50.339 14.2966 48.9092 13.9579 47.6174 13.7792C40.4396 12.7892 33.1632 13.4196 26.1266 14.0285C25.1506 14.1131 23.937 14.218 22.9492 14.9521C21.9614 15.6873 21.3664 16.9989 21.3578 18.4592C21.3519 19.3467 21.1561 20.3003 21.2076 21.5246C17.3442 21.6947 13.5452 21.9184 9.8242 22.2161C9.03861 22.2183 8.32257 22.4964 7.74366 22.9417C6.48249 23.4643 5.60365 24.6879 5.13349 26.2136C4.595 27.9613 3.77197 63.4963 5.41388 66.7949C6.02049 68.0135 7.22287 69.0216 8.52109 69.2315ZM54.5673 55.1474C54.5673 55.7772 54.2923 56.3701 53.7936 56.8175C52.056 58.3725 49.0183 57.3072 49.0183 55.1474V49.5949C50.8397 49.9134 52.6101 49.8234 54.5673 49.1044V55.1474ZM24.8884 55.1046C24.8884 56.4727 23.5237 57.4104 22.1134 57.4104C20.584 57.4104 19.3394 56.376 19.3394 55.1046V50.3825C21.1652 50.7955 23.0639 50.7865 24.8884 50.3557V55.1046ZM9.83383 67.8449C8.84389 67.8449 8.03803 67.0396 8.03803 66.0325C7.91449 59.8702 7.82104 54.2716 7.77469 49.0945C10.3363 52.1394 13.2568 52.7958 17.1499 53.1345C17.2044 55.035 17.4756 57.0042 18.8299 58.2768C20.114 59.4835 22.3055 59.7345 23.9335 58.6933C25.6515 57.9986 26.5322 56.5508 26.5322 55.1046V53.9952C33.2184 54.8278 39.9871 54.9838 46.7053 54.4713C46.8465 55.9885 47.2317 57.4531 48.3147 58.4708C49.6359 59.7124 51.809 59.8789 53.3543 58.9312C53.9203 58.7354 54.4443 58.4407 54.8895 58.0418C56.6627 56.4555 56.1073 54.5536 56.2112 53.7775C57.8234 53.7834 59.4473 53.7871 61.0309 53.4845C63.397 53.0322 65.5855 51.871 66.5783 49.6754V66.0491C66.5783 67.0551 65.7767 67.8326 64.7375 67.846C46.208 68.8637 27.7512 68.8632 9.83383 67.8449ZM54.5673 47.3379C52.8302 48.114 50.8783 48.3199 49.0183 47.9327C49.0816 47.1188 48.8226 46.4501 49.4165 45.8613C49.6712 45.6092 50.0072 45.4706 50.3657 45.4706H50.3764L53.2285 45.491C53.967 45.4963 54.5673 46.101 54.5673 46.8389V47.3379ZM24.8884 48.6387C23.0842 49.1398 21.1509 49.1469 19.3394 48.6661V46.9266C19.3394 46.2799 19.8637 45.7596 20.5059 45.7596C21.2149 45.7645 23.8953 45.7832 23.7294 45.7821C24.3683 45.7863 24.8884 46.3102 24.8884 46.9491V48.6387ZM23.0016 18.4688C23.007 17.5217 23.3548 16.6998 23.9306 16.2711C24.4978 15.8489 25.2908 15.751 26.2679 15.6659C33.1655 15.0688 40.2957 14.4537 47.2437 15.3915C48.0756 16.0566 48.5282 17.1337 48.6076 18.2069C48.6856 19.2607 48.4691 20.3082 48.2266 21.3399C39.3688 21.1021 30.9306 21.132 22.8453 21.4481C22.8063 20.4492 22.9965 19.3297 23.0016 18.4688ZM9.89162 23.8573C13.8076 23.5446 17.8044 23.3126 21.873 23.1413C22.0447 23.203 22.2169 23.2111 22.3938 23.1552C22.4234 23.146 22.4442 23.1245 22.472 23.1124C27.2075 22.9215 32.0498 22.8203 37.0352 22.8203C45.8206 22.8203 55.0297 23.1167 64.7771 23.7091H64.7825C65.2619 23.7091 65.7114 23.8953 66.0507 24.2329C66.391 24.5722 66.5783 25.0244 66.5783 25.5049V44.2121C66.314 46.2649 65.7737 47.5875 64.7739 48.6219C62.4814 50.9798 59.6851 51.1371 56.2112 51.2844V46.8389C56.2112 45.2009 54.8788 43.8589 53.2403 43.8471C52.9463 43.845 54.3054 43.8548 50.3647 43.8268C49.3764 43.8268 48.4092 44.3022 47.8201 45.2629C46.6621 45.9532 46.6009 49.6974 46.613 51.5662C39.5416 51.7715 32.9389 51.7261 26.5322 51.4198V46.9491C26.5322 45.4096 25.2801 44.1489 23.7401 44.1382L20.5252 44.1157C19.7685 44.1206 19.0601 44.401 18.526 44.9323C18.5024 44.9558 18.4858 44.9842 18.4631 45.0083C17.3041 45.4445 17.1392 48.7139 17.1282 50.7697C15.0718 50.581 13.2027 50.5204 11.6307 49.378C10.4614 48.535 8.50156 45.8714 7.74365 43.0752C7.7365 36.7442 7.82084 31.0341 8.03803 25.6558C8.03803 24.6685 8.84175 23.8626 9.89162 23.8573Z" fill="#E2EAFC"></path><path d="M62.809 15.3161C62.8978 15.3466 62.9888 15.361 63.0776 15.361C63.419 15.361 63.7369 15.1475 63.8546 14.8072L65.7949 9.18166C65.9426 8.75251 65.7146 8.28429 65.2855 8.1366C64.8563 7.98998 64.3897 8.21687 64.2409 8.64549L62.3007 14.271C62.153 14.7002 62.3799 15.1679 62.809 15.3161Z" fill="#E2EAFC"></path><path d="M67.2365 17.3772C67.4601 17.3772 67.6838 17.2857 67.8465 17.1064L72.0802 12.42C72.3841 12.0834 72.3585 11.5633 72.0213 11.2588C71.6853 10.956 71.1663 10.9795 70.8602 11.3177L66.6264 16.0041C66.3225 16.3407 66.3482 16.8608 66.6853 17.1653C66.8426 17.3071 67.0395 17.3772 67.2365 17.3772Z" fill="#E2EAFC"></path><path d="M70.476 22.3811C70.9316 22.3811 70.7611 22.2967 75.1988 19.3165C75.5734 19.0597 75.6686 18.5481 75.4118 18.1741C75.157 17.8001 74.6455 17.7027 74.2698 17.9606L70.0104 20.8812C69.3456 21.3371 69.67 22.3811 70.476 22.3811Z" fill="#E2EAFC"></path></svg> 