<?xml version="1.0" encoding="UTF-8"?> <svg xmlns="http://www.w3.org/2000/svg" width="48" height="48" viewBox="0 0 48 48" fill="none"><g clip-path="url(#clip0_201_1003)"><path d="M46.2 42.3845H43.7999V27.7687C43.7996 27.3439 43.4411 26.9997 42.9993 27C42.7386 27.0002 42.4943 27.1225 42.3447 27.3279L31.1445 42.713C30.8913 43.0611 30.9796 43.5408 31.3417 43.7841C31.476 43.8744 31.6358 43.9229 31.7997 43.923H42.1999V46.2307C42.1999 46.6556 42.5581 47 42.9999 47C43.4417 47 43.7999 46.6556 43.7999 46.2307V43.923H46.2C46.6418 43.923 47 43.5786 47 43.1537C47 42.7289 46.6418 42.3845 46.2 42.3845ZM42.1999 42.3845H33.3357L42.1999 30.2087V42.3845Z" fill="#B02422" stroke="#B02422" stroke-width="0.3"></path><path d="M32.25 45.4616H23.3707L31.626 35.4923C31.6447 35.4694 31.6623 35.4456 31.6785 35.4208C33.2316 33.0634 32.7142 29.8718 30.501 28.1566C27.8099 26.1736 24.0608 26.8035 22.1273 29.5634C21.3941 30.6099 20.9998 31.8661 21 33.1548C21 33.5795 21.3358 33.9239 21.75 33.9239C22.1642 33.9239 22.5 33.5795 22.5 33.1548C22.4997 30.6059 24.5143 28.5395 26.9995 28.5392C27.9415 28.5391 28.8598 28.8422 29.625 29.4058C31.1753 30.6241 31.5364 32.8678 30.45 34.5324L21.1785 45.7332C20.9105 46.0571 20.9493 46.5424 21.2651 46.8173C21.4006 46.9352 21.5723 46.9999 21.75 47H32.25C32.6642 47 33 46.6556 33 46.2308C33 45.806 32.6642 45.4616 32.25 45.4616Z" fill="#B02422" stroke="#B02422" stroke-width="0.3"></path><path d="M21.8392 41.2693C21.8553 40.8502 21.5232 40.4976 21.0976 40.4817H21.0973C11.0361 40.1139 2.96086 32.175 2.56938 22.2667H5.62717C6.05306 22.2667 6.39836 21.9267 6.39836 21.5072C6.39836 21.0878 6.05306 20.7477 5.62717 20.7477H2.56938C2.95527 10.8568 11.0082 2.92606 21.0511 2.5464V4.79763C21.0511 5.21708 21.3964 5.55716 21.8223 5.55716C22.2481 5.55716 22.5934 5.21708 22.5934 4.79763V2.5464C32.4989 2.92369 40.4935 10.6486 41.0651 20.3953L38.0574 17.4331C37.7511 17.1416 37.2629 17.15 36.967 17.4517C36.6784 17.746 36.6784 18.2127 36.967 18.5071L41.2718 22.7468C41.3529 22.8434 41.4573 22.9183 41.5756 22.9647C41.6058 22.9737 41.6365 22.9811 41.6674 22.9868C41.7203 23.0056 41.7751 23.0186 41.8309 23.0255C41.8386 23.0255 41.8455 23.0255 41.8533 23.0255C41.861 23.0255 41.8679 23.0255 41.8749 23.0255C41.9336 23.0211 41.9916 23.0099 42.0476 22.9921C42.0793 22.9883 42.1107 22.9825 42.1417 22.9746C42.2461 22.9381 42.3411 22.8795 42.4201 22.803L46.7835 18.5071C47.0794 18.2054 47.071 17.7246 46.7646 17.4331C46.4658 17.1489 45.992 17.1489 45.693 17.4331L42.6106 20.4667C42.0597 9.5798 32.9448 1.02668 21.877 1.01063C21.8577 1.00987 21.8415 1 21.8223 1C21.803 1 21.7868 1.00987 21.7675 1.01063C10.3104 1.02611 1.02651 10.1696 1.0108 21.4533C1.0108 21.4723 1 21.4882 1 21.5072C1 21.5262 1.01003 21.5422 1.0108 21.5611C1.02998 32.5664 9.87365 41.5908 21.0403 42H21.0688C21.4832 41.9999 21.8235 41.6772 21.8392 41.2693Z" fill="#B02422" stroke="#B02422" stroke-width="0.3"></path><path d="M31.785 11.2275C31.4982 10.9242 31.0333 10.9242 30.7465 11.2275L22.8547 19.578C22.2584 19.2967 21.5774 19.2967 20.9812 19.578L17.2446 15.6239C16.9528 15.3258 16.4879 15.3343 16.2061 15.643C15.9313 15.9442 15.9313 16.4216 16.2061 16.7228L19.9354 20.6692C19.4118 21.8291 19.8759 23.2186 20.9721 23.7726C21.8135 24.1979 22.8168 24.0156 23.476 23.3177C24.1387 22.6223 24.3093 21.5576 23.9005 20.6699L31.785 12.3264C32.0717 12.023 32.0717 11.531 31.785 11.2275ZM22.4377 22.2178L22.4375 22.218C22.1471 22.5119 21.6895 22.5119 21.3991 22.218C21.1122 21.9146 21.1122 21.4225 21.3989 21.1189C21.6857 20.8154 22.1507 20.8154 22.4375 21.1188C22.7244 21.4222 22.7244 21.9144 22.4377 22.2178Z" fill="#B02422" stroke="#B02422" stroke-width="0.3"></path></g><defs><clipPath id="clip0_201_1003"><rect width="48" height="48" fill="white"></rect></clipPath></defs></svg> 