<?xml version="1.0" encoding="UTF-8"?> <svg xmlns="http://www.w3.org/2000/svg" width="80" height="80" viewBox="0 0 80 80" fill="none"><rect width="80" height="80" fill="#F5F5F5"></rect><g id="Главная" clip-path="url(#clip0_1_763)"><rect width="1440" height="18336" transform="translate(-844 -10664)" fill="white"></rect><g id="Преимущества"><g id="Фон"><rect id="Rectangle 116" x="-844" y="-336" width="1440" height="544" fill="#121E2D"></rect></g><g id="Карточки"><g id="6"><g id="SVG"><path id="Vector" d="M68.4819 39.5057C68.2083 37.7031 67.0669 36.2877 65.0905 35.2985C61.9188 33.7131 56.8881 32.5826 52.7441 32.0553C54.757 30.3049 56.8549 28.2432 58.2971 25.6561C61.6087 19.7046 59.3132 13.1315 56.1608 13.7116C54.7557 13.9803 54.2913 15.3932 53.8386 16.6676C52.3863 20.7032 47.6287 22.5775 44.2722 24.7632C33.3938 31.731 35.4031 40.1076 23.3895 40.6261C23.3849 40.5486 23.3836 40.4703 23.3788 40.3928C23.268 38.6046 21.9725 37.1565 20.2282 36.8709C19.6183 36.7712 12.2799 35.6628 11.7045 35.9118C11.7159 35.8562 11.7231 35.7994 11.7347 35.744C11.1761 36.2405 9.96597 37.2024 9.40738 37.6989C7.75196 46.9151 7.54771 56.7018 8.84337 65.9753C8.95306 66.7604 9.0861 67.5767 9.54704 68.2216C10.008 68.8666 10.9 69.2756 11.6167 68.9369C11.6109 68.906 11.6072 68.8744 11.6014 68.8435C11.643 68.8421 11.6848 68.8396 11.7262 68.8308C14.2186 68.3094 18.3339 68.0405 20.8556 67.5451C20.859 67.5457 20.8615 67.5482 20.8649 67.5488C20.9092 67.5575 20.9545 67.5613 20.9988 67.5613C21.3484 67.5613 21.6605 67.3119 21.725 66.9545C21.8371 66.3433 21.9316 65.7321 22.0335 65.1208C23.4072 64.8727 25.0537 64.3534 26.1605 64.1377C30.1485 63.3446 33.0641 64.5063 36.4154 65.4223C39.398 66.2378 42.202 67.6454 45.2069 68.405C51.8288 70.0957 61.7323 69.2771 63.3485 62.6631C63.5238 61.9509 63.4377 61.0381 62.7914 60.7186C64.4788 60.094 66.1747 58.6998 66.4977 57.1561C66.8088 55.6623 66.4291 54.3319 65.4664 53.3601C66.8038 52.6701 68.1009 51.1762 68.3162 49.3649C68.497 47.8325 67.2474 45.8686 65.9834 44.9975C67.5441 43.9394 68.816 41.7006 68.4819 39.5057ZM12.1606 67.2425C10.344 57.6714 10.495 47.8838 12.5931 37.3783C14.7702 37.5791 17.6405 37.9473 19.9894 38.3311C21.0479 38.5045 21.8338 39.3896 21.9013 40.4838C22.4207 48.8893 21.8987 57.5149 20.3645 66.1298C18.1112 66.5466 14.6391 66.8092 12.1606 67.2425ZM54.7626 67.6937C56.2125 67.5342 57.5798 67.2235 59.0809 66.4625C57.9526 67.0887 56.6247 67.5289 54.7626 67.6937ZM62.7518 60.7806C62.7444 60.7681 62.7392 60.7548 62.7311 60.7424C62.7389 60.7396 62.7466 60.736 62.7544 60.7332C62.7549 60.7492 62.7514 60.7646 62.7518 60.7806ZM64.24 52.2679C64.1615 52.2858 64.0942 52.3236 64.0286 52.3629C61.2641 51.0118 58.3285 51.4843 54.7931 50.7673C54.3972 50.6873 54.0023 50.9445 53.9214 51.3461C53.8405 51.7458 54.0996 52.1369 54.5003 52.2178C56.1406 52.5496 57.722 52.6557 59.4241 52.7851C62.4416 53.0188 65.6704 53.878 65.0491 56.8536C64.7216 58.4217 62.0025 59.8019 60.7937 59.5631C60.6041 59.5284 60.4197 59.5721 60.267 59.6654C57.5869 59.1713 52.6346 59.0505 51.7619 58.9871C51.3564 58.9688 51.0001 59.2635 50.9702 59.6709C50.9403 60.0784 51.2466 60.4328 51.6541 60.4627C52.4532 60.522 60.4064 60.7474 61.4824 61.5472C61.6779 62.1752 61.099 62.9487 60.9054 63.1846C58.3833 66.3407 53.9121 66.5671 49.8943 66.183C38.8268 65.0729 35.4184 60.908 29.9708 61.2091C28.8258 61.2607 26.6093 61.5948 26.0218 61.7312L26.0227 61.7331C25.6995 61.7977 23.5495 62.1956 22.4603 62.3584C23.4245 55.5571 23.7583 48.7721 23.4575 42.1089C36.2495 41.587 34.5148 32.7711 45.0745 26.0057C48.4991 23.7776 53.5736 21.7709 55.2294 17.1723L55.3392 16.8665C55.6715 15.9298 55.945 15.2594 56.4343 15.1655C57.6982 14.9245 59.9727 19.601 57.0046 24.9361C54.8147 28.8643 51.0158 31.3819 50.6218 31.9762C49.9768 32.3492 50.2149 33.2775 50.9172 33.3423C55.1591 33.7333 60.9825 34.8988 64.4288 36.6219C65.993 37.4045 66.8165 38.3913 67.0197 39.7282C67.327 41.748 65.73 43.7384 64.5029 44.0948C64.4126 44.121 64.3337 44.1664 64.2632 44.2201C63.4983 44.0126 62.8156 43.9363 62.0516 43.7851C59.4641 43.2695 58.6584 43.5179 53.4128 43.3522C53.0218 43.3276 52.6635 43.6599 52.65 44.0678C52.6375 44.4762 52.9582 44.8177 53.3666 44.8311C60.0161 45.0395 58.3142 44.6643 62.6103 45.3879C63.5735 45.5516 64.3354 45.6807 65.0924 46.1729C65.9747 46.746 66.9581 48.2514 66.8464 49.1905C66.6586 50.774 65.2022 52.0502 64.24 52.2679Z" fill="#E2EAFC"></path><path id="Vector_2" d="M63.4145 18.5084L66.0209 13.6679C66.2145 13.3082 66.0806 12.8598 65.7204 12.6662C65.3602 12.4721 64.9123 12.6079 64.7187 12.9667L62.1123 17.8072C61.9187 18.167 62.0526 18.6153 62.4128 18.8089C62.7733 19.0032 63.2208 18.8673 63.4145 18.5084Z" fill="#E2EAFC"></path><path id="Vector_3" d="M70.5411 18.4062C70.3225 18.0618 69.8669 17.9583 69.5202 18.1779L64.9633 21.0708C64.6185 21.2899 64.5164 21.747 64.736 22.0918C64.9542 22.4363 65.4112 22.5389 65.757 22.3201L70.3138 19.4271C70.6586 19.208 70.7607 18.751 70.5411 18.4062Z" fill="#E2EAFC"></path><path id="Vector_4" d="M71.2366 26.0057L66.7751 25.3122C66.3715 25.2501 65.993 25.5265 65.9304 25.9296C65.8678 26.3332 66.1442 26.7112 66.5478 26.7743L71.0093 27.4678C71.4219 27.5297 71.7922 27.2473 71.854 26.8504C71.9166 26.4468 71.6401 26.0688 71.2366 26.0057Z" fill="#E2EAFC"></path><path id="Vector_5" d="M17.9219 41.1592C16.9194 41.1592 16.1066 42.097 16.1066 43.2537C16.1066 44.4105 16.9194 45.3483 17.9219 45.3483C18.9245 45.3483 19.7372 44.4105 19.7372 43.2537C19.7372 42.097 18.9245 41.1592 17.9219 41.1592Z" fill="#E2EAFC"></path><path id="Vector_6" d="M41.8392 14.2121L36.9886 14.2742L34.1867 10.3131C33.8294 9.80593 33.0548 9.94327 32.8768 10.5207L31.4358 15.1536L26.8039 16.5931C26.3576 16.7323 26.1248 17.2628 26.4093 17.6998C26.4589 18.064 26.5086 18.4282 26.5583 18.7925C27.8689 19.6825 29.2298 20.5725 30.5478 21.4624L30.4958 25.556C30.4892 26.0321 30.9418 26.4191 31.4436 26.2716C31.6697 26.3665 31.8787 26.5022 32.0484 26.6793C33.6435 25.7576 35.2154 24.755 36.6797 23.6343L40.1594 24.8149C40.4252 24.9025 40.7209 24.836 40.9203 24.6372C41.1197 24.4383 41.1881 24.143 41.0975 23.8767L39.5401 19.2823L42.4412 15.3944C42.7995 14.9143 42.4732 14.2196 41.8392 14.2121ZM38.1223 18.7087C37.9759 18.9038 37.9364 19.1581 38.0144 19.3888L39.2155 22.9323L35.6729 21.7303C35.4417 21.6537 35.1884 21.6922 34.9929 21.8381L31.9945 24.0761L32.0417 20.3346C32.0446 20.0914 31.928 19.8622 31.7286 19.7215L28.6744 17.5611L32.2468 16.451C32.479 16.3788 32.661 16.1968 32.7332 15.9642L33.8448 12.3912L36.0052 15.446C36.1458 15.6444 36.4136 15.7874 36.6187 15.7585L40.3597 15.7108L38.1223 18.7087Z" fill="#E2EAFC"></path></g></g></g></g></g><defs><clipPath id="clip0_1_763"><rect width="1440" height="18336" fill="white" transform="translate(-844 -10664)"></rect></clipPath></defs></svg> 