<?xml version="1.0" encoding="UTF-8"?> <svg xmlns="http://www.w3.org/2000/svg" width="71" height="73" viewBox="0 0 71 73" fill="none"><path d="M69.4468 10.9103L62.9077 8.70361L65.2006 6.41069C65.0668 5.80109 65.0059 5.46364 64.929 5.22044C65.0334 4.4091 64.0769 3.97221 63.5241 4.52495L60.8558 7.19323C60.6618 5.15602 60.3857 3.23406 59.7933 0.64895C59.6609 0.073552 58.9809 -0.193558 58.4929 0.157519C54.3715 3.10958 50.9609 4.14917 50.468 7.93887C50.2761 7.70294 50.0837 7.47571 49.8902 7.26913C49.6325 6.99297 49.2237 6.92557 48.891 7.09952C43.8593 9.74477 43.8593 10.6004 43.8593 10.9222C43.8593 11.2719 44.063 11.5712 45.5439 14.2503C46.4863 15.9583 47.8883 17.5917 48.8108 19.2383L42.9826 25.0664C41.4712 23.5598 40.7957 23.0919 38.4709 21.4228C28.6529 14.3012 15.5146 13.1173 7.68087 21.7449C7.69908 21.7189 7.71376 21.6898 7.73211 21.6639C7.25686 22.0264 6.53499 22.4695 5.87429 23.1989C-3.56088 33.6152 -0.806716 52.0551 8.29747 61.5277C13.363 66.7982 17.3353 69.9077 23.7773 71.3515C30.0175 72.75 36.1314 72.3934 42.3829 68.2257C47.6339 64.7251 52.2742 57.5912 52.3586 50.6117C53.6819 42.2889 50.2991 33.3895 44.7022 26.909L51.3838 20.2275C54.9891 22.4643 59.4161 23.6973 59.9716 23.6973C60.572 23.6973 60.7526 23.1446 61.049 22.8329C61.8688 21.7718 63.1083 20.1692 63.7481 19.2168C63.8807 19.02 63.9226 18.7754 63.8639 18.5449C63.7401 18.0589 63.4315 18.0804 62.8908 17.6251C64.2689 17.5566 65.6981 17.387 66.0476 17.1532C66.9418 16.5574 67.91 15.1918 69.8801 12.1563C70.0209 11.9399 70.0535 11.6714 69.9687 11.4278C69.8839 11.1832 69.6909 10.9929 69.4468 10.9103ZM45.6815 11.0288C46.268 10.5526 47.6896 9.65888 49.0883 8.8902C49.7786 9.72623 50.5119 10.8011 51.2487 11.5898C51.9197 12.3089 53.0663 11.4677 52.5882 10.6124C51.6863 9.00001 52.0641 6.85272 53.4672 5.6198C54.8433 4.40995 56.5957 3.45224 58.4293 2.22979C59.3456 6.66347 59.1051 8.16008 59.3962 8.65285L57.5954 10.4536L56.9724 9.20768C56.7669 8.79561 56.2636 8.62818 55.8526 8.83367C55.44 9.03915 55.2725 9.54037 55.4786 9.95352C56.4416 11.7664 56.0823 11.3254 56.4069 11.6422L53.7735 14.2756L52.3783 12.7412C52.0685 12.3998 51.5401 12.3748 51.1987 12.6847C50.8573 12.9945 50.8323 13.5218 51.1421 13.8632L52.5912 15.4579L50.0233 18.0258C48.2386 15.0648 48.393 16.1068 45.6815 11.0288ZM29.3811 38.668C28.1387 37.671 26.8433 37.2819 26.3499 37.8125C25.7998 38.4038 26.4553 39.9076 27.814 41.1712C30.1588 43.3519 32.4401 43.0042 31.0482 40.5632L33.3788 38.2325C35.6965 42.1445 35.1088 46.8204 31.0565 47.2175C29.0685 47.4208 26.7369 46.4694 24.8093 44.6929C18.0111 38.4315 21.8706 29.511 29.3284 34.3391C30.265 34.945 31.0817 35.5204 31.8181 36.231L29.3811 38.668ZM33.0082 35.0409C32.1618 34.2194 31.2361 33.5839 30.2362 32.9366C26.5293 30.5393 22.8251 30.7958 20.799 33.5922C16.7393 39.1593 23.7804 49.6092 31.2196 48.8798C36.1044 48.3978 38.2629 42.7706 34.5883 37.023L39.1564 32.455C47.0534 42.5865 44.5739 55.6108 34.0953 57.2592C29.5203 57.9757 24.3907 56.3437 20.0281 52.7743C12.1962 46.352 9.32756 35.6949 13.6346 29.0182C18.099 22.0974 27.1976 22.5812 34.0122 27.5461C35.5698 28.67 36.7073 29.6481 37.5129 30.5361L33.0082 35.0409ZM48.4724 56.8101C43.8499 64.7888 34.4022 66.9443 25.2376 63.837C25.1343 63.8098 25.0419 63.7815 24.9185 63.7348C8.41311 57.9027 -0.361705 37.9788 6.79266 25.7782C12.9427 15.1438 26.8261 15.037 37.4902 22.7753C39.4783 24.2184 40.2244 24.6739 41.802 26.247L38.6942 29.3549C37.8112 28.3945 36.6072 27.3591 34.9923 26.1936C27.2621 20.5632 17.1511 20.4872 12.231 28.1136C7.47925 35.4797 10.5018 47.1218 18.9697 54.066C23.3166 57.6234 28.9174 59.7651 34.3547 58.9085C46.2437 57.0388 49.1552 42.3883 40.3478 31.2635L43.5202 28.0911C50.2964 35.9908 53.6359 47.9429 48.4724 56.8101ZM65.1996 15.7083C64.613 15.842 61.9585 16.1073 60.6506 15.9507C59.7116 15.8562 59.3592 17.1012 60.1662 17.5207C60.7019 17.7995 61.237 18.4258 61.8867 18.9624C61.2208 19.8817 60.324 21.0402 59.6427 21.9218C57.2021 21.2948 54.6744 20.2459 52.5979 19.0133L56.0778 15.5334L56.4712 15.9692C56.7809 16.3126 57.3101 16.3389 57.6503 16.0301C57.9928 15.7224 58.0205 15.194 57.7118 14.8515L57.2601 14.3512L61.5894 10.0219L67.8916 12.1487C66.5825 14.1405 65.7595 15.2821 65.1996 15.7083Z" fill="#1B395F"></path></svg> 