<svg width="40" height="40" viewBox="0 0 40 40" fill="none" xmlns="http://www.w3.org/2000/svg">
<path d="M20 38.75C30.35 38.75 38.75 30.35 38.75 20C38.75 9.65 30.35 1.25 20 1.25C9.65 1.25 1.25 9.65 1.25 20C1.25 30.35 9.65 38.75 20 38.75ZM12.8125 18.125L22.6625 18.125L20.2375 15.7C19.5125 14.975 19.5125 13.775 20.2375 13.05C20.9625 12.325 22.1625 12.325 22.8875 13.05L28.5125 18.675C29.25 19.4 29.25 20.5875 28.5125 21.325L22.8875 26.95C22.1606 27.6769 20.9644 27.6769 20.2375 26.95C19.5106 26.2231 19.5106 25.0269 20.2375 24.3L22.6625 21.875L12.8125 21.875C11.775 21.875 10.9375 21.0375 10.9375 20C10.9375 18.9625 11.775 18.125 12.8125 18.125Z" fill="#FF6767"/>
</svg>
