<svg width="233" height="289" viewBox="0 0 233 289" fill="none" xmlns="http://www.w3.org/2000/svg">
<g opacity="0.5" clip-path="url(#clip0_74_30)">
<path d="M14.0498 152.334C19.1221 144.814 25.1839 137.99 32.0768 132.039C37.1861 127.655 41.8011 122.703 46.7044 118.096L55.3161 109.978C58.0975 107.381 60.6727 104.499 63.3098 101.739C66.3796 98.4915 69.3669 95.1631 72.3336 91.8348C75.63 88.1817 78.8027 84.4271 82.1197 80.774C86.5948 75.7705 91.6258 71.2775 97.1182 67.3794C101.158 64.4822 105.446 61.9358 109.933 59.7688C117.809 56.0858 126.454 54.2783 135.171 54.4921C145.916 54.7505 156.313 58.297 164.92 64.6396C170.693 68.7673 175.522 74.0427 179.095 80.1246C184.551 89.4629 187.547 99.9984 187.809 110.77C188.136 114.226 188.039 117.708 187.521 121.141C186.174 128.736 183.112 135.935 178.559 142.207C174.364 148.164 168.252 152.555 161.212 154.668C157.25 155.689 153.112 155.862 149.077 155.175C138.034 153.714 131.833 146.428 126.621 137.762C123.407 132.465 120.955 126.783 118.091 121.303C117.609 120.203 116.909 119.209 116.031 118.381C116.731 118.381 116.567 118.056 116.34 117.67C113.972 112.986 110.639 108.839 106.554 105.493C103.827 103.224 100.449 101.848 96.8915 101.556C92.1939 101.212 87.4737 101.791 83.0056 103.261C75.4554 106.079 68.2425 109.707 61.4968 114.078C54.3039 118.711 47.3714 123.724 40.7297 129.096C33.6632 134.718 26.885 140.705 20.1275 146.773C18.2581 148.786 16.2255 150.646 14.0498 152.334Z" fill="#E9F5DB"/>
<path d="M58.0365 230.713C60.2616 231.322 62.4042 230.429 64.588 230.347C69.7493 229.825 74.9513 230.836 79.5247 233.25C83.8356 235.856 87.3853 239.52 89.8258 243.884C91.2474 246.279 92.6689 248.653 93.9463 251.069C94.3089 251.746 94.8589 252.309 95.5326 252.692C95.5326 253.017 95.3472 253.402 95.5326 253.626C100.106 261.175 106.287 266.533 115.331 268.38C122.623 269.864 130.129 270.022 137.479 268.847C142.479 267.863 147.386 266.464 152.148 264.666C141.887 274.471 129.292 281.582 115.517 285.347C107.411 287.752 98.9918 288.976 90.5263 288.98C81.4904 289.003 72.5027 287.682 63.867 285.063C55.4025 282.443 47.3566 278.658 39.9683 273.819C30.1574 267.411 21.7507 259.13 15.2456 249.465C6.59385 236.737 1.4664 222.004 0.370759 206.724C-0.288649 198.372 0.287368 189.97 2.08075 181.782C2.61466 178.006 3.76249 174.34 5.48013 170.924C5.69676 171.542 5.69676 172.214 5.48013 172.832C4.8071 176.705 4.38048 180.616 4.20278 184.542C3.77429 191.349 4.52675 198.177 6.42783 204.735C8.81957 212.991 14.0577 220.168 21.2409 225.03C26.153 228.592 31.8373 230.982 37.8463 232.012C42.1783 232.62 46.5761 232.62 50.9081 232.012C53.3481 232.048 55.7712 231.607 58.0365 230.713Z" fill="#E9F5DB"/>
<path d="M58.0359 230.713C55.7449 231.618 53.2927 232.059 50.8251 232.012C46.493 232.621 42.0953 232.621 37.7632 232.012C31.7543 230.982 26.07 228.592 21.1578 225.031C13.9746 220.168 8.73652 212.992 6.34478 204.736C4.4437 198.178 3.69124 191.349 4.11973 184.542C4.29743 180.616 4.72405 176.705 5.39707 172.832C5.6137 172.214 5.6137 171.542 5.39707 170.924C7.02465 164.166 10.6094 158.301 14.0912 152.395C16.2542 150.751 18.2798 148.939 20.1483 146.976C26.8234 140.888 33.6016 134.921 40.7506 129.299C47.3922 123.927 54.3248 118.914 61.5176 114.281C68.2633 109.91 75.4762 106.283 83.0264 103.464C87.4945 101.994 92.2147 101.415 96.9123 101.759C100.47 102.051 103.847 103.427 106.575 105.696C110.66 109.042 113.993 113.189 116.361 117.873C116.588 118.259 116.752 118.604 116.052 118.584C107.255 114.322 98.3957 114.849 89.6191 118.421C78.2908 123.097 67.9862 129.885 59.272 138.412C54.0217 143.351 49.4066 148.906 45.5303 154.952C41.5211 161.404 38.364 168.333 36.1357 175.572C34.9367 179.343 34.2441 183.253 34.0754 187.201C33.9407 190.41 34.1131 193.624 34.5905 196.8C35.176 200.611 36.285 204.325 37.8868 207.841C40.6519 214.073 44.6835 219.682 49.7331 224.32C52.2761 226.72 55.0577 228.862 58.0359 230.713Z" fill="#D8F3DC"/>
<path d="M152.045 264.666C147.284 266.465 142.377 267.863 137.376 268.847C130.026 270.022 122.521 269.864 115.229 268.381C106.184 266.534 100.004 261.176 95.4299 253.626C95.3063 253.403 95.4299 253.017 95.4299 252.692C104.276 256.484 113.803 258.492 123.449 258.598C131.333 258.945 139.055 256.318 145.04 251.252C151.089 245.948 156.103 239.6 159.833 232.519C161.743 228.556 163.89 224.706 166.261 220.992C166.825 220.045 167.671 219.292 168.685 218.835C169.698 218.377 170.83 218.238 171.926 218.435C172.952 218.668 173.878 219.212 174.573 219.992C175.268 220.771 175.697 221.745 175.799 222.778C176.258 225.185 176.037 227.67 175.161 229.962C171.153 240.641 165.213 250.515 157.628 259.106C155.939 261.12 154.071 262.981 152.045 264.666Z" fill="#D8F3DC"/>
<path d="M232.495 34.8877C233.278 35.6589 232.598 36.3489 232.269 36.9172C228.668 44.2786 222.932 50.4231 215.787 54.5738C207.242 59.7459 197.311 62.257 187.294 61.7785C178.673 61.756 170.272 59.0967 163.251 54.1679C160.866 52.6903 158.772 50.7994 157.07 48.5868C163.416 47.4097 169.761 46.334 176.127 45.2584C187.15 43.3913 198.131 41.1994 209.091 39.1699C215.807 37.9725 222.565 36.9172 229.24 35.5168C230.435 35.4357 231.671 35.943 232.495 34.8877Z" fill="#E9F5DB"/>
<path d="M232.497 34.8864C231.673 35.9417 230.437 35.4343 229.407 35.6576C222.732 37.0579 215.974 38.1133 209.258 39.3107C198.236 41.2387 187.255 43.3697 176.294 45.3991C169.928 46.4748 163.583 47.5504 157.237 48.7275C158.019 45.8593 159.425 43.193 161.358 40.914C171.659 27.4584 185.874 21.9382 202.562 22.1411C212.163 22.0915 221.484 25.3267 228.933 31.2942C230.19 32.4236 231.38 33.6229 232.497 34.8864Z" fill="#D8F3DC"/>
<path d="M178.6 159.518C181.02 160.647 183.048 162.455 184.428 164.717C185.807 166.978 186.477 169.591 186.353 172.226C186.229 174.861 185.316 177.402 183.73 179.527C182.144 181.653 179.955 183.269 177.439 184.172C174.922 185.076 172.191 185.225 169.588 184.603C166.986 183.981 164.628 182.614 162.812 180.675C160.996 178.736 159.803 176.311 159.382 173.706C158.962 171.1 159.333 168.431 160.449 166.032C161.189 164.416 162.25 162.962 163.569 161.755C164.888 160.549 166.439 159.614 168.131 159.007C169.822 158.4 171.62 158.133 173.418 158.22C175.215 158.308 176.977 158.749 178.6 159.518Z" fill="#E9F5DB"/>
<path d="M122.77 0C135.625 0.913273 143.928 8.118 149.449 18.9555C152.412 24.6279 153.479 31.0777 152.499 37.3833C152.193 40.209 151.273 42.9364 149.8 45.3795C145.247 37.9718 140.673 30.5845 136.14 23.1769C132.679 17.5146 129.218 11.8725 125.839 6.14937C124.494 4.27132 123.458 2.19603 122.77 0Z" fill="#D8F3DC"/>
<path d="M122.77 0.000364517C123.484 2.17888 124.541 4.23341 125.902 6.08885C129.219 11.812 132.68 17.454 136.203 23.1163C140.736 30.524 145.309 37.9113 149.862 45.319C147.669 45.9646 145.309 45.7763 143.249 44.7913C129.239 40.022 121.514 30.0166 119.433 15.7493C118.625 10.8066 119.411 5.73891 121.678 1.25867C121.884 0.812183 121.843 -0.0199304 122.77 0.000364517Z" fill="#E9F5DB"/>
<path d="M169.494 195.014C170.656 194.506 171.923 194.27 173.193 194.325C174.464 194.379 175.704 194.722 176.818 195.328C177.931 195.933 178.887 196.784 179.611 197.814C180.335 198.844 180.807 200.025 180.99 201.265C181.192 202.578 181.065 203.921 180.618 205.174C180.171 206.427 179.418 207.554 178.426 208.454C177.434 209.354 176.233 210.001 174.929 210.337C173.624 210.673 172.256 210.689 170.943 210.383C169.631 210.077 168.415 209.458 167.402 208.581C166.389 207.704 165.61 206.595 165.133 205.352C164.657 204.11 164.497 202.771 164.668 201.453C164.839 200.135 165.336 198.879 166.115 197.794C166.342 197.49 166.61 197.186 166.836 196.901L169.494 195.014Z" fill="#D8F3DC"/>
</g>
<defs>
<clipPath id="clip0_74_30">
<rect width="233" height="289" fill="white"/>
</clipPath>
</defs>
</svg>
