<svg width="40" height="40" viewBox="0 0 40 40" fill="none" xmlns="http://www.w3.org/2000/svg">
<path d="M16.04 35.7707C23.5392 35.7707 29.6185 29.6914 29.6185 22.1922C29.6185 14.6931 23.5392 8.61377 16.04 8.61377C8.54083 8.61377 2.46155 14.6931 2.46155 22.1922C2.46155 29.6914 8.54083 35.7707 16.04 35.7707Z" fill="#B7F07A"/>
<path d="M16.1935 32.6874L16.0213 32.3939C13.3905 27.9116 6.39961 18.3995 6.329 18.3039L6.22815 18.1669L8.60992 15.8131L16.1493 21.0776C20.8963 14.9177 25.3249 10.6868 28.2137 8.21609C31.3738 5.5134 33.4308 4.26917 33.4515 4.25725L33.4983 4.22925H37.5385L37.1525 4.57294C27.2272 13.4134 16.4692 32.2029 16.3621 32.3917L16.1935 32.6874Z" fill="#679436"/>
</svg>
