<svg width="451" height="181" viewBox="0 0 451 181" fill="none" xmlns="http://www.w3.org/2000/svg">
<path fill-rule="evenodd" clip-rule="evenodd" d="M425 179.825C425 180.681 423.994 181.142 423.346 180.582L381 144H236.039C236.026 144 236.013 144 236 144H32C18.7452 144 8 133.255 8 120V32C8 18.7452 18.7452 8.00003 32 8.00003L230 8H427C440.255 8 451 18.7452 451 32V120C451 133.255 440.255 144 427 144H425V179.825Z" fill="#F08700"/>
<path fill-rule="evenodd" clip-rule="evenodd" d="M417 171.825C417 172.681 415.994 173.142 415.346 172.582L373 136H228.039C228.026 136 228.013 136 228 136H24C10.7452 136 0 125.255 0 112V24C0 10.7452 10.7452 3.05176e-05 24 3.05176e-05L222 0H419C432.255 0 443 10.7452 443 24V112C443 125.255 432.255 136 419 136H417V171.825Z" fill="white"/>
</svg>
