<svg width="108" height="20" viewBox="0 0 108 20" fill="none" xmlns="http://www.w3.org/2000/svg">
<path d="M9.99996 1.66699L12.575 6.88366L18.3333 7.72533L14.1666 11.7837L15.15 17.517L9.99996 14.8087L4.84996 17.517L5.83329 11.7837L1.66663 7.72533L7.42496 6.88366L9.99996 1.66699Z" fill="#F9A422"/>
<path d="M32 1.66699L34.575 6.88366L40.3333 7.72533L36.1666 11.7837L37.15 17.517L32 14.8087L26.85 17.517L27.8333 11.7837L23.6666 7.72533L29.425 6.88366L32 1.66699Z" fill="#F9A422"/>
<path d="M54 1.66699L56.575 6.88366L62.3333 7.72533L58.1666 11.7837L59.15 17.517L54 14.8087L48.85 17.517L49.8333 11.7837L45.6666 7.72533L51.425 6.88366L54 1.66699Z" fill="#F9A422"/>
<path d="M76 1.66699L78.575 6.88366L84.3333 7.72533L80.1666 11.7837L81.15 17.517L76 14.8087L70.85 17.517L71.8333 11.7837L67.6666 7.72533L73.425 6.88366L76 1.66699Z" fill="#F9A422"/>
<path d="M98.0001 1.66699L100.575 6.88366L106.333 7.72533L102.167 11.7837L103.15 17.517L98.0001 14.8087L92.8501 17.517L93.8334 11.7837L89.6667 7.72533L95.4251 6.88366L98.0001 1.66699Z" fill="#F9A422"/>
</svg>