<svg width="240" height="240" viewBox="0 0 240 240" fill="none" xmlns="http://www.w3.org/2000/svg">
<g opacity="0.1">
<path d="M176.505 58.3649V33.4874L183.938 34.8899V20.5874L93.1875 1.4849V1.2749L0 20.9399V35.3699L10.83 33.3374V228.772L92.8275 238.717L107.497 236.7V193.132L130.417 191.782V233.925L144.653 232.207V190.702L165.24 189.51V229.725L176.498 228.367L234.3 221.497V78.2849L240 79.0199V67.7924L176.505 58.3649ZM73.47 69.9449L87.6075 68.2799V80.0774L73.47 81.5024V69.9449ZM16.8375 76.7399L28.7475 75.3374V86.1599L16.8375 87.3524V76.7399ZM28.7475 178.642L16.8375 178.17V167.542L28.7475 167.835V178.642ZM28.7475 159.922L16.8375 159.765V149.137L28.7475 149.085V159.922ZM28.86 141.562L16.9425 141.75V131.115L28.86 130.725V141.562ZM28.86 123.435L16.9425 123.952V113.325L28.86 112.605V123.435ZM28.86 104.4L16.9425 105.262V94.6349L28.86 93.5624V104.4ZM28.9575 68.0399L17.04 69.5699V58.9424L28.9575 57.2174V68.0399ZM28.9575 50.4974L17.04 52.3574V41.7299L28.9575 39.6749V50.4974ZM35.13 74.2874L47.7375 72.8024V83.9399L35.13 85.2149V74.2874ZM47.73 179.122L35.1225 178.627V167.685L47.73 167.992V179.122ZM47.73 159.862L35.1225 159.705V148.777L47.73 148.717V159.862ZM47.8425 140.962L35.2275 141.165V130.222L47.8425 129.81V140.962ZM47.8425 122.317L35.2275 122.865V111.93L47.8425 111.165V122.317ZM47.8425 102.705L35.2275 103.627V92.6999L47.8425 91.5674V102.705ZM47.955 65.3099L35.34 66.9299V55.9949L47.955 54.1574V65.3099ZM47.955 47.2499L35.34 49.2149V38.2874L47.955 36.1124V47.2499ZM53.58 72.2249L66.9075 70.6574V82.1099L53.58 83.4599V72.2249ZM66.9075 180.015L53.58 179.467V168.232L66.9075 168.562V180.015ZM66.9075 160.185L53.58 160.027V148.792L66.9075 148.725V160.185ZM67.035 140.76L53.7 140.97V129.735L67.035 129.285V140.76ZM67.035 121.575L53.7 122.16V110.925L67.035 110.122V121.575ZM67.035 101.422L53.7 102.382V91.1474L67.035 89.9549V101.422ZM67.1475 62.9474L53.8125 64.6574V53.4224L67.1475 51.4799V62.9474ZM67.1475 44.3774L53.8125 46.4399V35.2049L67.1475 32.9024V44.3774ZM87.6075 180.915L73.47 180.337V168.772L87.6075 169.117V180.915ZM87.6075 160.492L73.47 160.335V148.77L87.6075 148.702V160.492ZM87.7275 140.482L73.59 140.707V129.135L87.7275 128.67V140.482ZM87.7275 120.72L73.59 121.342V109.77L87.7275 108.922V120.72ZM87.7275 99.9674L73.59 101.002V89.4299L87.7275 88.1624V99.9674ZM87.855 60.3299L73.7175 62.1524V50.5799L87.855 48.5324V60.3299ZM87.855 41.2124L73.7175 43.4099V31.8374L87.855 29.4074V41.2124ZM158.527 56.5274L170.325 58.2449V69.3749L158.527 67.8599V56.5274ZM158.527 93.5099L170.325 94.5674V105.697L158.527 104.85V93.5099ZM140.452 53.6174L152.917 55.4399V66.8774L140.452 65.2649V53.6174ZM140.452 91.6349L152.917 92.7449V104.182L140.452 103.282V91.6349ZM121.717 50.8499L134.888 52.7774V64.5299L121.717 62.8274V50.8499ZM121.717 89.9174L134.888 91.1024V102.847L121.717 101.895V89.9174ZM100.47 47.5874L114.45 49.6349V61.7474L100.47 59.9399V47.5874ZM114.698 69.6524V81.7499L100.725 80.3399V67.9949L114.698 69.6524ZM100.47 87.8624L114.45 89.1224V101.227L100.47 100.207V87.8624ZM114.36 180.63L100.373 181.2V168.847L114.36 168.517V180.63ZM114.562 160.815L100.583 160.987V148.642L114.562 148.71V160.815ZM114.57 140.527L100.59 140.31V127.965L114.57 128.437V140.527ZM114.817 121.282L100.852 120.667V108.322L114.817 109.177V121.282ZM114.938 42.5624L100.98 40.3724V28.0274L114.938 30.4574V42.5624ZM134.542 179.887L121.373 180.427V168.45L134.542 168.127V179.887ZM134.752 160.687L121.583 160.852V148.875L134.752 148.935V160.687ZM134.752 141L121.583 140.79V128.805L134.752 129.247V141ZM134.993 122.07L121.83 121.5V109.515L134.993 110.325V122.07ZM135.105 83.9399L121.95 82.6199V70.6499L135.105 72.1949V83.9399ZM135.105 45.6374L121.95 43.5824V31.5899L135.105 33.8849V45.6374ZM152.212 179.167L139.717 179.677V168L152.212 167.707V179.167ZM152.805 160.477L140.325 160.642V148.972L152.805 149.032V160.477ZM152.805 141.315L140.34 141.127V129.457L152.805 129.877V141.315ZM153.015 122.895L140.565 122.347V110.692L153.015 111.457V122.895ZM153.135 85.7849L140.67 84.5324V72.8774L153.135 74.3474V85.7849ZM153.135 48.4949L140.67 46.5374V34.8824L153.135 37.0499V48.4949ZM170.145 178.567L158.325 179.047V167.7L170.145 167.422V178.567ZM170.212 160.492L158.408 160.65V149.295L170.212 149.347V160.492ZM170.228 141.847L158.415 141.667V130.32L170.228 130.71V141.847ZM170.423 123.915L158.632 123.405V112.065L170.423 112.785V123.915ZM170.535 87.7874L158.738 86.6024V75.2624L170.535 76.6499V87.7874ZM170.535 51.4724L158.738 49.6199V38.2874L170.535 40.3424V51.4724ZM217.86 98.9099L227.67 99.8849V110.032L217.86 109.23V98.9099ZM203.22 97.4099L213.495 98.4374V108.84L203.22 108V97.4099ZM186.915 78.1574L197.753 79.5524V90.2249L186.915 89.0249V78.1574ZM186.72 95.6324L197.55 96.7274V107.4L186.72 106.507V95.6324ZM197.497 177.397L186.652 177.735V166.875L197.497 166.717V177.397ZM197.655 159.922L186.825 159.967V149.1L197.655 149.257V159.922ZM197.655 142.05L186.825 141.772V130.912L197.655 131.385V142.05ZM197.842 125.085L187.02 124.5V113.64L197.842 114.412V125.085ZM213.24 177L202.943 177.322V166.747L213.24 166.59V177ZM213.405 160.005L203.122 160.042V149.46L213.405 149.61V160.005ZM213.405 142.59L203.122 142.327V131.752L213.405 132.202V142.59ZM213.592 125.85L203.31 125.295V114.72L213.592 115.455V125.85ZM213.682 92.1074L203.408 90.9749V80.3999L213.682 81.7124V92.1074ZM227.115 176.565L217.29 176.865V166.537L227.115 166.387V176.565ZM227.565 159.99L217.762 160.027V149.7L227.565 149.85V159.99ZM227.573 142.987L217.77 142.74V132.412L227.573 132.84V142.987ZM227.745 126.63L217.95 126.112V115.792L227.745 116.49V126.63ZM227.835 93.6974L218.04 92.6099V82.2824L227.835 83.5349V93.6974Z" fill="#828282"/>
</g>
</svg>
