<svg width="26" height="16" viewBox="0 0 26 16" fill="none" xmlns="http://www.w3.org/2000/svg">
<path d="M23.053 6.78452C23.4227 6.30656 23.7162 5.92305 23.933 5.63372C25.4942 3.55806 26.1709 2.23212 25.9635 1.65404L25.8821 1.51865C25.8281 1.43733 25.6879 1.36265 25.4625 1.29505C25.2368 1.22751 24.9481 1.21671 24.5963 1.2613L20.6976 1.2888C20.6075 1.27982 20.5165 1.28192 20.4268 1.29505C20.3366 1.30878 20.278 1.32255 20.2508 1.33569C20.2235 1.34946 20.2011 1.3605 20.1832 1.36949L20.1291 1.41012C20.084 1.43704 20.0344 1.48456 19.9803 1.55245C19.9262 1.62029 19.8807 1.69892 19.8449 1.78947C19.4207 2.88137 18.938 3.89678 18.3964 4.83536C18.0625 5.39493 17.7555 5.88037 17.4761 6.29044C17.1963 6.70144 16.9616 7.00367 16.7721 7.19732C16.5826 7.39132 16.411 7.54732 16.2577 7.66424C16.1041 7.782 15.9869 7.83133 15.9059 7.81341C15.8289 7.79662 15.7521 7.77848 15.6757 7.759C15.5493 7.67802 15.4477 7.56769 15.3712 7.42751C15.2944 7.28797 15.2427 7.11185 15.2154 6.89964C15.1885 6.68771 15.1724 6.5048 15.1682 6.35115C15.1634 6.19783 15.1658 5.98142 15.1751 5.70131C15.1841 5.4215 15.1885 5.23234 15.1885 5.1328C15.1885 4.79023 15.1954 4.41782 15.2089 4.0161C15.2224 3.61467 15.2337 3.29632 15.2427 3.06164C15.2517 2.8273 15.2561 2.57889 15.2561 2.31706C15.2561 2.0558 15.2403 1.85013 15.2085 1.70102C15.1766 1.55204 15.129 1.40686 15.0665 1.2679C15.0032 1.12831 14.9108 1.01978 14.7888 0.943299C14.6669 0.866472 14.5159 0.805811 14.3354 0.76034C13.8568 0.651814 13.2477 0.59384 12.5079 0.584316C10.8292 0.566977 9.75076 0.675161 9.27251 0.909501C9.08301 1.00904 8.91143 1.14413 8.75811 1.31571C8.59552 1.5145 8.5731 1.62297 8.69057 1.64031C9.23217 1.72163 9.61543 1.91592 9.84107 2.2226L9.92239 2.3849C9.98545 2.50265 10.0485 2.71013 10.1119 3.00782C10.175 3.30555 10.2156 3.63494 10.2339 3.99602C10.279 4.65479 10.279 5.21857 10.2339 5.68818C10.1887 6.15774 10.146 6.52302 10.1054 6.78427C10.0647 7.04611 10.0037 7.25803 9.92269 7.42033C9.84136 7.58322 9.7873 7.68246 9.76009 7.71861C9.73289 7.75445 9.71047 7.77717 9.69254 7.7862C9.57589 7.831 9.45198 7.8539 9.32702 7.85375C9.20057 7.85375 9.04721 7.79035 8.86669 7.6639C8.68612 7.53809 8.49872 7.36411 8.30501 7.14291C8.11072 6.92205 7.89221 6.61269 7.64829 6.21542C7.40467 5.81878 7.15177 5.34917 6.89023 4.80786L6.67381 4.41508C6.53843 4.16282 6.35337 3.79485 6.11873 3.3121C5.8841 2.82935 5.67633 2.36248 5.49611 1.91084C5.42377 1.72163 5.31554 1.57726 5.17121 1.47772L5.10367 1.43708C5.05854 1.40119 4.9862 1.36265 4.88696 1.32226C4.78673 1.28141 4.68227 1.25184 4.5755 1.2341L0.866346 1.26101C0.487338 1.26101 0.230286 1.34712 0.0948985 1.51865L0.0407824 1.59968C0.0134313 1.6451 0 1.71743 0 1.81638C0 1.91592 0.0272046 2.03759 0.0813207 2.18167C0.622921 3.45442 1.2118 4.68175 1.84786 5.86361C2.48426 7.04611 3.03695 7.99842 3.50622 8.72029C3.97548 9.44275 4.45374 10.1236 4.94127 10.7645C5.4288 11.4053 5.7513 11.8157 5.90911 11.996C6.06691 12.1768 6.19097 12.3123 6.28128 12.4022L6.61965 12.7274C6.83606 12.9438 7.15441 13.2032 7.57411 13.5058C7.99375 13.8082 8.45828 14.106 8.96852 14.3989C9.47818 14.6925 10.0718 14.9312 10.7485 15.1166C11.4252 15.3019 12.084 15.3763 12.7249 15.3398H14.2816C14.5976 15.3129 14.8366 15.214 14.999 15.0421L15.0531 14.9746C15.0889 14.9207 15.123 14.8371 15.1547 14.7243C15.1861 14.6117 15.2023 14.4873 15.2023 14.3522C15.1929 13.9643 15.2226 13.6139 15.2901 13.3031C15.3577 12.9916 15.4345 12.7573 15.5203 12.5989C15.6061 12.4413 15.7029 12.308 15.8114 12.1995C15.9197 12.091 15.9961 12.0261 16.0416 12.0034C16.0867 11.9813 16.1229 11.9654 16.1498 11.9559C16.3662 11.8838 16.6212 11.9538 16.9147 12.1657C17.2079 12.3783 17.4833 12.6395 17.7406 12.9509C17.9976 13.2624 18.3067 13.6118 18.6678 14.0001C19.0286 14.388 19.3445 14.6768 19.6153 14.8663L19.8862 15.0292C20.0666 15.1371 20.301 15.2363 20.5901 15.3269C20.8788 15.4169 21.1317 15.4396 21.3481 15.3945L24.8136 15.3401C25.1565 15.3401 25.4228 15.2839 25.6124 15.1709C25.8018 15.0588 25.9146 14.9339 25.9507 14.7988C25.9866 14.6634 25.989 14.5107 25.9576 14.3387C25.926 14.1675 25.8943 14.0479 25.8629 13.9803C25.8313 13.9128 25.8019 13.856 25.7747 13.8112C25.3234 12.999 24.4616 12.0015 23.1891 10.8194L23.1619 10.7925L23.1485 10.7788L23.135 10.7656H23.1214C22.5437 10.215 22.1784 9.84491 22.025 9.65511C21.7453 9.29466 21.6819 8.92909 21.8356 8.55906C21.9431 8.27847 22.3491 7.68725 23.053 6.78452Z" fill="white"/>
</svg>
