<svg width="72" height="72" viewBox="0 0 72 72" fill="none" xmlns="http://www.w3.org/2000/svg">
<path d="M43.4036 54.6576H21.7529V57.4239C21.7529 58.4551 22.1625 59.4441 22.8917 60.1734C23.6208 60.9026 24.6097 61.3124 25.6409 61.3125H54.9899C56.021 61.3124 57.0099 60.9027 57.739 60.1736C58.4681 59.4445 58.8778 58.4556 58.8779 57.4245V24.3276L45.2373 10.6875H25.6409C24.6098 10.6875 23.6208 11.0971 22.8917 11.8263C22.1626 12.5554 21.7529 13.5443 21.7529 14.5755V34.4976H43.4036C43.6444 34.4975 43.8829 34.5449 44.1054 34.637C44.3279 34.7291 44.5301 34.8642 44.7004 35.0345C44.8707 35.2048 45.0057 35.407 45.0979 35.6295C45.19 35.852 45.2374 36.0905 45.2373 36.3313V52.8238C45.2373 53.0646 45.1899 53.3031 45.0977 53.5256C45.0056 53.748 44.8705 53.9502 44.7002 54.1205C44.5299 54.2907 44.3278 54.4258 44.1053 54.518C43.8828 54.6101 43.6444 54.6576 43.4036 54.6576Z" fill="#EAEAE4"/>
<path d="M58.8779 24.3276L45.2373 10.6875V20.4396C45.2375 21.4707 45.6471 22.4595 46.3762 23.1886C47.1053 23.9177 48.0942 24.3274 49.1253 24.3276H58.8779Z" fill="#BABAB9"/>
<path d="M43.4034 34.4976H14.9578C13.945 34.4976 13.124 35.3186 13.124 36.3313V52.8238C13.124 53.8366 13.945 54.6576 14.9578 54.6576H43.4034C44.4161 54.6576 45.2371 53.8366 45.2371 52.8238V36.3313C45.2371 35.3186 44.4161 34.4976 43.4034 34.4976Z" fill="#2568EF"/>
<path d="M23.9822 44.5715C23.9822 42.1977 22.0455 40.5215 19.3169 40.5215H16.4121V48.6344H19.3169C22.0455 48.6344 23.9822 46.9458 23.9822 44.5715ZM19.5413 47.0515H18.148V42.1015H19.5413C19.8789 42.0812 20.217 42.1301 20.535 42.2453C20.853 42.3604 21.144 42.5394 21.3903 42.7713C21.6365 43.0031 21.8327 43.2828 21.9668 43.5933C22.1009 43.9037 22.1701 44.2384 22.1701 44.5765C22.1701 44.9147 22.1009 45.2494 21.9668 45.5598C21.8327 45.8703 21.6365 46.15 21.3903 46.3818C21.144 46.6137 20.853 46.7927 20.535 46.9078C20.217 47.023 19.8789 47.0719 19.5413 47.0515Z" fill="#FFFCEE"/>
<path d="M33.7502 44.5713C33.7716 43.7143 33.5369 42.8703 33.0763 42.1473C32.6157 41.4242 31.9499 40.8549 31.1642 40.5121C30.3784 40.1693 29.5082 40.0685 28.6649 40.2226C27.8215 40.3767 27.0433 40.7788 26.4295 41.3774C25.8158 41.9759 25.3945 42.7439 25.2193 43.5832C25.0442 44.4224 25.1232 45.2948 25.4464 46.0889C25.7695 46.883 26.322 47.5627 27.0333 48.0413C27.7446 48.5198 28.5825 48.7754 29.4398 48.7755C30.5659 48.7796 31.6486 48.3413 32.4548 47.555C33.261 46.7687 33.7262 45.6972 33.7502 44.5713ZM26.9243 44.5713C26.9437 44.0766 27.1082 43.5986 27.3974 43.1967C27.6865 42.7948 28.0875 42.4868 28.5503 42.3112C29.0132 42.1355 29.5175 42.0999 30.0005 42.2087C30.4835 42.3176 30.9238 42.5661 31.2665 42.9233C31.6093 43.2806 31.8394 43.7308 31.9282 44.2178C32.017 44.7049 31.9605 45.2073 31.7658 45.6625C31.5712 46.1177 31.2469 46.5056 30.8334 46.7779C30.4199 47.0502 29.9354 47.1948 29.4403 47.1937C28.7623 47.1696 28.1204 46.8823 27.6508 46.3927C27.1811 45.9031 26.9202 45.2498 26.9243 44.5713Z" fill="#FFFCEE"/>
<path d="M39.1499 41.9626C39.5115 41.9703 39.8672 42.0555 40.1931 42.2123C40.5191 42.3691 40.8076 42.5939 41.0393 42.8716L42.3032 41.7376C41.8351 41.1977 41.2384 40.7844 40.5683 40.5361C39.8982 40.2877 39.1764 40.2122 38.4694 40.3166C37.7624 40.4209 37.0931 40.7018 36.5234 41.1332C35.9537 41.5646 35.5018 42.1326 35.2096 42.7847C34.9174 43.4369 34.7943 44.1522 34.8516 44.8645C34.9089 45.5768 35.1448 46.2632 35.5375 46.8603C35.9302 47.4574 36.467 47.9458 37.0984 48.2806C37.7298 48.6153 38.4353 48.7856 39.1499 48.7756C39.7397 48.773 40.3229 48.6515 40.8648 48.4184C41.4066 48.1853 41.8958 47.8453 42.3032 47.4188L41.0393 46.2854C40.8078 46.5633 40.5192 46.7881 40.1933 46.9449C39.8673 47.1016 39.5115 47.1865 39.1499 47.1938C38.4749 47.1658 37.8369 46.878 37.3693 46.3906C36.9016 45.9031 36.6405 45.2537 36.6405 44.5782C36.6405 43.9027 36.9016 43.2533 37.3693 42.7659C37.8369 42.2784 38.4749 41.9906 39.1499 41.9626Z" fill="#FFFCEE"/>
</svg>
