<svg width="64" height="64" viewBox="0 0 64 64" fill="none" xmlns="http://www.w3.org/2000/svg">
  <g clip-path="url(#clip0_148_4707)">
    <circle cx="32" cy="32" r="32" fill="#0D76C4"></circle>
    <path d="M19.7006 29.4587L18.0125 31.1519H19.7006V29.4587Z" fill="#FEC601"></path>
    <path d="M44.2957 29.4587L45.9844 31.1519H44.2957V29.4587Z" fill="#FEC601"></path>
    <path d="M44.3162 22.8306C44.3161 22.6649 44.2503 22.5059 44.133 22.3888L37.9193 16.175C37.8021 16.0578 37.6432 15.9919 37.4774 15.9919H20.3262C20.1604 15.9919 20.0014 16.0577 19.8842 16.1749C19.767 16.2922 19.7012 16.4511 19.7012 16.6169V47.3669C19.7012 47.5326 19.767 47.6916 19.8842 47.8088C20.0014 47.926 20.1604 47.9919 20.3262 47.9919H43.6912C43.8569 47.9919 44.0159 47.926 44.1331 47.8088C44.2503 47.6916 44.3162 47.5326 44.3162 47.3669V22.8306Z" fill="#F1F1F1"></path>
    <path d="M44.2957 22.675C44.2684 22.5666 44.2122 22.4677 44.1332 22.3888L37.9194 16.175C37.8022 16.0578 37.6433 15.9919 37.4775 15.9919V21.9244C37.4775 22.1233 37.5566 22.3141 37.6972 22.4547C37.8379 22.5954 38.0286 22.6744 38.2275 22.6744L44.2957 22.675Z" fill="#CCCCCC"></path>
    <path d="M44.2955 22.675H38.228C38.0291 22.675 37.8383 22.596 37.6977 22.4553C37.557 22.3147 37.478 22.1239 37.478 21.925V22.5594C37.478 22.9737 37.7355 23.4969 38.2518 23.4969H44.3143V22.8306C44.3183 22.778 44.3119 22.7251 44.2955 22.675Z" fill="#E8E8E8"></path>
    <path d="M45.5069 41.7606H18.4932C18.3274 41.7606 18.1684 41.6948 18.0512 41.5776C17.934 41.4604 17.8682 41.3014 17.8682 41.1356V31.5519C17.8682 31.3861 17.934 31.2271 18.0512 31.1099C18.1684 30.9927 18.3274 30.9269 18.4932 30.9269H45.5069C45.6727 30.9269 45.8316 30.9927 45.9489 31.1099C46.0661 31.2271 46.1319 31.3861 46.1319 31.5519V41.135C46.132 41.2171 46.1159 41.2985 46.0845 41.3744C46.0531 41.4503 46.0071 41.5192 45.9491 41.5773C45.891 41.6355 45.8221 41.6815 45.7462 41.713C45.6704 41.7444 45.589 41.7606 45.5069 41.7606Z" fill="#FEC601"></path>
    <path d="M19.7007 41.7606H44.3163V42.5712H19.7007V41.7606Z" fill="#E0E0E0"></path>
    <path d="M23.4675 38.7657C23.4192 38.7127 23.3821 38.6505 23.3584 38.5829C23.3348 38.5152 23.3251 38.4434 23.33 38.3719V35.0263C23.3218 34.9545 23.3299 34.8819 23.3537 34.8137C23.3775 34.7455 23.4164 34.6836 23.4675 34.6325C23.5186 34.5815 23.5805 34.5426 23.6487 34.5188C23.7168 34.495 23.7895 34.4869 23.8612 34.495H25.125C25.6133 34.495 26.0333 34.5836 26.385 34.7607C26.7263 34.9262 27.0095 35.1912 27.1975 35.5207C27.385 35.8502 27.4787 36.2421 27.4787 36.6963C27.4787 37.1504 27.386 37.5463 27.2006 37.8838C27.0163 38.2139 26.7345 38.4791 26.3937 38.6432C26.0421 38.8182 25.62 38.9057 25.1275 38.9057H23.8612C23.7896 38.9101 23.7177 38.9 23.6501 38.8759C23.5824 38.8518 23.5203 38.8143 23.4675 38.7657ZM25.0431 37.9782C25.4727 37.9782 25.7948 37.8727 26.0094 37.6619C26.2239 37.4511 26.3312 37.1292 26.3312 36.6963C26.3312 36.2625 26.2239 35.9415 26.0094 35.7332C25.7948 35.5248 25.4727 35.4207 25.0431 35.4207H24.4806V37.9782H25.0431Z" fill="#333333"></path>
    <path d="M29.0862 38.6812C28.7587 38.5001 28.4921 38.2261 28.32 37.8937C28.143 37.5193 28.0513 37.1104 28.0513 36.6962C28.0513 36.2821 28.143 35.8732 28.32 35.4987C28.4916 35.1667 28.7584 34.8934 29.0862 34.7137C29.4506 34.5329 29.8519 34.4387 30.2587 34.4387C30.6656 34.4387 31.0669 34.5329 31.4312 34.7137C31.7586 34.8933 32.0243 35.1673 32.1937 35.5C32.3692 35.8749 32.4599 36.2839 32.4594 36.6978C32.4589 37.1118 32.3671 37.5205 32.1906 37.895C32.0186 38.2274 31.7519 38.5014 31.4244 38.6825C31.0619 38.8658 30.6615 38.9613 30.2553 38.9613C29.8492 38.9613 29.4487 38.8658 29.0862 38.6825V38.6812ZM31.04 37.725C31.2275 37.4892 31.3212 37.1462 31.3212 36.6962C31.3212 36.2462 31.2265 35.9044 31.0369 35.6706C30.8477 35.4369 30.5883 35.3202 30.2587 35.3206C29.9292 35.321 29.6685 35.4367 29.4769 35.6675C29.2894 35.8987 29.1956 36.2417 29.1956 36.6962C29.1956 37.1508 29.2894 37.4948 29.4769 37.7281C29.6644 37.9615 29.925 38.0781 30.2587 38.0781C30.5925 38.0781 30.8529 37.9604 31.04 37.725Z" fill="#333333"></path>
    <path d="M34.0701 38.6875C33.7411 38.5073 33.4733 38.2331 33.3007 37.9C33.1217 37.5262 33.0288 37.117 33.0288 36.7025C33.0288 36.2881 33.1217 35.8789 33.3007 35.505C33.4734 35.1719 33.7412 34.8976 34.0701 34.7169C34.4709 34.5142 34.9181 34.4207 35.3665 34.4459C35.815 34.4712 36.2489 34.6142 36.6244 34.8607C36.6873 34.9023 36.7397 34.9579 36.7776 35.0232C36.8113 35.0932 36.8274 35.1705 36.8244 35.2482C36.8278 35.3672 36.7891 35.4836 36.7151 35.5769C36.6842 35.6184 36.644 35.6522 36.5978 35.6755C36.5516 35.6989 36.5006 35.7111 36.4488 35.7113C36.3913 35.7121 36.3342 35.7026 36.2801 35.6832C36.2189 35.6587 36.1603 35.6284 36.1051 35.5925C35.9762 35.5126 35.8375 35.4496 35.6926 35.405C35.5626 35.3674 35.4279 35.3485 35.2926 35.3488C34.9213 35.3488 34.6451 35.4602 34.4638 35.6832C34.2826 35.9061 34.1919 36.2448 34.1919 36.6994C34.1919 37.1577 34.2826 37.4986 34.4638 37.7219C34.6451 37.9452 34.9213 38.0567 35.2926 38.0563C35.416 38.0555 35.5385 38.0344 35.6551 37.9938C35.7719 37.9544 35.9219 37.8925 36.1051 37.8094C36.1926 37.7632 36.2576 37.7319 36.2988 37.715C36.3469 37.6977 36.3977 37.6895 36.4488 37.6907C36.5006 37.6907 36.5517 37.7028 36.5979 37.7262C36.6442 37.7495 36.6843 37.7834 36.7151 37.825C36.7891 37.9181 36.8278 38.0343 36.8244 38.1532C36.8268 38.2298 36.8107 38.3059 36.7776 38.375C36.7406 38.4417 36.6881 38.4986 36.6244 38.5407C36.2148 38.8231 35.7269 38.9698 35.2294 38.96C34.826 38.9702 34.4267 38.8764 34.0701 38.6875Z" fill="#333333"></path>
    <path d="M41.0388 38.4156C41.0393 38.4863 41.0247 38.5562 40.9962 38.6209C40.9676 38.6855 40.9257 38.7433 40.8732 38.7906C40.8246 38.8411 40.7664 38.8812 40.7019 38.9087C40.6375 38.9362 40.5682 38.9505 40.4982 38.9506C40.4246 38.9501 40.3521 38.9329 40.2861 38.9004C40.2201 38.868 40.1623 38.821 40.1169 38.7631L39.0413 37.475L37.9501 38.7593C37.9056 38.8167 37.8488 38.8633 37.7839 38.8957C37.719 38.9282 37.6476 38.9456 37.5751 38.9468C37.5047 38.9465 37.4352 38.9319 37.3708 38.9038C37.3063 38.8758 37.2482 38.8349 37.2001 38.7837C37.148 38.7361 37.1064 38.6782 37.0778 38.6136C37.0493 38.5491 37.0345 38.4793 37.0344 38.4087C37.0359 38.2841 37.0826 38.1642 37.1657 38.0712L38.3663 36.6831L37.1969 35.3262C37.1116 35.2339 37.0628 35.1137 37.0594 34.9881C37.0594 34.918 37.0741 34.8486 37.1027 34.7845C37.1312 34.7205 37.1729 34.6631 37.225 34.6162C37.2745 34.5659 37.3334 34.5258 37.3984 34.4985C37.4634 34.4711 37.5333 34.457 37.6038 34.4568C37.6773 34.4576 37.7497 34.4749 37.8157 34.5073C37.8817 34.5398 37.9396 34.5866 37.9851 34.6443L39.0419 35.8943L40.0926 34.6443C40.1349 34.5862 40.1903 34.5389 40.2544 34.5063C40.3185 34.4737 40.3894 34.4568 40.4613 34.4568C40.5318 34.457 40.6015 34.4711 40.6664 34.4985C40.7313 34.5259 40.7901 34.5659 40.8394 34.6162C40.8916 34.6631 40.9333 34.7205 40.9618 34.7845C40.9903 34.8486 41.0051 34.918 41.005 34.9881C41.0036 35.113 40.957 35.2331 40.8738 35.3262L39.7044 36.6831L40.8988 38.0712C40.9872 38.1642 41.0372 38.2873 41.0388 38.4156Z" fill="#333333"></path>
  </g>
  <defs>
    <clipPath id="clip0_148_4707">
      <rect width="64" height="64" fill="white"></rect>
    </clipPath>
  </defs>
</svg>