<svg width="72" height="72" viewBox="0 0 72 72" fill="none" xmlns="http://www.w3.org/2000/svg">
<path d="M43.4026 54.6576H21.752V57.4239C21.752 58.4551 22.1616 59.4441 22.8907 60.1734C23.6198 60.9026 24.6087 61.3124 25.64 61.3125H54.989C56.0201 61.3124 57.0089 60.9027 57.738 60.1736C58.4671 59.4445 58.8768 58.4556 58.877 57.4245V24.3276L45.2363 10.6875H25.64C24.6088 10.6875 23.6199 11.0971 22.8907 11.8263C22.1616 12.5554 21.752 13.5443 21.752 14.5755V34.4976H43.4026C43.8889 34.4976 44.3553 34.6908 44.6992 35.0347C45.0431 35.3786 45.2363 35.845 45.2363 36.3313V52.8238C45.2362 53.3101 45.0429 53.7764 44.6991 54.1203C44.3552 54.4642 43.8889 54.6574 43.4026 54.6576Z" fill="#EAEAE4"/>
<path d="M58.877 24.3276L45.2363 10.6875V20.4396C45.2365 21.4707 45.6462 22.4595 46.3753 23.1886C47.1044 23.9177 48.0932 24.3274 49.1243 24.3276H58.877Z" fill="#BABAB9"/>
<path d="M43.4024 34.4976H14.9568C13.944 34.4976 13.123 35.3186 13.123 36.3313V52.8238C13.123 53.8366 13.944 54.6576 14.9568 54.6576H43.4024C44.4152 54.6576 45.2362 53.8366 45.2362 52.8238V36.3313C45.2362 35.3186 44.4152 34.4976 43.4024 34.4976Z" fill="#F24646"/>
<path d="M20.7218 46.0001C22.4813 46.0001 23.7806 44.8667 23.7806 43.2602C23.7806 41.6537 22.4813 40.5203 20.7218 40.5203H17.0723V48.6343H18.8087V46.0001H20.7218ZM18.8093 42.115H20.5311C21.3934 42.115 21.9835 42.5649 21.9835 43.2602C21.9835 43.9554 21.3934 44.406 20.5311 44.406H18.8087L18.8093 42.115Z" fill="#FFFCEE"/>
<path d="M33.1004 44.5715C33.1004 42.1977 31.1637 40.5215 28.4356 40.5215H25.5303V48.6344H28.4356C31.1626 48.6344 33.1004 46.9452 33.1004 44.5715ZM28.66 47.0521H27.2661V42.1021H28.66C28.9984 42.0805 29.3375 42.1284 29.6566 42.243C29.9757 42.3576 30.2679 42.5364 30.5152 42.7683C30.7624 43.0003 30.9595 43.2804 31.0942 43.5915C31.229 43.9027 31.2985 44.2381 31.2985 44.5771C31.2985 44.9161 31.229 45.2516 31.0942 45.5627C30.9595 45.8738 30.7624 46.154 30.5152 46.3859C30.2679 46.6179 29.9757 46.7966 29.6566 46.9112C29.3375 47.0258 28.9984 47.0738 28.66 47.0521Z" fill="#FFFCEE"/>
<path d="M41.2868 42.0913V40.5203H35.0391V48.6343H36.7868V45.4219H40.8615V43.8508H36.7868V42.0913H41.2868Z" fill="#FFFCEE"/>
</svg>
