<svg width="72" height="72" viewBox="0 0 72 72" fill="none" xmlns="http://www.w3.org/2000/svg">
<path d="M43.4026 54.6581H21.752V57.4245C21.7521 58.4556 22.1618 59.4445 22.8909 60.1736C23.62 60.9027 24.6088 61.3124 25.64 61.3125H54.989C56.0201 61.3124 57.0089 60.9027 57.738 60.1736C58.4671 59.4445 58.8768 58.4556 58.877 57.4245V24.3281L45.2363 10.6875H25.64C24.6088 10.6876 23.62 11.0973 22.8909 11.8264C22.1618 12.5555 21.7521 13.5444 21.752 14.5755V34.4981H43.4026C43.8889 34.4981 44.3553 34.6913 44.6992 35.0352C45.0431 35.3791 45.2363 35.8455 45.2363 36.3319V52.8244C45.2362 53.3107 45.0429 53.777 44.6991 54.1209C44.3552 54.4647 43.8889 54.658 43.4026 54.6581Z" fill="#EAEAE4"/>
<path d="M58.877 24.3281L45.2363 10.6875V20.4401C45.2363 21.4713 45.646 22.4602 46.3751 23.1894C47.1042 23.9185 48.0932 24.3281 49.1243 24.3281H58.877Z" fill="#BABAB9"/>
<path d="M43.4024 34.498H14.9568C13.944 34.498 13.123 35.319 13.123 36.3318V52.8243C13.123 53.837 13.944 54.658 14.9568 54.658H43.4024C44.4152 54.658 45.2362 53.837 45.2362 52.8243V36.3318C45.2362 35.319 44.4152 34.498 43.4024 34.498Z" fill="#EA3883"/>
<path d="M21.7848 48.635V42.0925H24.3122V40.5215H17.5093V42.0925H20.0372V48.635H21.7848Z" fill="#FFFCEE"/>
<path d="M27.2074 48.635L29.1678 45.9783L31.1044 48.635H33.1711L30.1949 44.5608L33.1711 40.5215H31.1399L29.1914 43.1787L27.2423 40.5215H25.1875L28.1519 44.5962L25.1875 48.635H27.2074Z" fill="#FFFCEE"/>
<path d="M38.3219 48.635V42.0925H40.8498V40.5215H34.0469V42.0925H36.5742V48.635H38.3219Z" fill="#FFFCEE"/>
</svg>
