<svg width="72" height="72" viewBox="0 0 72 72" fill="none" xmlns="http://www.w3.org/2000/svg">
<path d="M43.4026 54.6581H21.752V57.4245C21.7521 58.4556 22.1618 59.4445 22.8909 60.1736C23.62 60.9027 24.6088 61.3124 25.64 61.3125H54.989C56.0201 61.3124 57.0089 60.9027 57.738 60.1736C58.4671 59.4445 58.8768 58.4556 58.877 57.4245V24.3281L45.2363 10.6875H25.64C24.6088 10.6876 23.62 11.0973 22.8909 11.8264C22.1618 12.5555 21.7521 13.5444 21.752 14.5755V34.4981H43.4026C43.8889 34.4981 44.3553 34.6913 44.6992 35.0352C45.0431 35.3791 45.2363 35.8455 45.2363 36.3319V52.8244C45.2362 53.3107 45.0429 53.777 44.6991 54.1209C44.3552 54.4647 43.8889 54.658 43.4026 54.6581Z" fill="#EAEAE4"/>
<path d="M58.877 24.3281L45.2363 10.6875V20.4401C45.2363 21.4713 45.646 22.4602 46.3751 23.1894C47.1042 23.9185 48.0932 24.3281 49.1243 24.3281H58.877Z" fill="#BABAB9"/>
<path d="M43.4024 34.498H14.9568C13.944 34.498 13.123 35.319 13.123 36.3318V52.8243C13.123 53.837 13.944 54.658 14.9568 54.658H43.4024C44.4152 54.658 45.2362 53.837 45.2362 52.8243V36.3318C45.2362 35.319 44.4152 34.498 43.4024 34.498Z" fill="#39B715"/>
<path d="M20.1674 48.635L22.1277 45.9783L24.0644 48.635H26.1316L23.1554 44.5608L26.1316 40.5215H24.0998L22.1513 43.1787L20.2028 40.5215H18.1475L21.1118 44.5962L18.1475 48.635H20.1674Z" fill="#FFFCEE"/>
<path d="M27.0776 40.5215V48.635H32.8646V47.0645H28.8259V40.5215H27.0776Z" fill="#FFFCEE"/>
<path d="M37.1297 47.3006C36.1391 47.2884 35.1883 46.9096 34.4606 46.2375L33.4565 47.4305C34.4413 48.3213 35.7289 48.8028 37.0565 48.7766C39.0405 48.7766 40.2099 47.7489 40.2099 46.202C40.2099 44.7024 39.0523 44.1826 37.3046 43.7928C36.0525 43.5116 35.5682 43.3203 35.5682 42.7297C35.5682 42.246 36.0182 41.8562 36.7612 41.8562C37.6121 41.8845 38.4282 42.2008 39.0759 42.7533L39.9855 41.5018C39.1026 40.7458 37.9703 40.3448 36.8085 40.3768C35.0372 40.3768 33.8087 41.4045 33.8087 42.9047C33.8087 44.4752 35.0254 44.9589 36.7376 45.3487C37.9751 45.63 38.4499 45.8094 38.4499 46.3882C38.4521 46.8984 38.0038 47.3006 37.1297 47.3006Z" fill="#FFFCEE"/>
</svg>
