<?xml version="1.0" encoding="UTF-8"?> <svg xmlns="http://www.w3.org/2000/svg" width="72" height="72" viewBox="0 0 72 72" fill="none"><path d="M46.9941 9.21733H42.5407C42.3382 8.06133 41.7432 7.01055 40.8561 6.24226C39.9689 5.47397 38.8439 5.03521 37.6709 5H34.3288C33.1557 5.03496 32.0306 5.47364 31.1433 6.24197C30.2561 7.0103 29.6612 8.06122 29.459 9.21733H25.0056C24.6979 9.21733 24.4027 9.33958 24.1851 9.55721C23.9675 9.77483 23.8452 10.07 23.8452 10.3778V12.7052H18.3216C16.9591 12.7068 15.6529 13.2488 14.6895 14.2122C13.726 15.1756 13.1841 16.4818 13.1825 17.8443V61.861C13.1841 63.2234 13.726 64.5297 14.6895 65.4931C15.6529 66.4565 16.9591 66.9984 18.3216 67H53.6781C55.0406 66.9984 56.3468 66.4565 57.3102 65.4931C58.2736 64.5297 58.8156 63.2234 58.8172 61.861V17.8443C58.8156 16.4818 58.2736 15.1756 57.3102 14.2122C56.3468 13.2488 55.0406 12.7068 53.6781 12.7052H48.1545V10.3778C48.1543 10.07 48.032 9.77499 47.8144 9.5574C47.5968 9.33982 47.3018 9.2175 46.9941 9.21733ZM26.166 13.8657V11.5382H30.5027C30.8104 11.538 31.1055 11.4157 31.3231 11.1981C31.5407 10.9805 31.663 10.6855 31.6632 10.3778C31.6632 8.69215 32.8567 7.32086 34.3288 7.32086H37.6709C39.141 7.32086 40.3365 8.69215 40.3365 10.3778C40.3367 10.6855 40.459 10.9805 40.6766 11.1981C40.8942 11.4157 41.1892 11.538 41.497 11.5382H45.8336V16.2197H26.166V13.8657ZM53.6781 15.0261C54.4253 15.027 55.1416 15.3242 55.6699 15.8525C56.1982 16.3808 56.4954 17.0971 56.4963 17.8443V61.861C56.4954 62.6081 56.1982 63.3244 55.6699 63.8528C55.1416 64.3811 54.4253 64.6783 53.6781 64.6791H18.3216C17.5744 64.6783 16.8581 64.3811 16.3298 63.8528C15.8014 63.3244 15.5043 62.6081 15.5034 61.861V17.8443C15.5043 17.0971 15.8014 16.3808 16.3298 15.8525C16.8581 15.3242 17.5744 15.027 18.3216 15.0261H23.8452V17.3801C23.8452 17.6879 23.9675 17.983 24.1851 18.2007C24.4027 18.4183 24.6979 18.5405 25.0056 18.5405H46.9941C47.3018 18.5404 47.5968 18.418 47.8144 18.2005C48.032 17.9829 48.1543 17.6878 48.1545 17.3801V15.0261H53.6781Z" fill="white" stroke="white" stroke-width="0.3"></path><path d="M24.5977 30.4778C24.7501 30.478 24.9011 30.4481 25.0419 30.3897C25.1826 30.3313 25.3105 30.2457 25.418 30.1376L28.203 27.3526C28.4206 27.135 28.5429 26.8398 28.5429 26.532C28.5429 26.2242 28.4206 25.9291 28.203 25.7114C27.9854 25.4938 27.6902 25.3715 27.3824 25.3715C27.0746 25.3715 26.7795 25.4938 26.5618 25.7114L24.5984 27.6742L23.4505 26.5264C23.2327 26.3087 22.9374 26.1865 22.6295 26.1867C22.3216 26.1868 22.0263 26.3092 21.8087 26.527C21.5911 26.7448 21.4689 27.0402 21.469 27.3481C21.4691 27.656 21.5916 27.9512 21.8094 28.1689L23.7781 30.1376C23.8856 30.2455 24.0133 30.3311 24.154 30.3895C24.2946 30.4479 24.4454 30.4779 24.5977 30.4778Z" fill="white" stroke="white" stroke-width="0.3"></path><path d="M48.2765 29.086C48.5843 29.086 48.8794 28.9637 49.0971 28.7461C49.3147 28.5285 49.4369 28.2333 49.4369 27.9256C49.4369 27.6178 49.3147 27.3226 49.0971 27.105C48.8794 26.8874 48.5843 26.7651 48.2765 26.7651H32.805C32.4973 26.7651 32.2021 26.8874 31.9845 27.105C31.7669 27.3226 31.6446 27.6178 31.6446 27.9256C31.6446 28.2333 31.7669 28.5285 31.9845 28.7461C32.2021 28.9637 32.4973 29.086 32.805 29.086H48.2765Z" fill="white" stroke="white" stroke-width="0.3"></path><path d="M24.5977 39.4807C24.7501 39.4809 24.9011 39.451 25.0419 39.3926C25.1826 39.3342 25.3105 39.2485 25.418 39.1405L28.203 36.3555C28.3108 36.2477 28.3962 36.1198 28.4546 35.979C28.5129 35.8382 28.5429 35.6873 28.5429 35.5349C28.5429 35.3825 28.5129 35.2316 28.4546 35.0908C28.3962 34.95 28.3108 34.822 28.203 34.7143C28.0952 34.6065 27.9673 34.521 27.8265 34.4627C27.6857 34.4044 27.5348 34.3744 27.3824 34.3744C27.23 34.3744 27.0791 34.4044 26.9383 34.4627C26.7975 34.521 26.6696 34.6065 26.5618 34.7143L24.5984 36.6771L23.4505 35.5292C23.2327 35.3116 22.9374 35.1894 22.6295 35.1895C22.3216 35.1897 22.0263 35.3121 21.8087 35.5299C21.5911 35.7477 21.4689 36.0431 21.469 36.351C21.4691 36.6589 21.5916 36.9541 21.8094 37.1717L23.7781 39.1405C23.8856 39.2484 24.0133 39.334 24.154 39.3924C24.2946 39.4507 24.4454 39.4808 24.5977 39.4807Z" fill="white" stroke="white" stroke-width="0.3"></path><path d="M48.2765 38.0881C48.5843 38.0881 48.8794 37.9658 49.0971 37.7482C49.3147 37.5306 49.4369 37.2354 49.4369 36.9276C49.4369 36.6199 49.3147 36.3247 49.0971 36.1071C48.8794 35.8895 48.5843 35.7672 48.2765 35.7672H32.805C32.4973 35.7672 32.2021 35.8895 31.9845 36.1071C31.7669 36.3247 31.6446 36.6199 31.6446 36.9276C31.6446 37.2354 31.7669 37.5306 31.9845 37.7482C32.2021 37.9658 32.4973 38.0881 32.805 38.0881H48.2765Z" fill="white" stroke="white" stroke-width="0.3"></path><path d="M24.5979 48.4836C24.9056 48.4834 25.2006 48.3611 25.4182 48.1434L28.2032 45.3584C28.4208 45.1408 28.5431 44.8456 28.5431 44.5378C28.5431 44.23 28.4208 43.9349 28.2032 43.7172C27.9855 43.4996 27.6904 43.3773 27.3826 43.3773C27.0748 43.3773 26.7796 43.4996 26.562 43.7172L24.5979 45.6813L23.4501 44.5342C23.2312 44.3228 22.938 44.2059 22.6338 44.2086C22.3295 44.2113 22.0385 44.3334 21.8234 44.5486C21.6082 44.7638 21.4863 45.0549 21.4837 45.3592C21.4811 45.6634 21.5981 45.9565 21.8096 46.1753L23.7783 48.1434C23.9956 48.3609 24.2904 48.4833 24.5979 48.4836Z" fill="white" stroke="white" stroke-width="0.3"></path><path d="M48.2765 47.0917C48.5843 47.0917 48.8794 46.9695 49.0971 46.7519C49.3147 46.5342 49.4369 46.2391 49.4369 45.9313C49.4369 45.6235 49.3147 45.3284 49.0971 45.1108C48.8794 44.8931 48.5843 44.7709 48.2765 44.7709H32.805C32.4973 44.7709 32.2021 44.8931 31.9845 45.1108C31.7669 45.3284 31.6446 45.6235 31.6446 45.9313C31.6446 46.2391 31.7669 46.5342 31.9845 46.7519C32.2021 46.9695 32.4973 47.0917 32.805 47.0917H48.2765Z" fill="white" stroke="white" stroke-width="0.3"></path><path d="M24.5979 57.4844C24.7503 57.4847 24.9013 57.4548 25.0421 57.3964C25.1828 57.338 25.3107 57.2523 25.4182 57.1443L28.2032 54.3592C28.311 54.2515 28.3964 54.1236 28.4548 53.9828C28.5131 53.842 28.5431 53.6911 28.5431 53.5387C28.5431 53.3863 28.5131 53.2354 28.4548 53.0946C28.3964 52.9538 28.311 52.8258 28.2032 52.7181C28.0954 52.6103 27.9675 52.5248 27.8267 52.4665C27.6859 52.4082 27.535 52.3782 27.3826 52.3782C27.2302 52.3782 27.0793 52.4082 26.9385 52.4665C26.7977 52.5248 26.6698 52.6103 26.562 52.7181L24.5986 54.6809L23.4508 53.533C23.2327 53.3154 22.9371 53.1933 22.629 53.1936C22.3209 53.1939 22.0256 53.3166 21.8079 53.5347C21.5903 53.7528 21.4682 54.0484 21.4685 54.3564C21.4688 54.6645 21.5915 54.9599 21.8096 55.1775L23.7783 57.1463C23.886 57.2538 24.0138 57.339 24.1544 57.3971C24.295 57.4551 24.4458 57.4848 24.5979 57.4844Z" fill="white" stroke="white" stroke-width="0.3"></path><path d="M48.2765 56.0921C48.5843 56.0921 48.8794 55.9698 49.0971 55.7522C49.3147 55.5346 49.4369 55.2394 49.4369 54.9317C49.4369 54.6239 49.3147 54.3287 49.0971 54.1111C48.8794 53.8935 48.5843 53.7712 48.2765 53.7712H32.805C32.4973 53.7712 32.2021 53.8935 31.9845 54.1111C31.7669 54.3287 31.6446 54.6239 31.6446 54.9317C31.6446 55.2394 31.7669 55.5346 31.9845 55.7522C32.2021 55.9698 32.4973 56.0921 32.805 56.0921H48.2765Z" fill="white" stroke="white" stroke-width="0.3"></path></svg> 