<?xml version="1.0" encoding="UTF-8"?> <svg xmlns="http://www.w3.org/2000/svg" width="72" height="72" viewBox="0 0 72 72" fill="none"><path d="M23.3438 62.2969H61.3125C61.5736 62.2969 61.824 62.1932 62.0086 62.0086C62.1932 61.824 62.2969 61.5736 62.2969 61.3125V10.6875C62.2969 10.4264 62.1932 10.176 62.0086 9.99144C61.824 9.80684 61.5736 9.70312 61.3125 9.70312H10.6875C10.4264 9.70312 10.176 9.80684 9.99144 9.99144C9.80684 10.176 9.70313 10.4264 9.70312 10.6875V61.3125C9.70312 61.5736 9.80684 61.824 9.99144 62.0086C10.176 62.1932 10.4264 62.2969 10.6875 62.2969H23.3438ZM49.6406 11.6719H60.3281V35.0156H49.6406V11.6719ZM36.9844 23.3438V11.6719H47.6719V35.0156H36.9844V23.3438ZM36.9844 36.9844H60.3281V47.6719H36.9844V36.9844ZM36.9844 49.6406H60.3281V60.3281H36.9844V49.6406ZM35.0156 48.6562V60.3281H24.3281V36.9844H35.0156V48.6562ZM11.6719 11.6719H35.0156V22.3594H11.6719V11.6719ZM11.6719 24.3281H35.0156V35.0156H11.6719V24.3281ZM11.6719 36.9844H22.3594V60.3281H11.6719V36.9844Z" fill="white" stroke="white" stroke-width="0.2"></path></svg> 