<?xml version="1.0" encoding="UTF-8"?> <svg xmlns="http://www.w3.org/2000/svg" width="72" height="72" viewBox="0 0 72 72" fill="none"><path d="M48.6545 7H23.3455C23.0576 7.00016 22.7816 7.11459 22.578 7.31813C22.3745 7.52168 22.2601 7.7977 22.2599 8.08556V13.496H19.136C18.9934 13.4959 18.8522 13.5239 18.7204 13.5785C18.5887 13.633 18.469 13.713 18.3682 13.8138C18.2673 13.9146 18.1874 14.0343 18.1329 14.166C18.0783 14.2978 18.0503 14.439 18.0504 14.5816V62.8289H8.08556C7.79765 62.8289 7.52154 62.9432 7.31795 63.1468C7.11437 63.3504 7 63.6265 7 63.9144C7 64.2023 7.11437 64.4785 7.31795 64.682C7.52154 64.8856 7.79765 65 8.08556 65H63.9144C64.2023 65 64.4785 64.8856 64.682 64.682C64.8856 64.4785 65 64.2023 65 63.9144C65 63.6265 64.8856 63.3504 64.682 63.1468C64.4785 62.9432 64.2023 62.8289 63.9144 62.8289H53.9496V14.5816C53.9496 14.2937 53.8352 14.0175 53.6317 13.814C53.4281 13.6104 53.152 13.496 52.864 13.496H49.7395V8.08556C49.7393 7.79781 49.625 7.52188 49.4216 7.31835C49.2182 7.11482 48.9423 7.00033 48.6545 7ZM24.431 9.17112H47.569V13.496H24.431V9.17112ZM34.9144 62.8289H29.821V49.9368H34.9144V62.8289ZM42.179 62.8289H37.0856V49.9368H42.179V62.8289ZM51.7785 15.6671V62.8289H44.3501V48.8512C44.35 48.5633 44.2355 48.2873 44.032 48.0838C43.8285 47.8802 43.5524 47.7658 43.2646 47.7656H28.7348C28.4469 47.7658 28.1709 47.8802 27.9674 48.0838C27.7638 48.2873 27.6494 48.5633 27.6492 48.8512V62.8289H20.2215V15.6671H51.7785Z" fill="white" stroke="white" stroke-width="0.1"></path><path d="M32.287 29.0363C32.5749 29.0362 32.8509 28.9217 33.0544 28.7182C33.258 28.5146 33.3724 28.2386 33.3726 27.9508V20.8469C33.3726 20.5589 33.2582 20.2828 33.0546 20.0792C32.851 19.8757 32.5749 19.7613 32.287 19.7613H25.1831C25.0405 19.7612 24.8993 19.7892 24.7676 19.8438C24.6358 19.8983 24.5161 19.9782 24.4153 20.0791C24.3145 20.1799 24.2345 20.2996 24.18 20.4313C24.1255 20.5631 24.0974 20.7043 24.0975 20.8469V27.9508C24.0975 28.2387 24.2119 28.5148 24.4155 28.7184C24.6191 28.922 24.8952 29.0363 25.1831 29.0363H32.287ZM26.2699 21.9324H31.2033V26.8652H26.268L26.2699 21.9324Z" fill="white" stroke="white" stroke-width="0.1"></path><path d="M46.8172 29.0363C47.105 29.0362 47.3811 28.9217 47.5846 28.7182C47.7882 28.5146 47.9026 28.2386 47.9027 27.9508V20.8469C47.9027 20.5589 47.7884 20.2828 47.5848 20.0792C47.3812 19.8757 47.1051 19.7613 46.8172 19.7613H39.7126C39.4247 19.7613 39.1486 19.8757 38.945 20.0792C38.7415 20.2828 38.6271 20.5589 38.6271 20.8469V27.9508C38.6272 28.2386 38.7417 28.5146 38.9452 28.7182C39.1488 28.9217 39.4248 29.0362 39.7126 29.0363H46.8172ZM40.8001 21.9324H45.7335V26.8652H40.7982L40.8001 21.9324Z" fill="white" stroke="white" stroke-width="0.1"></path><path d="M32.287 42.9682C32.5749 42.9682 32.851 42.8538 33.0546 42.6502C33.2582 42.4466 33.3726 42.1705 33.3726 41.8826V34.7787C33.3726 34.4908 33.2582 34.2147 33.0546 34.0111C32.851 33.8075 32.5749 33.6931 32.287 33.6931H25.1831C25.0405 33.693 24.8993 33.7211 24.7676 33.7756C24.6358 33.8301 24.5161 33.9101 24.4153 34.0109C24.3145 34.1117 24.2345 34.2314 24.18 34.3632C24.1255 34.4949 24.0974 34.6361 24.0975 34.7787V41.8826C24.0974 42.0252 24.1255 42.1664 24.18 42.2981C24.2345 42.4299 24.3145 42.5496 24.4153 42.6504C24.5161 42.7512 24.6358 42.8312 24.7676 42.8857C24.8993 42.9402 25.0405 42.9682 25.1831 42.9682H32.287ZM26.2699 35.8636H31.2033V40.797H26.268L26.2699 35.8636Z" fill="white" stroke="white" stroke-width="0.1"></path><path d="M46.8172 42.9682C47.1051 42.9682 47.3812 42.8538 47.5848 42.6502C47.7884 42.4466 47.9027 42.1705 47.9027 41.8826V34.7787C47.9027 34.4908 47.7884 34.2147 47.5848 34.0111C47.3812 33.8075 47.1051 33.6931 46.8172 33.6931H39.7126C39.4247 33.6931 39.1486 33.8075 38.945 34.0111C38.7415 34.2147 38.6271 34.4908 38.6271 34.7787V41.8826C38.6271 42.1705 38.7415 42.4466 38.945 42.6502C39.1486 42.8538 39.4247 42.9682 39.7126 42.9682H46.8172ZM40.8001 35.8636H45.7335V40.797H40.7982L40.8001 35.8636Z" fill="white" stroke="white" stroke-width="0.1"></path></svg> 