<?xml version="1.0" encoding="UTF-8"?> <svg xmlns="http://www.w3.org/2000/svg" width="72" height="72" viewBox="0 0 72 72" fill="none"><path d="M50.2104 8H16.259C15.4028 8.00095 14.5819 8.34278 13.9765 8.95049C13.371 9.55819 13.0305 10.3821 13.0295 11.2416V11.9636H10.0448C9.76772 11.9636 9.50201 12.0741 9.3061 12.2707C9.11018 12.4673 9.00012 12.7341 9.00012 13.0122V18.7835C9.00012 19.0616 9.11018 19.3283 9.3061 19.5249C9.50201 19.7216 9.76772 19.832 10.0448 19.832H13.0295V20.5511C13.0305 21.4105 13.371 22.2344 13.9765 22.8421C14.5819 23.4498 15.4028 23.7917 16.259 23.7926H17.2547V34.2352C17.2547 35.1704 17.6248 36.0673 18.2837 36.7285C18.9425 37.3898 19.836 37.7613 20.7678 37.7613C21.6995 37.7613 22.593 37.3898 23.2518 36.7285C23.9107 36.0673 24.2808 35.1704 24.2808 34.2352V30.1607C24.2769 29.9706 24.3109 29.7817 24.3807 29.6049C24.4504 29.4282 24.5547 29.2672 24.6872 29.1314C24.8198 28.9956 24.978 28.8877 25.1527 28.814C25.3273 28.7404 25.5148 28.7024 25.7042 28.7024C25.8936 28.7024 26.0811 28.7404 26.2558 28.814C26.4304 28.8877 26.5886 28.9956 26.7212 29.1314C26.8537 29.2672 26.958 29.4282 27.0278 29.6049C27.0976 29.7817 27.1315 29.9706 27.1276 30.1607V30.2386C27.1216 30.7055 27.2079 31.169 27.3818 31.6021C27.5556 32.0352 27.8134 32.4294 28.1401 32.7617C28.4669 33.094 28.8562 33.3578 29.2854 33.5379C29.7146 33.718 30.1752 33.8108 30.6404 33.8108C31.1056 33.8108 31.5661 33.718 31.9953 33.5379C32.4245 33.3578 32.8138 33.094 33.1406 32.7617C33.4674 32.4294 33.7252 32.0352 33.899 31.6021C34.0728 31.169 34.1592 30.7055 34.1531 30.2386V23.792H50.2104C51.0666 23.7911 51.8875 23.4492 52.4929 22.8415C53.0984 22.2338 53.4389 21.4099 53.4399 20.5505V19.8314H56.4246C56.5618 19.8315 56.6977 19.8045 56.8245 19.7518C56.9513 19.6991 57.0665 19.6219 57.1635 19.5245C57.2605 19.4271 57.3375 19.3115 57.3899 19.1842C57.4424 19.057 57.4694 18.9206 57.4693 18.7829V16.8655H58.7169C59.0345 16.866 59.3389 16.9928 59.5633 17.2183C59.7878 17.4437 59.9141 17.7493 59.9144 18.068V24.0904C59.9109 25.0319 59.6045 25.947 59.0408 26.6996C58.4772 27.4521 57.6864 28.0018 56.7864 28.2667L37.7049 33.8044C36.3784 34.1945 35.213 35.0044 34.3824 36.1134C33.5517 37.2224 33.1003 38.5711 33.0953 39.9585V41.6596H30.8765C30.5994 41.6596 30.3337 41.7701 30.1378 41.9667C29.9419 42.1634 29.8318 42.4301 29.8318 42.7082V46.3752H29.7035C29.4264 46.3752 29.1607 46.4857 28.9648 46.6823C28.7689 46.8789 28.6588 47.1456 28.6588 47.4237V58.4409C28.6512 59.1682 28.7874 59.8898 29.0595 60.5639C29.3315 61.238 29.734 61.8513 30.2437 62.3682C30.7534 62.8852 31.3602 63.2956 32.0289 63.5757C32.6976 63.8558 33.4151 64 34.1397 64C34.8643 64 35.5817 63.8558 36.2504 63.5757C36.9192 63.2956 37.5259 62.8852 38.0356 62.3682C38.5453 61.8513 38.9478 61.238 39.2199 60.5639C39.4919 59.8898 39.6281 59.1682 39.6206 58.4409V47.4237C39.6206 47.286 39.5937 47.1496 39.5412 47.0224C39.4887 46.8951 39.4118 46.7795 39.3148 46.6821C39.2177 46.5847 39.1025 46.5075 38.9758 46.4548C38.849 46.4022 38.7131 46.3751 38.5759 46.3752H38.4505V42.7082C38.4505 42.4301 38.3405 42.1634 38.1446 41.9667C37.9487 41.7701 37.6829 41.6596 37.4059 41.6596H35.1846V39.9585C35.188 39.0253 35.4917 38.1181 36.0504 37.3721C36.6091 36.6262 37.3929 36.0813 38.2852 35.8188L57.3636 30.2806C58.6979 29.8881 59.87 29.0734 60.7055 27.958C61.541 26.8425 61.9951 25.486 62.0001 24.0904V18.0663C61.9993 17.1915 61.6528 16.3527 61.0366 15.7341C60.4204 15.1155 59.5849 14.7675 58.7133 14.7666H57.4657V13.0104C57.4655 12.8726 57.4383 12.7362 57.3856 12.609C57.3329 12.4818 57.2557 12.3663 57.1584 12.269C57.0612 12.1718 56.9458 12.0948 56.8188 12.0424C56.6919 11.99 56.5559 11.9632 56.4187 11.9636H53.4339V11.2446C53.4338 10.3857 53.0944 9.56184 52.4902 8.95366C51.8859 8.34547 51.0661 8.00254 50.2104 8ZM13.0295 17.7331H11.0912V14.0607H13.0295V17.7331ZM51.3488 13.0104V20.5505C51.3485 20.8536 51.2285 21.1442 51.0151 21.3587C50.8018 21.5732 50.5124 21.6941 50.2104 21.6949H33.1085C32.9712 21.6948 32.8354 21.7219 32.7086 21.7746C32.5818 21.8272 32.4666 21.9045 32.3696 22.0018C32.2726 22.0992 32.1956 22.2148 32.1432 22.3421C32.0907 22.4694 32.0637 22.6057 32.0638 22.7435V30.2386C32.0677 30.4287 32.0337 30.6177 31.9639 30.7944C31.8941 30.9712 31.7899 31.1322 31.6573 31.268C31.5248 31.4038 31.3666 31.5117 31.1919 31.5853C31.0173 31.659 30.8298 31.6969 30.6404 31.6969C30.451 31.6969 30.2634 31.659 30.0888 31.5853C29.9142 31.5117 29.756 31.4038 29.6234 31.268C29.4908 31.1322 29.3866 30.9712 29.3168 30.7944C29.247 30.6177 29.2131 30.4287 29.2169 30.2386V30.1655C29.223 29.6986 29.1366 29.2352 28.9628 28.8021C28.789 28.3689 28.5312 27.9748 28.2044 27.6425C27.8777 27.3102 27.4884 27.0463 27.0592 26.8662C26.63 26.6861 26.1694 26.5934 25.7042 26.5934C25.239 26.5934 24.7785 26.6861 24.3493 26.8662C23.9201 27.0463 23.5308 27.3102 23.204 27.6425C22.8772 27.9748 22.6194 28.3689 22.4456 28.8021C22.2718 29.2352 22.1854 29.6986 22.1915 30.1655V34.24C22.1915 34.4276 22.1546 34.6134 22.0831 34.7868C22.0115 34.9602 21.9067 35.1177 21.7745 35.2504C21.6423 35.3831 21.4853 35.4884 21.3126 35.5602C21.1399 35.632 20.9547 35.669 20.7678 35.669C20.5808 35.669 20.3957 35.632 20.2229 35.5602C20.0502 35.4884 19.8932 35.3831 19.761 35.2504C19.6288 35.1177 19.524 34.9602 19.4524 34.7868C19.3809 34.6134 19.344 34.4276 19.344 34.24V22.7435C19.344 22.4654 19.234 22.1987 19.0381 22.002C18.8421 21.8054 18.5764 21.6949 18.2994 21.6949H16.259C15.9567 21.6946 15.6669 21.5739 15.4531 21.3593C15.2394 21.1448 15.1192 20.8539 15.1188 20.5505V11.2446C15.1192 10.9411 15.2394 10.6502 15.4531 10.4357C15.6669 10.2211 15.9567 10.1004 16.259 10.1001H50.2104C50.5127 10.1004 50.8025 10.2211 51.0163 10.4357C51.23 10.6502 51.3503 10.9411 51.3506 11.2446L51.3488 13.0104ZM37.5312 48.4723V58.4409C37.5372 58.8918 37.4539 59.3393 37.2861 59.7576C37.1183 60.1758 36.8695 60.5565 36.5539 60.8774C36.2384 61.1984 35.8625 61.4532 35.4481 61.6271C35.0336 61.801 34.5889 61.8906 34.1397 61.8906C33.6905 61.8906 33.2457 61.801 32.8313 61.6271C32.4168 61.4532 32.0409 61.1984 31.7254 60.8774C31.4099 60.5565 31.161 60.1758 30.9932 59.7576C30.8255 59.3393 30.7422 58.8918 30.7481 58.4409V48.4723H37.5312ZM36.3612 43.7568V46.3752H31.9211V43.7568H36.3612ZM55.3764 14.0607V17.7349H53.4381V14.0607H55.3764Z" fill="white" stroke="white" stroke-width="0.1"></path><path d="M34.4157 23.792C34.6928 23.792 34.9585 23.6815 35.1544 23.4848C35.3503 23.2882 35.4604 23.0215 35.4604 22.7434C35.4604 22.4653 35.3503 22.1986 35.1544 22.0019C34.9585 21.8053 34.6928 21.6948 34.4157 21.6948H17.6272C17.3502 21.6948 17.0845 21.8053 16.8886 22.0019C16.6926 22.1986 16.5826 22.4653 16.5826 22.7434C16.5826 23.0215 16.6926 23.2882 16.8886 23.4848C17.0845 23.6815 17.3502 23.792 17.6272 23.792L34.4157 23.792Z" fill="white" stroke="white" stroke-width="0.1"></path></svg> 